<svg width="32" height="30" viewBox="0 0 32 30" fill="none" xmlns="http://www.w3.org/2000/svg">
<path d="M31.2393 2.1847L28.3655 0.288876C27.9839 0.0394103 27.5164 -0.0536478 27.0646 0.0299368C26.6128 0.113521 26.2132 0.36699 25.9527 0.735228L11.8844 20.8895L5.41788 14.6079C5.09118 14.294 4.6502 14.1179 4.19069 14.1179C3.73118 14.1179 3.29021 14.294 2.9635 14.6079L0.509116 16.9967C0.347721 17.1533 0.219682 17.3392 0.132324 17.5439C0.0449651 17.7486 0 17.968 0 18.1896C0 18.4112 0.0449651 18.6306 0.132324 18.8352C0.219682 19.0399 0.347721 19.2259 0.509116 19.3824L10.4499 29.0435C11.0087 29.5832 11.8828 30 12.6706 30C13.4583 30 14.2524 29.5179 14.7631 28.7963L31.702 4.52532C31.9596 4.15516 32.0556 3.70088 31.9688 3.26209C31.8821 2.82331 31.6197 2.43585 31.2393 2.1847Z" fill="#2521E7"/>
</svg>
