<svg width="26" height="24" viewBox="0 0 26 24" fill="none" xmlns="http://www.w3.org/2000/svg">
<path d="M4.45682 0.984578C4.36148 1.05482 0.101598 7.85358 0.0263352 8.04926C-0.013805 8.15463 -0.0087875 8.22488 0.0464054 8.34028C0.111633 8.47575 12.0734 23.3527 12.4849 23.8093C12.6203 23.9649 12.6856 24 12.8461 24C13.0217 24 13.0619 23.9699 13.3278 23.6588C14.0654 22.7958 25.5706 8.47575 25.6358 8.34028C25.691 8.22488 25.696 8.15965 25.6509 8.04425C25.5706 7.83853 21.3258 1.05984 21.2254 0.984578C21.11 0.894263 4.57222 0.894263 4.45682 0.984578ZM11.8777 1.81247C11.8276 1.94293 7.39709 7.33677 7.36699 7.30165C7.34692 7.28158 6.90035 6.09243 6.37853 4.65741C5.85169 3.2224 5.40011 1.98808 5.37001 1.9078L5.31481 1.77233H8.60632C10.4176 1.77233 11.8878 1.7924 11.8777 1.81247ZM19.7302 3.43815C19.389 4.35636 18.9274 5.60071 18.7016 6.20281C18.4808 6.80492 18.2801 7.29162 18.26 7.28158C18.2149 7.26653 13.7944 1.83254 13.7944 1.79742C13.7944 1.78237 15.2696 1.77233 17.0759 1.77233H20.3524L19.7302 3.43815ZM15.1943 4.89324L17.5024 7.74319H12.8411H8.17983L10.4979 4.8832C11.7724 3.31271 12.8311 2.03324 12.8461 2.03826C12.8662 2.04328 13.9199 3.32777 15.1943 4.89324ZM5.61085 5.04878C6.14271 6.50888 6.5692 7.70807 6.55415 7.72312C6.54411 7.73316 5.3399 7.73818 3.87478 7.73316L1.21549 7.71811L2.90138 5.02369C3.82962 3.5385 4.59731 2.34433 4.61738 2.3644C4.63243 2.38447 5.07899 3.5937 5.61085 5.04878ZM22.8812 5.18425L24.4667 7.71811L21.7824 7.73316C20.3072 7.73818 19.0879 7.73316 19.0779 7.72312C19.0629 7.71309 20.5932 3.55857 21.0197 2.4497L21.0749 2.30419L21.1853 2.47479C21.2455 2.57012 22.0081 3.78938 22.8812 5.18425ZM8.27516 12.3443C9.02779 14.4115 10.0714 17.2564 10.5882 18.6764C11.1251 20.1516 11.4914 21.2153 11.4362 21.1601C11.2907 21.0045 1.35096 8.65137 1.35096 8.62126C1.35096 8.60621 2.60033 8.59618 4.13068 8.59618H6.90537L8.27516 12.3443ZM17.7834 8.68147C17.7633 8.73165 16.6896 11.6167 15.395 15.0939C14.1005 18.571 12.9816 21.5715 12.9063 21.7622C12.821 21.988 12.7658 22.0833 12.7408 22.0381C12.7207 21.998 11.6168 18.9975 10.2922 15.3698C8.96758 11.7422 7.86372 8.73165 7.84867 8.68147C7.81355 8.60119 8.06944 8.59618 12.816 8.59618C17.5626 8.59618 17.8185 8.60119 17.7834 8.68147ZM24.3212 8.64133C24.3012 8.69653 13.9249 21.5815 13.9098 21.5715C13.8998 21.5665 14.9786 18.6513 16.3032 15.0989C17.6278 11.5415 18.7116 8.62628 18.7116 8.61625C18.7116 8.60621 19.976 8.59618 21.5265 8.59618C23.0869 8.59618 24.3313 8.61625 24.3212 8.64133Z" fill="#ACFF6B"/>
</svg>
