<svg width="22" height="23" viewBox="0 0 22 23" fill="none" xmlns="http://www.w3.org/2000/svg">
<path d="M0.497874 0.103819L0.37207 0.211651V11.498V22.7843L0.497874 22.8922C0.565268 22.9506 0.664113 23 0.713536 23C0.839339 23 1.05051 22.8832 1.08645 22.7978C1.09993 22.7574 1.11341 20.5423 1.11341 17.8735V13.0256H3.2296C4.39328 13.0256 5.3368 13.0391 5.32782 13.0571C5.04027 13.6322 5.00432 13.731 4.98635 14.0635C4.94142 14.8138 5.3413 15.5327 5.98379 15.8652C6.41961 16.0898 6.06017 16.0808 13.9004 16.0808H21.2284L21.3183 15.982C21.4576 15.8292 21.4756 15.7124 21.3857 15.5417C21.3408 15.4563 20.4107 14.0815 19.3144 12.4864C17.4993 9.85357 17.3285 9.58399 17.378 9.49862C17.4094 9.4492 18.326 8.11479 19.4133 6.53326C20.5006 4.95174 21.4082 3.60834 21.4306 3.54993C21.4576 3.47355 21.4531 3.39717 21.4171 3.3118C21.3048 3.03773 21.6508 3.05121 15.3337 3.05121H9.5602V2.2245C9.5602 1.47867 9.55121 1.38881 9.47483 1.29446L9.38946 1.18663L5.26042 1.16416L1.13588 1.1417L1.12689 0.737328C1.10892 0.207158 1.09095 0.144256 0.933692 0.0633825C0.74948 -0.0309699 0.646142 -0.021984 0.497874 0.103819ZM8.79639 7.09488V12.2618H4.9549H1.11341V7.09488V1.92797H4.9549H8.79639V7.09488ZM20.2984 3.85096C20.2984 3.87342 19.4357 5.14044 18.3844 6.67254C16.6276 9.22455 16.4749 9.46717 16.4884 9.61095C16.5018 9.72776 16.9691 10.4377 18.4024 12.5179C19.4447 14.032 20.2984 15.2811 20.2984 15.2946C20.2984 15.308 17.2162 15.317 13.4511 15.317H6.60382L6.36569 15.1912C5.81755 14.9037 5.5929 14.2657 5.849 13.722C5.9793 13.4435 6.15452 13.2637 6.41512 13.1424C6.60382 13.0526 6.70716 13.0481 7.97418 13.0346L9.32656 13.0211L9.44338 12.9043L9.5602 12.7875V8.30349V3.81501H14.9293C17.8812 3.81501 20.2984 3.83299 20.2984 3.85096Z" fill="#ACFF6B"/>
</svg>
