<svg width="38" height="38" viewBox="0 0 38 38" fill="none" xmlns="http://www.w3.org/2000/svg">
<path d="M3.74805 4.63867C2.74609 4.86133 2.03359 5.24727 1.3582 5.9375C0.838672 6.45703 0.504687 6.99883 0.2375 7.73359L0.0371094 8.27539V19V29.7246L0.2375 30.2664C0.779297 31.7508 1.87773 32.8121 3.33984 33.2648L3.89648 33.4355H19H34.1035L34.6602 33.2648C36.1223 32.8121 37.2207 31.7508 37.7625 30.2664L37.9629 29.7246V19V8.27539L37.7625 7.73359C37.2281 6.27148 36.152 5.225 34.6973 4.73516L34.1777 4.56445L19.1855 4.54961C6.84297 4.54219 4.11172 4.55703 3.74805 4.63867ZM34.4523 6.96172C34.9941 7.22891 35.3727 7.60742 35.6398 8.15664L35.8105 8.49805L35.8328 18.9035C35.8477 29.257 35.8477 29.309 35.6992 29.7172C35.4988 30.2516 35.0016 30.7859 34.4598 31.0605L34.0293 31.2832H19H3.9707L3.59961 31.0977C3.05039 30.8305 2.50117 30.2516 2.31562 29.7395L2.15234 29.309V19.0074C2.15234 7.60742 2.11523 8.40899 2.63477 7.70391C2.93906 7.2957 3.33984 7.00625 3.88164 6.8207C4.24531 6.68711 4.99492 6.68711 19.1113 6.70195L33.9551 6.7168L34.4523 6.96172Z" fill="#373737"/>
<path d="M5.15079 8.61655C4.60899 8.77241 4.275 9.38843 4.44571 9.93765C4.51993 10.1974 5.1211 10.7615 9.32188 14.5095C11.9566 16.8697 14.1016 18.8216 14.0867 18.8513C14.0719 18.881 11.9418 20.8923 9.35157 23.3193C6.76133 25.7462 4.59414 27.8169 4.54219 27.9357C4.23047 28.6259 4.76485 29.4201 5.54414 29.4052C5.72227 29.4052 5.94493 29.3533 6.03399 29.2939C6.12305 29.2345 8.34219 27.1787 10.9695 24.722L15.7418 20.2541L17.0184 21.397C17.7234 22.0205 18.384 22.5994 18.4953 22.6662C18.7402 22.8294 19.3191 22.8369 19.5418 22.6884C19.6309 22.6291 20.3063 22.0427 21.041 21.3896L22.3695 20.1947L22.5625 20.3654C22.6664 20.4619 24.8262 22.5103 27.3719 24.9224C32.2777 29.5759 32.2184 29.5314 32.7973 29.4201C33.1387 29.3459 33.5246 28.9599 33.584 28.6185C33.7102 27.9802 33.8363 28.1287 28.7152 23.2673C24.1879 18.9626 23.9727 18.7474 24.0988 18.6287C24.1731 18.5619 26.3106 16.6396 28.8488 14.3685C32.8863 10.7541 33.4801 10.1974 33.5543 9.93765C33.6731 9.54429 33.5469 9.13609 33.2129 8.83921C32.9902 8.64624 32.8863 8.60913 32.5523 8.60913C32.2555 8.60913 32.0996 8.65366 31.9438 8.77241C31.7731 8.90601 19.9277 19.5044 19.2152 20.165L19.0148 20.3431L12.5875 14.5912C9.05469 11.422 6.08594 8.78726 5.98946 8.72788C5.75938 8.57944 5.41797 8.53491 5.15079 8.61655Z" fill="#373737"/>
</svg>
