<svg width="57" height="57" viewBox="0 0 57 57" fill="none" xmlns="http://www.w3.org/2000/svg">
<path d="M19 16.1975V40.8025C19 42.6788 21.0663 43.8188 22.6575 42.7975L41.99 30.495C42.3285 30.2808 42.6073 29.9845 42.8004 29.6336C42.9936 29.2827 43.0949 28.8887 43.0949 28.4881C43.0949 28.0876 42.9936 27.6936 42.8004 27.3427C42.6073 26.9918 42.3285 26.6955 41.99 26.4813L22.6575 14.2025C22.2993 13.9708 21.8852 13.8401 21.4588 13.8242C21.0325 13.8082 20.6098 13.9076 20.2352 14.1119C19.8607 14.3162 19.5483 14.6178 19.3309 14.9849C19.1134 15.3519 18.9991 15.7709 19 16.1975Z" fill="white"/>
</svg>
