<svg width="35" height="30" viewBox="0 0 35 30" fill="none" xmlns="http://www.w3.org/2000/svg">
<path fill-rule="evenodd" clip-rule="evenodd" d="M12.4148 0.26845C5.04113 5.22647 0.944714 10.997 0.125573 17.5803C-1.14964 27.829 7.60429 32.8454 12.0398 28.3382C16.4753 23.8311 13.8165 18.11 10.6048 16.5462C7.39299 14.9823 5.42888 15.527 5.77149 13.4373C6.1141 11.3475 10.6835 5.55349 14.6979 2.85516C14.9642 2.61804 15.0655 2.15794 14.8091 1.80898C14.6404 1.57934 14.3095 1.12916 13.8165 0.45826C13.3854 -0.128401 12.9724 -0.106452 12.4148 0.26845Z" fill="#2521E7"/>
<path fill-rule="evenodd" clip-rule="evenodd" d="M31.8269 0.26845C24.4533 5.22647 20.3568 10.997 19.5377 17.5803C18.2625 27.829 27.0165 32.8454 31.452 28.3382C35.8875 23.8311 33.2287 18.11 30.0169 16.5462C26.8051 14.9823 24.8409 15.527 25.1836 13.4373C25.5263 11.3475 30.0956 5.55349 34.11 2.85516C34.3764 2.61804 34.4777 2.15794 34.2212 1.80898C34.0525 1.57934 33.7217 1.12916 33.2287 0.45826C32.7975 -0.128401 32.3845 -0.106452 31.8269 0.26845Z" fill="#2521E7"/>
</svg>
