<svg width="70" height="70" viewBox="0 0 70 70" fill="none" xmlns="http://www.w3.org/2000/svg">
<g clip-path="url(#clip0_93_106)">
<path fill-rule="evenodd" clip-rule="evenodd" d="M40.525 34.7698C42.786 31.6851 45.1916 27.4058 45.1298 23.2046C45.0306 16.2595 40.8236 11.2451 34.8981 11.0106C28.9726 10.7761 24.8158 14.891 24.082 21.5433L24.0644 21.5958L24.0434 21.9318C24.0306 22.0648 24.0108 22.192 24.0026 22.3262H24.0178L23.9723 23.0145C23.76 27.575 26.2753 31.9558 28.4266 34.834C28.0766 35.184 27.7266 35.534 27.3895 35.8992C22.3786 41.2215 17.6793 45.7575 17.6314 45.803L17.0015 46.4108L22.9736 57.6668L24.0236 55.9332C27.2244 51.0661 30.7233 46.4018 34.5003 41.967C38.2781 46.4024 41.7781 51.0671 44.9805 55.9343L46.0305 57.668L52.0038 46.412L51.3726 45.8041C51.3248 45.7586 46.6278 41.225 41.6146 35.9003C41.2669 35.5176 40.8925 35.1501 40.525 34.7698ZM38.7143 32.9568C37.802 32.0562 36.906 31.1671 36.0613 30.2735C38.2325 27.7243 40.4071 24.3573 40.1446 20.0721C41.318 20.527 42.2683 21.4208 42.7941 22.5641C42.807 22.7881 42.8233 23.0098 42.8268 23.2385C42.8769 26.8015 40.6393 30.6456 38.8741 33.1155C38.8169 33.0618 38.7656 33.0093 38.7143 32.9568ZM37.8346 19.9998C38.0925 22.822 37.0856 25.4178 34.505 28.5281C32.3455 25.9311 30.8813 23.2186 31.1706 20.0255L31.2535 19.2975C32.3146 19.1086 33.391 19.018 34.4688 19.0268C35.5644 19.018 36.6584 19.1148 37.7355 19.3161L37.8346 19.9998ZM41.8409 18.3525C39.572 17.1626 37.0283 16.5954 34.4688 16.7087C31.9612 16.6076 29.4691 17.1451 27.2261 18.2708C27.7977 16.7457 28.8418 15.4432 30.2061 14.5534C31.5704 13.6637 33.1833 13.2334 34.8095 13.3253C36.344 13.3851 37.8275 13.8928 39.077 14.7857C40.3265 15.6786 41.2873 16.9177 41.8409 18.3501V18.3525ZM19.8563 46.867C21.3111 45.4437 25.0911 41.7138 29.0636 37.4905C29.3331 37.2058 29.612 36.9293 29.8861 36.6482C30.6013 37.4742 31.1403 38.0108 31.3036 38.1648C31.467 38.3188 32.0795 39.0643 32.9988 40.1587C30.1708 43.5618 25.9195 48.8386 23.1311 53.0363L19.8563 46.867ZM33.007 36.6085L32.9346 36.5315C32.8646 36.465 25.9661 29.7648 26.2741 23.1451L26.3406 22.1185C26.925 21.1609 27.811 20.4246 28.8595 20.0255C28.4336 26.0513 32.8378 30.403 37.0973 34.6088C38.0446 35.5421 39.0234 36.5116 39.9451 37.4905C43.9118 41.7115 47.6988 45.4425 49.1536 46.8646L45.8765 53.0375C41.8681 47.3464 37.5727 41.863 33.007 36.6085Z" fill="#005F8C"/>
</g>
<defs>
<clipPath id="clip0_93_106">
<rect width="35" height="46.6667" fill="white" transform="translate(17 11)"/>
</clipPath>
</defs>
</svg>
