<svg width="70" height="70" viewBox="0 0 70 70" fill="none" xmlns="http://www.w3.org/2000/svg">
<g clip-path="url(#clip0_94_300)">
<path fill-rule="evenodd" clip-rule="evenodd" d="M57.0561 32.84C56.7139 32.8055 56.3683 32.8519 56.0473 32.9755C55.7263 33.0991 55.4389 33.2964 55.2081 33.5516H49.4769C49.3187 31.9911 48.9065 30.467 48.2565 29.0396L53.2521 26.1332C53.7231 26.2936 54.2353 26.2841 54.7 26.1064C55.1647 25.9286 55.5525 25.5938 55.7961 25.16C55.9597 24.8866 56.0615 24.5808 56.0942 24.264C56.127 23.9471 56.09 23.6269 55.9858 23.3259C55.8816 23.0249 55.7128 22.7503 55.4911 22.5215C55.2695 22.2927 55.0004 22.1153 54.7028 22.0016C54.4053 21.8879 54.0864 21.8407 53.7687 21.8634C53.451 21.8862 53.142 21.9782 52.8637 22.133C52.5853 22.2879 52.3442 22.5018 52.1574 22.7598C51.9705 23.0178 51.8424 23.3136 51.7821 23.6264L46.7949 26.5328C45.878 25.2641 44.7639 24.1504 43.4949 23.234L46.4025 18.2492C46.8016 18.1574 47.1667 17.955 47.4561 17.6652C47.7455 17.3754 47.9473 17.0099 48.0385 16.6107C48.1297 16.2114 48.1066 15.7946 47.9717 15.4079C47.8369 15.0212 47.5958 14.6803 47.2762 14.4243C46.9565 14.1684 46.5712 14.0077 46.1643 13.9606C45.7575 13.9136 45.3456 13.9822 44.976 14.1584C44.6063 14.3347 44.2939 14.6116 44.0744 14.9573C43.8549 15.3031 43.7372 15.7036 43.7349 16.1132C43.7386 16.3433 43.7792 16.5714 43.8549 16.7888L40.9473 21.7664C39.5302 21.1204 38.0178 20.7083 36.4689 20.546V14.8136C36.798 14.5192 37.0299 14.1318 37.134 13.7026C37.2381 13.2735 37.2095 12.8229 37.0519 12.4104C36.8943 11.998 36.6152 11.643 36.2515 11.3926C35.8878 11.1422 35.4567 11.0082 35.0151 11.0082C34.5736 11.0082 34.1424 11.1422 33.7786 11.3926C33.4149 11.643 33.1358 11.998 32.9783 12.4104C32.8207 12.8229 32.792 13.2735 32.8962 13.7026C33.0003 14.1318 33.2323 14.5192 33.5613 14.8136V20.546C32.0001 20.7041 30.4752 21.1163 29.0469 21.7664L26.1393 16.7888C26.2929 16.3146 26.2791 15.802 26.1005 15.3367C25.9219 14.8713 25.5891 14.4813 25.1577 14.2316C24.8844 14.0663 24.5783 13.963 24.2608 13.929C23.9432 13.895 23.6221 13.9311 23.32 14.0348C23.018 14.1385 22.7424 14.3073 22.5127 14.5292C22.283 14.7511 22.1048 15.0207 21.9908 15.319C21.8767 15.6172 21.8295 15.9369 21.8525 16.2555C21.8756 16.574 21.9683 16.8836 22.1241 17.1624C22.2798 17.4411 22.4949 17.6823 22.7541 17.8688C23.0133 18.0554 23.3103 18.1828 23.6241 18.242L26.5317 23.2268C25.2624 24.1429 24.1483 25.2566 23.2317 26.5256L18.2445 23.6192C18.1517 23.1808 17.928 22.7811 17.6027 22.4729C17.2775 22.1648 16.8663 21.9628 16.4236 21.8937C15.9809 21.8247 15.5278 21.8919 15.1242 22.0864C14.7205 22.2808 14.3856 22.5935 14.1638 22.9827C13.942 23.372 13.8437 23.8194 13.8821 24.2658C13.9205 24.7122 14.0937 25.1364 14.3787 25.482C14.6637 25.8277 15.0471 26.0785 15.478 26.2012C15.9089 26.324 16.3669 26.3128 16.7913 26.1692L21.7701 29.0756C21.1236 30.4916 20.7115 32.0033 20.5497 33.5516H14.8137C14.4797 33.1822 14.0294 32.9382 13.5375 32.8602C13.0456 32.7823 12.5419 32.8751 12.1101 33.1232C11.8311 33.2773 11.5893 33.4907 11.4017 33.7484C11.2141 34.0062 11.0853 34.3019 11.0243 34.6148C10.9634 34.9276 10.9718 35.25 11.049 35.5593C11.1261 35.8686 11.2701 36.1572 11.4708 36.4048C11.6716 36.6524 11.9242 36.853 12.2108 36.9924C12.4974 37.1318 12.8111 37.2067 13.1298 37.2118C13.4486 37.2168 13.7645 37.152 14.0554 37.0218C14.3463 36.8915 14.6052 36.6991 14.8137 36.458H20.5497C20.7079 38.0184 21.1201 39.5425 21.7701 40.97L16.7913 43.8764C16.3168 43.7228 15.8041 43.7363 15.3385 43.9147C14.8728 44.0931 14.4822 44.4255 14.2317 44.8568C14.0688 45.1299 13.9676 45.4354 13.9352 45.7519C13.9028 46.0683 13.9401 46.3879 14.0443 46.6884C14.1486 46.9889 14.3173 47.263 14.5387 47.4914C14.7601 47.7197 15.0288 47.8969 15.3259 48.0105C15.623 48.124 15.9413 48.1712 16.2586 48.1487C16.5759 48.1262 16.8844 48.0345 17.1625 47.8801C17.4406 47.7258 17.6816 47.5124 17.8685 47.2551C18.0554 46.9977 18.1837 46.7026 18.2445 46.3904L23.2317 43.484C24.1483 44.7529 25.2624 45.8667 26.5317 46.7828L23.6241 51.7676C23.2247 51.8594 22.8593 52.0621 22.5698 52.3522C22.2803 52.6423 22.0785 53.0082 21.9876 53.4078C21.8967 53.8074 21.9203 54.2246 22.0557 54.6114C22.1911 54.9982 22.4329 55.339 22.7532 55.5947C23.0735 55.8503 23.4595 56.0104 23.8667 56.0566C24.2739 56.1029 24.6859 56.0333 25.0554 55.856C25.4249 55.6786 25.7369 55.4007 25.9556 55.0541C26.1743 54.7075 26.2907 54.3062 26.2917 53.8964C26.2879 53.6662 26.2475 53.4381 26.1717 53.2208L29.0793 48.2432C30.4964 48.8891 32.0088 49.3013 33.5577 49.4636V55.196C33.2286 55.4904 32.9967 55.8778 32.8926 56.3069C32.7885 56.736 32.8171 57.1866 32.9747 57.5991C33.1323 58.0116 33.4114 58.3665 33.7751 58.6169C34.1388 58.8673 34.57 59.0014 35.0115 59.0014C35.4531 59.0014 35.8842 58.8673 36.2479 58.6169C36.6116 58.3665 36.8907 58.0116 37.0483 57.5991C37.2059 57.1866 37.2345 56.736 37.1304 56.3069C37.0263 55.8778 36.7944 55.4904 36.4653 55.196V49.4636C38.0266 49.3055 39.5514 48.8932 40.9797 48.2432L43.8873 53.2208C43.7338 53.695 43.7475 54.2075 43.9261 54.6729C44.1048 55.1382 44.4375 55.5283 44.8689 55.778C45.1422 55.9433 45.4484 56.0466 45.7659 56.0806C46.0834 56.1146 46.4046 56.0784 46.7066 55.9747C47.0087 55.871 47.2842 55.7023 47.5139 55.4804C47.7436 55.2585 47.9218 54.9889 48.0358 54.6906C48.1499 54.3923 48.1971 54.0726 48.174 53.7541C48.151 53.4356 48.0584 53.126 47.9026 52.8472C47.7468 52.5684 47.5317 52.3272 47.2725 52.1407C47.0133 51.9541 46.7163 51.8268 46.4025 51.7676L43.4949 46.7828C44.7642 45.8667 45.8783 44.7529 46.7949 43.484L51.7821 46.3904C51.8733 46.7907 52.0756 47.1571 52.3658 47.4475C52.656 47.738 53.0223 47.9406 53.4225 48.0322C53.8227 48.1238 54.2407 48.1006 54.6283 47.9652C55.0159 47.8299 55.3574 47.588 55.6137 47.2672C55.8699 46.9464 56.0304 46.5598 56.0768 46.1519C56.1232 45.744 56.0535 45.3313 55.8757 44.9612C55.698 44.5911 55.4195 44.2786 55.0721 44.0598C54.7248 43.8409 54.3227 43.7245 53.9121 43.724C53.6831 43.7277 53.4563 43.7682 53.2401 43.844L48.2565 40.9376C48.9025 39.5213 49.3146 38.0097 49.4769 36.4616H55.2369C55.5698 36.8274 56.0173 37.0692 56.5058 37.1471C56.9943 37.2249 57.4948 37.1343 57.9249 36.89C58.4256 36.6016 58.7921 36.1272 58.9449 35.57C59.0256 35.2649 59.0393 34.946 58.9849 34.6352C58.9305 34.3244 58.8093 34.0291 58.6298 33.7696C58.4503 33.5101 58.2166 33.2926 57.9449 33.1321C57.6732 32.9716 57.37 32.872 57.0561 32.84ZM23.3805 35C23.3793 32.6992 24.0605 30.4497 25.3379 28.5361C26.6154 26.6224 28.4317 25.1306 30.557 24.2494C32.6824 23.3681 35.0213 23.137 37.2781 23.5852C39.5348 24.0334 41.6079 25.1409 43.2352 26.7675C44.8624 28.3941 45.9707 30.4667 46.4199 32.7233C46.869 34.9798 46.6389 37.3189 45.7585 39.4446C44.8781 41.5704 43.3872 43.3872 41.4741 44.6655C39.561 45.9437 37.3117 46.6258 35.0109 46.6256C31.927 46.6259 28.9694 45.4013 26.7883 43.2212C24.6073 41.041 23.3815 38.0838 23.3805 35ZM41.1909 29.9144C41.6937 29.9148 42.1851 30.0644 42.6029 30.3441C43.0208 30.6238 43.3464 31.0211 43.5385 31.4857C43.7306 31.9504 43.7805 32.4616 43.6822 32.9547C43.5838 33.4478 43.3414 33.9007 42.9857 34.2561C42.63 34.6114 42.1769 34.8534 41.6837 34.9513C41.1905 35.0492 40.6794 34.9987 40.2149 34.8062C39.7504 34.6136 39.3534 34.2877 39.0741 33.8696C38.7948 33.4515 38.6457 32.96 38.6457 32.4572C38.6457 32.1231 38.7115 31.7922 38.8395 31.4835C38.9674 31.1749 39.155 30.8944 39.3913 30.6583C39.6277 30.4221 39.9083 30.2349 40.2171 30.1073C40.5259 29.9796 40.8568 29.9141 41.1909 29.9144ZM33.1941 29.9144C33.697 29.9146 34.1885 30.0639 34.6065 30.3435C35.0245 30.623 35.3502 31.0203 35.5425 31.4849C35.7347 31.9496 35.7849 32.4608 35.6867 32.954C35.5884 33.4472 35.3462 33.9001 34.9905 34.2556C34.6348 34.6111 34.1818 34.8532 33.6886 34.9512C33.1953 35.0492 32.6841 34.9988 32.2195 34.8063C31.755 34.6138 31.3579 34.2879 31.0786 33.8697C30.7992 33.4516 30.6501 32.9601 30.6501 32.4572C30.6501 32.1227 30.7161 31.7914 30.8443 31.4824C30.9726 31.1734 31.1605 30.8928 31.3974 30.6566C31.6343 30.4204 31.9155 30.2332 32.2248 30.1059C32.5342 29.9785 32.8656 29.9134 33.2001 29.9144H33.1941ZM28.8321 35.726C29.3352 35.726 29.8271 35.8752 30.2454 36.1547C30.6638 36.4342 30.9899 36.8316 31.1824 37.2964C31.375 37.7613 31.4254 38.2728 31.3272 38.7663C31.2291 39.2598 30.9868 39.7131 30.631 40.0688C30.2752 40.4246 29.8219 40.6669 29.3285 40.7651C28.835 40.8632 28.3234 40.8129 27.8586 40.6203C27.3937 40.4278 26.9964 40.1017 26.7169 39.6833C26.4373 39.265 26.2881 38.7731 26.2881 38.27C26.2884 37.5954 26.5565 36.9485 27.0336 36.4714C27.5106 35.9944 28.1575 35.7263 28.8321 35.726ZM37.1925 40.0856C37.6237 40.0858 38.0451 40.2139 38.4035 40.4536C38.7619 40.6934 39.0413 41.034 39.2061 41.4324C39.371 41.8308 39.4139 42.2692 39.3297 42.6921C39.2454 43.115 39.0377 43.5034 38.7327 43.8082C38.4277 44.113 38.0392 44.3205 37.6162 44.4046C37.1933 44.4886 36.755 44.4453 36.3566 44.2803C35.9583 44.1152 35.6178 43.8357 35.3783 43.4772C35.1387 43.1187 35.0109 42.6972 35.0109 42.266C35.0112 41.6876 35.2412 41.133 35.6503 40.7241C36.0594 40.3152 36.6142 40.0856 37.1925 40.0856ZM42.2805 35.726C42.7118 35.726 43.1333 35.8539 43.4919 36.0934C43.8504 36.333 44.1299 36.6735 44.2949 37.072C44.4599 37.4704 44.5031 37.9088 44.419 38.3318C44.3349 38.7547 44.1272 39.1432 43.8223 39.4482C43.5173 39.7531 43.1289 39.9608 42.7059 40.0449C42.283 40.129 41.8445 40.0858 41.4461 39.9208C41.0477 39.7558 40.7071 39.4763 40.4676 39.1177C40.228 38.7592 40.1001 38.3376 40.1001 37.9064C40.1004 37.3282 40.3302 36.7738 40.7391 36.365C41.1479 35.9561 41.7023 35.7263 42.2805 35.726ZM37.1925 24.8276C37.6237 24.8278 38.0451 24.9559 38.4035 25.1956C38.7619 25.4354 39.0413 25.776 39.2061 26.1744C39.371 26.5728 39.4139 27.0112 39.3297 27.4341C39.2454 27.857 39.0377 28.2453 38.7327 28.5502C38.4277 28.855 38.0392 29.0625 37.6162 29.1466C37.1933 29.2306 36.755 29.1873 36.3566 29.0223C35.9583 28.8572 35.6178 28.5778 35.3783 28.2192C35.1387 27.8607 35.0109 27.4392 35.0109 27.008C35.0109 26.7215 35.0673 26.4379 35.177 26.1733C35.2866 25.9087 35.4474 25.6683 35.65 25.4658C35.8526 25.2633 36.093 25.1027 36.3577 24.9932C36.6224 24.8837 36.9061 24.8274 37.1925 24.8276ZM27.0153 30.6404C27.4466 30.6404 27.8681 30.7682 28.2267 31.0078C28.5852 31.2474 28.8647 31.588 29.0298 31.9864C29.1948 32.3848 29.238 32.8232 29.1538 33.2462C29.0697 33.6691 28.862 34.0576 28.5571 34.3625C28.2521 34.6675 27.8637 34.8752 27.4407 34.9593C27.0177 35.0434 26.5793 35.0002 26.1809 34.8352C25.7825 34.6702 25.4419 34.3907 25.2024 34.0322C24.9628 33.6736 24.8349 33.252 24.8349 32.8208C24.8347 32.5344 24.8911 32.2508 25.0006 31.9862C25.1101 31.7216 25.2707 31.4811 25.4732 31.2786C25.6757 31.0761 25.9161 30.9155 26.1807 30.806C26.4453 30.6965 26.7289 30.6402 27.0153 30.6404ZM36.4653 35C36.8966 35 37.3182 35.1279 37.6768 35.3675C38.0354 35.6071 38.3148 35.9478 38.4798 36.3462C38.6448 36.7447 38.6879 37.1832 38.6037 37.6062C38.5195 38.0292 38.3117 38.4177 38.0066 38.7226C37.7016 39.0275 37.313 39.235 36.89 39.319C36.4669 39.403 36.0285 39.3597 35.6301 39.1944C35.2317 39.0292 34.8912 38.7496 34.6518 38.3909C34.4123 38.0321 34.2847 37.6105 34.2849 37.1792C34.2849 36.8929 34.3413 36.6094 34.4509 36.345C34.5605 36.0805 34.7211 35.8402 34.9236 35.6378C35.1261 35.4355 35.3665 35.2749 35.631 35.1655C35.8955 35.0561 36.179 34.9998 36.4653 35ZM32.1033 40.8128C32.5346 40.8128 32.9562 40.9407 33.3148 41.1803C33.6734 41.42 33.9528 41.7605 34.1178 42.159C34.2828 42.5575 34.326 42.996 34.2418 43.419C34.1575 43.842 33.9497 44.2305 33.6447 44.5354C33.3396 44.8403 32.951 45.0478 32.528 45.1318C32.1049 45.2158 31.6664 45.1725 31.2681 45.0073C30.8697 44.8421 30.5292 44.5624 30.2898 44.2037C30.0503 43.8449 29.9226 43.4233 29.9229 42.992C29.9232 42.4139 30.1531 41.8596 30.5619 41.451C30.9708 41.0423 31.5252 40.8128 32.1033 40.8128ZM30.6501 25.5548C31.0814 25.5548 31.503 25.6827 31.8616 25.9223C32.2202 26.162 32.4996 26.5026 32.6646 26.901C32.8296 27.2995 32.8728 27.738 32.7886 28.161C32.7043 28.584 32.4965 28.9725 32.1915 29.2774C31.8864 29.5823 31.4978 29.7898 31.0748 29.8738C30.6517 29.9578 30.2132 29.9145 29.8149 29.7492C29.4165 29.584 29.076 29.3044 28.8366 28.9457C28.5971 28.5869 28.4694 28.1653 28.4697 27.734C28.4697 27.4477 28.5261 27.1642 28.6357 26.8998C28.7453 26.6353 28.9059 26.395 29.1084 26.1926C29.3109 25.9903 29.5513 25.8297 29.8158 25.7203C30.0803 25.6109 30.3638 25.5546 30.6501 25.5548Z" fill="#005F8C"/>
</g>
<defs>
<clipPath id="clip0_94_300">
<rect width="48" height="48" fill="white" transform="translate(11 11)"/>
</clipPath>
</defs>
</svg>
