<svg width="70" height="70" viewBox="0 0 70 70" fill="none" xmlns="http://www.w3.org/2000/svg">
<path d="M55.7575 38.7703H51.407C52.1957 35.4557 51.9622 31.9801 50.7373 28.8005C49.512 25.6212 47.3529 22.888 44.5436 20.9598C41.7343 19.0319 38.4074 18 35 18C31.5931 18 28.2659 19.032 25.4564 20.9598C22.6476 22.8881 20.488 25.6213 19.2631 28.8005C18.0378 31.9797 17.8043 35.4553 18.5931 38.7703H14.2433C13.3836 38.7714 12.559 39.1134 11.9509 39.7212C11.3432 40.3293 11.0011 41.1539 11 42.0136V43.3109C11.0011 44.1706 11.3431 44.9952 11.9509 45.6032C12.559 46.211 13.3836 46.553 14.2433 46.5542H22.8477C25.4402 49.2595 28.8608 51.0234 32.5682 51.5668C36.2756 52.1101 40.0585 51.4021 43.3183 49.5542C46.5783 47.7066 49.129 44.825 50.5675 41.3649H55.7567C55.9287 41.3649 56.0937 41.4333 56.2153 41.555C56.337 41.6766 56.4054 41.8416 56.4054 42.0136V43.3109C56.4054 43.4828 56.337 43.6479 56.2153 43.7695C56.0937 43.8911 55.9287 43.9595 55.7567 43.9595H51.2161C50.4998 43.9595 49.9188 44.5405 49.9188 45.2568C49.9188 45.9732 50.4998 46.5542 51.2161 46.5542H55.7567C56.6164 46.5531 57.441 46.211 58.0491 45.6032C58.6568 44.9951 58.9989 44.1705 59 43.3109V42.0136C58.9989 41.1539 58.6569 40.3293 58.0491 39.7212C57.441 39.1135 56.6164 38.7714 55.7567 38.7703H55.7575ZM14.2436 43.9595C13.8852 43.9595 13.5949 43.6692 13.5949 43.3109V42.0136C13.5949 41.6552 13.8852 41.3649 14.2436 41.3649H19.4328C19.8118 42.268 20.269 43.136 20.7989 43.9595H14.2436ZM35.0005 49.1488C31.2157 49.1488 27.5858 47.6451 24.9102 44.9691C22.2342 42.2931 20.7306 38.6632 20.7306 34.8788C20.7306 31.0945 22.2342 27.4642 24.9102 24.7885C27.5863 22.1125 31.2162 20.6089 35.0005 20.6089C38.7849 20.6089 42.4152 22.1126 45.0908 24.7885C47.7669 27.4646 49.2705 31.0945 49.2705 34.8788C49.2661 38.6622 47.7614 42.2895 45.0861 44.9645C42.4108 47.6395 38.7834 49.1445 35.0004 49.1489L35.0005 49.1488Z" fill="#005F8C"/>
<path d="M35.0005 29.6891C33.6243 29.6891 32.3042 30.2357 31.3312 31.209C30.3578 32.182 29.8113 33.5021 29.8113 34.8783C29.8113 36.2546 30.3579 37.5747 31.3312 38.5477C32.3042 39.521 33.6243 40.0676 35.0005 40.0676C36.3768 40.0676 37.6969 39.521 38.6699 38.5477C39.6432 37.5747 40.1898 36.2546 40.1898 34.8783C40.1883 33.5024 39.641 32.1834 38.668 31.2108C37.6954 30.2378 36.3764 29.6906 35.0005 29.6891ZM35.0005 37.4729C34.3124 37.4729 33.6525 37.1997 33.1657 36.7132C32.6792 36.2263 32.4059 35.5664 32.4059 34.8783C32.4059 34.1902 32.6792 33.5303 33.1657 33.0434C33.6525 32.557 34.3124 32.2837 35.0005 32.2837C35.6886 32.2837 36.3485 32.557 36.8354 33.0434C37.3219 33.5303 37.5952 34.1902 37.5952 34.8783C37.5952 35.5664 37.3219 36.2263 36.8354 36.7132C36.3485 37.1997 35.6886 37.4729 35.0005 37.4729Z" fill="#005F8C"/>
<path d="M44.1733 25.7055C43.6644 25.2135 42.8553 25.2208 42.3547 25.721C41.8545 26.2216 41.8473 27.0307 42.3392 27.5396C44.2913 29.4819 45.3859 32.1246 45.3787 34.8785C45.3787 35.5949 45.9596 36.1759 46.676 36.1759C47.3923 36.1759 47.9733 35.5949 47.9733 34.8785C47.9827 31.4359 46.6145 28.1328 44.1733 25.7055Z" fill="#005F8C"/>
</svg>
