<svg width="70" height="70" viewBox="0 0 70 70" fill="none" xmlns="http://www.w3.org/2000/svg">
<g clip-path="url(#clip0_93_130)">
<path fill-rule="evenodd" clip-rule="evenodd" d="M49.3234 22.3427C49.0044 22.1581 48.6753 21.9918 48.3375 21.8445C48.3476 21.7676 48.3524 21.6899 48.3517 21.6123C48.2817 18.8335 50.6103 17.0485 51.0203 14.4175C51.1274 13.8551 51.0928 13.2749 50.9196 12.7292C50.7463 12.1835 50.4398 11.6895 50.0278 11.292C49.6158 10.8944 49.1113 10.6057 48.5598 10.452C48.0083 10.2983 47.4272 10.2843 46.8689 10.4115C44.0447 10.8525 42.2817 14.2242 41.873 17.3611C41.5865 16.8199 41.3524 16.2525 41.1738 15.6668C40.8802 14.003 40.3925 12.3794 39.7208 10.8291C38.9606 9.54612 36.6073 9.5319 35.3645 9.08044C35.2048 9.01447 35.0323 8.98535 34.8598 8.99532C34.6874 9.00528 34.5194 9.05408 34.3684 9.138C34.2174 9.22192 34.0872 9.33878 33.9877 9.47998C33.8881 9.62119 33.8218 9.78306 33.7935 9.95348C33.6651 10.0716 33.5638 10.2162 33.4966 10.3772C33.4294 10.5382 33.3979 10.7119 33.4043 10.8862C33.261 13.9912 33.7061 17.0952 34.7158 20.0348C34.9818 20.6938 35.2763 21.3476 35.5461 22.0015C32.5604 19.7219 28.8348 18.6319 25.0912 18.9425C22.8228 19.1403 20.6224 19.8189 18.6366 20.9331C16.6507 22.0472 14.9249 23.5715 13.5738 25.4043C6.31541 35.2417 15.8661 47.0355 24.1351 52.405C29.4135 55.688 35.2095 58.0539 41.2776 59.4026C44.1556 60.1504 47.0928 60.6487 50.0564 60.8919C53.2218 61.0852 55.0497 58.6865 56.1213 56.0465C57.3396 52.88 58.1636 49.5756 58.5744 46.2078C59.1271 42.8838 59.1297 39.4915 58.5822 36.1667C57.5366 30.7673 54.1675 25.1474 49.3234 22.3427ZM47.9703 15.2075C46.9325 17.1794 45.8064 18.84 45.6923 21.0636C45.4678 21.0234 45.2421 20.9857 45.0151 20.9559C44.9334 20.9455 44.8509 20.942 44.7686 20.9455C44.7957 20.7407 44.7726 20.5323 44.7011 20.3384C44.0123 18.3807 44.8957 13.8364 47.1362 13.0593C48.8512 12.4599 48.4036 14.3747 47.9729 15.2024L47.9703 15.2075ZM53.5487 55.342C53.3715 55.9596 53.0641 56.5321 52.6472 57.021C52.2303 57.51 51.7136 57.904 51.1318 58.1766C49.7801 58.5943 47.8614 57.982 46.5005 57.7615C43.5366 57.2723 40.6096 56.5814 37.7398 55.6936C31.7375 53.9836 26.1611 51.0322 21.3718 47.0303C15.3822 41.7853 10.4252 32.4369 16.8508 25.6054C19.3037 23.0756 22.6542 21.6136 26.177 21.5358C28.0958 21.5186 29.9937 21.9347 31.7294 22.753C33.465 23.5713 34.9936 24.7707 36.2012 26.2619C36.2564 26.3259 36.3167 26.3853 36.3816 26.4395C36.2889 27.0068 36.1016 27.5546 35.8276 28.0599C35.4192 28.7789 34.8399 29.3862 34.1409 29.8281C33.442 30.27 32.645 30.5329 31.8203 30.5935C31.7364 30.5211 31.6445 30.4584 31.5465 30.4067C30.5788 29.8877 30.3024 28.2545 29.912 27.3269C29.7296 26.6298 29.3423 26.0034 28.8003 25.5286C28.2582 25.0538 27.5862 24.7524 26.8711 24.6635C25.1522 24.5558 25.1625 27.205 26.8711 27.3127C27.2603 27.3373 27.7792 29.1717 27.9284 29.544C28.0776 29.9163 28.2177 30.2653 28.3889 30.6182C26.4898 30.3929 24.5732 30.8615 22.9922 31.9375C21.6352 32.9845 23.5383 34.8447 24.8784 33.8108C25.9231 33.255 27.1213 33.0576 28.289 33.2491C26.7764 36.3626 29.3269 40.5645 27.9855 43.7779C27.329 45.3567 29.912 46.0365 30.5593 44.481C31.1055 42.6775 31.1703 40.7624 30.7474 38.926C30.5411 37.3446 29.9094 34.8927 31.2832 33.6771C31.3984 33.5776 31.4958 33.4592 31.5712 33.3269C31.7995 33.314 32.0265 33.2957 32.2549 33.2646C33.4616 33.1011 34.6162 32.6686 35.6334 31.999C36.6506 31.3294 37.5043 30.4399 38.1316 29.3961C38.778 28.1644 39.1207 26.7961 39.1313 25.4052C39.1419 24.0143 38.8201 22.6409 38.1926 21.3995C36.7189 18.5146 35.9952 15.3051 36.0884 12.0668C36.4464 12.1589 36.8058 12.2471 37.1638 12.3392L37.5219 12.43L37.5478 12.5157C38.0875 14.2139 38.4041 15.9755 39.0268 17.6491C39.7507 19.2928 40.7056 20.8249 41.8626 22.1987C43.0679 23.8424 43.8074 25.7808 44.0032 27.8095C44.3444 31.2539 43.3312 34.6151 44.1329 37.9946C44.1119 38.1039 44.1041 38.2155 44.1096 38.3267C43.8931 38.4418 43.7133 38.6152 43.5906 38.8275C42.5411 40.5671 39.2681 39.3036 38.2134 38.1619C37.962 37.9273 37.6295 37.7992 37.2856 37.8044C36.9418 37.8097 36.6134 37.948 36.3693 38.1902C36.1252 38.4324 35.9845 38.7598 35.9766 39.1036C35.9687 39.4473 36.0944 39.7808 36.3271 40.0339C37.3045 41.0313 38.546 41.7294 39.906 42.0462C41.266 42.3631 42.6882 42.2857 44.0058 41.8229C43.7934 42.5317 43.4404 43.1904 42.9679 43.7598C41.5132 45.2978 39.9652 46.7448 38.3327 48.0927C38.1 48.3459 37.9744 48.6794 37.9823 49.0232C37.9901 49.3669 38.1309 49.6943 38.375 49.9365C38.619 50.1787 38.9474 50.317 39.2913 50.3223C39.6351 50.3275 39.9676 50.1994 40.219 49.9648C42.0892 48.4141 43.8343 46.7185 45.438 44.8937C45.9771 44.1901 46.3737 43.3881 46.6056 42.5326C48.4646 44.9598 50.4715 47.4091 49.0704 50.3475C48.3362 51.8809 50.6363 53.2261 51.3744 51.6836C51.8785 50.7217 52.1598 49.6588 52.1973 48.5734C52.2348 47.4881 52.0276 46.4082 51.5911 45.4138C50.6493 43.2499 48.9602 41.6426 47.707 39.6785C47.13 38.764 46.7447 37.7417 46.5744 36.6739C47.0732 36.9655 47.6134 37.1794 48.1766 37.3083C48.6397 37.4383 49.1274 37.4543 49.5981 37.3552C50.0688 37.256 50.5085 37.0445 50.8798 36.7387C51.2511 36.4329 51.543 36.0419 51.7305 35.5989C51.9181 35.156 51.9957 34.6743 51.9569 34.1948C51.9461 33.8482 51.8008 33.5193 51.5518 33.2779C51.3027 33.0365 50.9695 32.9015 50.6226 32.9015C50.2758 32.9015 49.9426 33.0365 49.6935 33.2779C49.4445 33.5193 49.2992 33.8482 49.2884 34.1948C49.3035 34.3539 49.2947 34.5144 49.2624 34.6709C49.2508 34.6956 49.2417 34.715 49.2326 34.7319C48.936 34.768 48.6353 34.7231 48.3621 34.6021C47.9721 34.4723 47.6186 34.2518 47.3306 33.9586C47.0425 33.6653 46.8283 33.3079 46.7055 32.9157C46.6638 32.7468 46.5903 32.5874 46.4888 32.446C46.6949 30.6449 46.7266 28.828 46.5835 27.0207C46.4366 25.8907 46.1453 24.7842 45.7169 23.7282C50.9801 24.8867 54.3829 30.9036 55.7152 35.6218C56.4495 38.8297 56.5513 42.1501 56.0149 45.397C55.6654 48.8097 54.836 52.156 53.5513 55.3369L53.5487 55.342Z" fill="#005F8C"/>
</g>
<defs>
<clipPath id="clip0_93_130">
<rect width="48" height="51.8919" fill="white" transform="translate(11 9)"/>
</clipPath>
</defs>
</svg>
