<svg width="70" height="70" viewBox="0 0 70 70" fill="none" xmlns="http://www.w3.org/2000/svg">
<g clip-path="url(#clip0_93_134)">
<path fill-rule="evenodd" clip-rule="evenodd" d="M26.5474 39.8521C26.8629 40.4588 27.0122 41.1383 26.9799 41.8215C26.9476 42.5046 26.7349 43.167 26.3635 43.7413C25.8993 44.3995 25.2783 44.9315 24.5567 45.2892C23.8351 45.647 23.0357 45.8191 22.2308 45.7901C17.1967 45.7901 13.5382 40.8894 13.5382 34.1366C13.5382 27.3838 17.1943 22.4855 22.2331 22.4855C23.0375 22.4568 23.8364 22.629 24.5575 22.9865C25.2787 23.344 25.8993 23.8755 26.3635 24.5331C26.7349 25.1075 26.9476 25.7701 26.9799 26.4535C27.0122 27.1368 26.8629 27.8165 26.5474 28.4234C26.4777 28.5718 26.4383 28.7326 26.4316 28.8964C26.4249 29.0602 26.451 29.2236 26.5083 29.3772C26.5657 29.5308 26.6532 29.6713 26.7656 29.7906C26.8781 29.9099 27.0133 30.0055 27.1632 30.0718C27.4664 30.2117 27.8125 30.2268 28.1268 30.1138C28.4411 30.0008 28.6984 29.7687 28.8432 29.4677C29.3368 28.4827 29.5641 27.3857 29.5025 26.2857C29.4409 25.1857 29.0924 24.1209 28.4919 23.1973C27.7982 22.1859 26.8629 21.3638 25.771 20.8055C24.6791 20.2472 23.465 19.9703 22.239 20C15.7332 20 11.0117 25.945 11.0117 34.1342C11.0117 42.3235 15.7333 48.2685 22.2367 48.2685C23.4643 48.3008 24.6804 48.0256 25.7746 47.468C26.8687 46.9104 27.806 46.0881 28.5012 45.0759C29.1018 44.1524 29.4502 43.0879 29.5118 41.988C29.5735 40.8882 29.3462 39.7914 28.8525 38.8066C28.7075 38.5058 28.4503 38.2739 28.1362 38.1605C27.8222 38.0471 27.4762 38.0614 27.1725 38.2002C27.0215 38.2658 26.8851 38.3609 26.7714 38.4801C26.6578 38.5993 26.5692 38.7401 26.5109 38.8941C26.4526 39.0481 26.4258 39.2122 26.4321 39.3768C26.4383 39.5413 26.4775 39.7029 26.5474 39.8521ZM41.5023 23.1961C40.9023 24.1202 40.5542 25.1851 40.4926 26.2852C40.431 27.3853 40.658 28.4824 41.1511 29.4677C41.2969 29.768 41.5545 29.9992 41.8687 30.1118C42.1829 30.2245 42.5288 30.2097 42.8322 30.0706C42.982 30.0043 43.1169 29.9087 43.2293 29.7895C43.3416 29.6703 43.429 29.5299 43.4864 29.3765C43.5437 29.2231 43.5699 29.0597 43.5633 28.8961C43.5567 28.7324 43.5175 28.5717 43.448 28.4234C43.1326 27.8164 42.9836 27.1366 43.0161 26.4533C43.0485 25.77 43.2614 25.1074 43.633 24.5331C44.0967 23.8749 44.7172 23.3428 45.4384 22.9851C46.1596 22.6273 46.9587 22.4552 47.7633 22.4843C52.8033 22.4843 56.456 27.385 56.456 34.1366C56.456 40.8882 52.8033 45.7889 47.7656 45.7889C46.9608 45.8179 46.1614 45.6458 45.4398 45.2881C44.7182 44.9303 44.0972 44.3983 43.633 43.7401C43.2616 43.1661 43.0488 42.5038 43.0166 41.8209C42.9843 41.1379 43.1335 40.4586 43.4491 39.8521C43.5188 39.7037 43.5582 39.5429 43.5649 39.3791C43.5716 39.2154 43.5455 39.0519 43.4882 38.8983C43.4308 38.7448 43.3433 38.6042 43.2309 38.4849C43.1184 38.3656 42.9832 38.27 42.8333 38.2037C42.5298 38.0644 42.1838 38.0496 41.8695 38.1625C41.5552 38.2755 41.2976 38.5071 41.1522 38.8078C40.6588 39.7924 40.4315 40.889 40.4932 41.9886C40.5548 43.0882 40.9031 44.1526 41.5034 45.0759C42.1986 46.0886 43.136 46.9113 44.2304 47.4691C45.3247 48.0269 46.5412 48.3021 47.7691 48.2697C54.2702 48.2697 59 42.3259 59 34.1354C59 25.945 54.2703 20 47.7669 20C46.539 19.9684 45.3227 20.2443 44.2287 20.8024C43.1346 21.3606 42.1974 22.1834 41.5023 23.1961ZM24.8416 32.6849C24.475 32.2376 24.2127 31.7142 24.074 31.1528C23.9352 30.5914 23.9235 30.0061 24.0396 29.4396C24.0733 29.279 24.0747 29.1132 24.044 28.952C24.0132 28.7908 23.9507 28.6373 23.8603 28.5004C23.7698 28.3634 23.6531 28.2457 23.5169 28.1542C23.3807 28.0626 23.2277 27.9989 23.0667 27.9668C22.741 27.8956 22.4003 27.956 22.1189 28.135C21.8375 28.3139 21.6382 28.5969 21.5647 28.9221C21.3313 29.9897 21.3888 31.1003 21.7309 32.1381C21.3459 31.9633 20.9755 31.7577 20.6234 31.5235C20.3479 31.3363 20.0103 31.2639 19.6823 31.3219C19.3543 31.3798 19.0619 31.5635 18.8673 31.8338C18.7724 31.9671 18.7053 32.1182 18.6699 32.2779C18.6344 32.4377 18.6312 32.6029 18.6607 32.7639C18.6902 32.9249 18.7516 33.0783 18.8414 33.2152C18.9312 33.352 19.0475 33.4694 19.1834 33.5606C19.6835 33.8925 20.2111 34.1812 20.7604 34.4234C20.0897 35.0244 19.4994 35.7095 19.0043 36.4617C18.9132 36.5977 18.8502 36.7506 18.819 36.9114C18.7879 37.0721 18.7893 37.2375 18.823 37.3977C18.8567 37.558 18.9221 37.7099 19.0153 37.8445C19.1086 37.9791 19.2278 38.0936 19.366 38.1815C19.6471 38.3622 19.9874 38.4266 20.3151 38.3611C20.6428 38.2955 20.9322 38.1052 21.1221 37.8302C21.4142 37.3898 21.7457 36.9767 22.1126 36.5963C21.9774 37.5247 22.0047 38.4695 22.1933 39.3885C22.2698 39.6528 22.4304 39.885 22.6508 40.0498C22.8712 40.2147 23.1393 40.3031 23.4144 40.3017C23.5271 40.3017 23.6392 40.2871 23.7481 40.2583C23.9068 40.2175 24.0558 40.1456 24.1866 40.0468C24.3174 39.948 24.4272 39.8243 24.5099 39.6827C24.5925 39.5412 24.6463 39.3847 24.6681 39.2222C24.6898 39.0598 24.6792 38.8947 24.6367 38.7364C24.4393 37.541 24.6176 36.3139 25.1471 35.2242C27.1373 34.4831 28.6382 34.4234 29.5959 35.0603C30.701 35.7967 31.2853 37.6055 31.2853 40.2958V48.0367C31.2953 48.3658 31.4331 48.6781 31.6694 48.9074C31.9058 49.1367 32.2221 49.2649 32.5514 49.2649C32.8807 49.2649 33.197 49.1367 33.4334 48.9074C33.6698 48.6781 33.8075 48.3658 33.8175 48.0367V40.2958C33.8175 36.6946 32.881 34.2419 31.0183 33.0068C29.4554 31.9567 27.3785 31.8607 24.8416 32.6849ZM45.368 38.7317C45.3255 38.8899 45.3148 39.055 45.3365 39.2174C45.3582 39.3797 45.4118 39.5362 45.4944 39.6777C45.5769 39.8192 45.6866 39.943 45.8173 40.0419C45.9479 40.1407 46.0968 40.2127 46.2554 40.2537C46.3643 40.2823 46.4764 40.2968 46.5891 40.297C46.8642 40.2987 47.1323 40.2104 47.3526 40.0455C47.5728 39.8807 47.7331 39.6483 47.8089 39.3838C47.9988 38.4649 48.0262 37.5199 47.8898 36.5916C48.2567 36.9726 48.5889 37.3855 48.8825 37.8256C48.9989 37.9979 49.1559 38.139 49.3396 38.2364C49.5233 38.3338 49.7282 38.3845 49.9362 38.384C50.1827 38.3841 50.4241 38.3134 50.6316 38.1803C50.7688 38.0915 50.887 37.9763 50.9792 37.8413C51.0713 37.7063 51.1356 37.5543 51.1683 37.3941C51.201 37.234 51.2014 37.0689 51.1696 36.9086C51.1377 36.7483 51.0742 36.596 50.9828 36.4605C50.4895 35.7069 49.899 35.0216 49.2267 34.4222C49.7758 34.1813 50.3028 33.8926 50.8014 33.5594C50.9372 33.4682 51.0533 33.3507 51.143 33.2138C51.2327 33.077 51.2941 32.9236 51.3236 32.7626C51.353 32.6017 51.35 32.4365 51.3146 32.2768C51.2792 32.117 51.2122 31.966 51.1175 31.8326C50.9236 31.5613 50.6311 31.3769 50.3028 31.3189C49.9744 31.2609 49.6365 31.3339 49.3614 31.5223C49.0089 31.7566 48.6381 31.9621 48.2527 32.137C48.5949 31.0992 48.6522 29.9885 48.4189 28.921C48.345 28.5961 48.146 28.3136 47.865 28.1347C47.5839 27.9558 47.2436 27.8951 46.918 27.9657C46.757 27.9976 46.6038 28.0612 46.4675 28.1527C46.3312 28.2442 46.2143 28.3619 46.1237 28.4988C46.0332 28.6358 45.9707 28.7894 45.9398 28.9506C45.909 29.1119 45.9104 29.2777 45.944 29.4384C46.0602 30.005 46.0484 30.5904 45.9094 31.1519C45.7705 31.7133 45.5079 32.2367 45.1409 32.6837C42.6039 31.8642 40.5294 31.9555 38.9712 32.9928C37.112 34.2279 36.1707 36.6806 36.1707 40.2829V48.0226C36.1807 48.3518 36.3185 48.6641 36.5549 48.8933C36.7912 49.1226 37.1076 49.2509 37.4369 49.2509C37.7661 49.2509 38.0826 49.1226 38.3189 48.8933C38.5553 48.6641 38.693 48.3518 38.7031 48.0226V40.2829C38.7031 37.5902 39.2884 35.7826 40.3924 35.0474C41.3524 34.4105 42.8509 34.4702 44.8412 35.2101C45.38 36.3002 45.5643 37.5316 45.368 38.7317Z" fill="#005F8C"/>
</g>
<defs>
<clipPath id="clip0_93_134">
<rect width="48" height="29.2683" fill="white" transform="translate(11 20)"/>
</clipPath>
</defs>
</svg>
