<svg width="70" height="70" viewBox="0 0 70 70" fill="none" xmlns="http://www.w3.org/2000/svg">
<g clip-path="url(#clip0_173_52)">
<path fill-rule="evenodd" clip-rule="evenodd" d="M53.667 38.4C53.6638 37.5181 53.3111 36.6735 52.6861 36.0513C52.0611 35.4292 51.2149 35.0802 50.333 35.081H25.667C25.667 34.0201 25.2456 33.0027 24.4954 32.2526C23.7453 31.5024 22.7279 31.081 21.667 31.081C20.6061 31.081 19.5887 31.5024 18.8386 32.2526C18.0884 33.0027 17.667 34.0201 17.667 35.081C17.6672 35.7813 17.854 36.4688 18.208 37.073H17C16.4711 37.073 15.9638 37.2824 15.589 37.6556C15.2142 38.0287 15.0024 38.5352 15 39.064C15.3343 39.4255 15.5199 39.8997 15.5199 40.392C15.5199 40.8844 15.3343 41.3585 15 41.72C15.0021 42.249 15.2138 42.7557 15.5886 43.129C15.9635 43.5024 16.471 43.712 17 43.712H25.667V44.376C25.6686 45.2586 26.0205 46.1046 26.6455 46.7278C27.2705 47.3511 28.1173 47.7008 29 47.7H31.667V53.675H21V55H49V53.672H38.333V47.7H41C41.8818 47.7008 42.7279 47.3518 43.3527 46.7296C43.9776 46.1074 44.3301 45.2628 44.333 44.381V43.717H53C53.4707 43.7206 53.9275 43.557 54.2888 43.2551C54.65 42.9533 54.8923 42.5329 54.9724 42.069C55.0525 41.6051 54.9653 41.1279 54.7262 40.7224C54.4871 40.3168 54.1117 40.0094 53.667 39.855V38.4ZM50.333 36.409C50.8619 36.409 51.3692 36.6184 51.744 36.9916C52.1188 37.3647 52.3306 37.8712 52.333 38.4V39.728H36.933C36.7767 38.9775 36.3666 38.3038 35.7717 37.8202C35.1769 37.3366 34.4336 37.0728 33.667 37.073V38.4C34.0785 38.4014 34.4795 38.5297 34.8154 38.7673C35.1513 39.005 35.4058 39.3405 35.544 39.728H22.266C22.2161 39.4932 22.1407 39.2645 22.041 39.046C22.7987 38.9747 23.5203 38.6886 24.1211 38.2216C24.7219 37.7545 25.177 37.1257 25.433 36.409H50.333ZM24.333 35.081C24.3332 35.5154 24.2267 35.9432 24.023 36.3269C23.8193 36.7106 23.5245 37.0384 23.1646 37.2817C22.8047 37.5249 22.3906 37.6761 21.9586 37.722C21.5266 37.7679 21.09 37.7071 20.687 37.545C20.5438 37.4572 20.394 37.3806 20.239 37.316C19.8512 37.0666 19.5349 36.7206 19.3213 36.312C19.1077 35.9033 19.0041 35.4461 19.0208 34.9854C19.0374 34.5246 19.1736 34.076 19.4161 33.6838C19.6586 33.2917 19.999 32.9693 20.4037 32.7485C20.8085 32.5277 21.2638 32.4161 21.7249 32.4246C22.1859 32.433 22.6367 32.5614 23.0331 32.7969C23.4296 33.0324 23.7578 33.367 23.9857 33.7678C24.2136 34.1687 24.3333 34.6219 24.333 35.083V35.081ZM19 38.4C19.2123 38.4002 19.4232 38.434 19.625 38.5C19.7932 38.6012 19.9687 38.6898 20.15 38.765C20.4887 39.0025 20.7457 39.3389 20.886 39.728H17C16.9128 39.728 16.8265 39.7108 16.7459 39.6774C16.6654 39.6441 16.5921 39.5952 16.5305 39.5335C16.4688 39.4718 16.4199 39.3987 16.3865 39.3181C16.3532 39.2376 16.336 39.1512 16.336 39.064C16.336 38.9768 16.3532 38.8904 16.3865 38.8099C16.4199 38.7293 16.4688 38.6561 16.5305 38.5945C16.5921 38.5328 16.6654 38.4839 16.7459 38.4506C16.8265 38.4172 16.9128 38.4 17 38.4H19ZM33 53.67V47.7H37V53.675H33V53.67ZM41 46.37H29C28.4711 46.37 27.9638 46.1605 27.589 45.7874C27.2142 45.4143 27.0024 44.9079 27 44.379V43.715H43V44.379C42.9974 44.9077 42.7855 45.4138 42.4107 45.7867C42.0359 46.1597 41.5287 46.37 41 46.37ZM43.667 42.387H17C16.9128 42.387 16.8265 42.3698 16.7459 42.3364C16.6654 42.3031 16.5921 42.2542 16.5305 42.1925C16.4688 42.1308 16.4199 42.0577 16.3865 41.9771C16.3532 41.8966 16.336 41.8102 16.336 41.723C16.336 41.6358 16.3532 41.5494 16.3865 41.4689C16.4199 41.3883 16.4688 41.3151 16.5305 41.2535C16.5921 41.1918 16.6654 41.1429 16.7459 41.1096C16.8265 41.0762 16.9128 41.059 17 41.059H53C53.0872 41.059 53.1735 41.0762 53.2541 41.1096C53.3346 41.1429 53.4079 41.1918 53.4695 41.2535C53.5312 41.3151 53.5801 41.3883 53.6135 41.4689C53.6468 41.5494 53.664 41.6358 53.664 41.723C53.664 41.8102 53.6468 41.8966 53.6135 41.9771C53.5801 42.0577 53.5312 42.1308 53.4695 42.1925C53.4079 42.2542 53.3346 42.3031 53.2541 42.3364C53.1735 42.3698 53.0872 42.387 53 42.387H43.667ZM33.051 33.348C33.1022 33.4691 33.1879 33.5723 33.2975 33.6449C33.4071 33.7175 33.5356 33.7561 33.667 33.756C33.7278 33.7558 33.7883 33.7478 33.847 33.732C34.0035 33.6882 34.1386 33.5887 34.2268 33.4522C34.315 33.3157 34.3503 33.1517 34.326 32.991L33.06 24.8C33.4611 24.321 33.6759 23.7134 33.6649 23.0888C33.6538 22.4642 33.4177 21.8645 33 21.4V15.171H31.667V20.571C31.4495 20.5117 31.2254 20.4801 31 20.477C30.3834 20.4794 29.787 20.6974 29.314 21.093L27.643 14.993L26.357 15.342L28.357 22.642L28.384 22.635C28.272 23.1916 28.3454 23.7696 28.5928 24.2806C28.8402 24.7916 29.248 25.2076 29.754 25.465L33.051 33.348ZM31.841 25.641L32.175 27.8L31.32 25.757C31.4971 25.7352 31.6716 25.697 31.841 25.641ZM32.333 23.134C32.3328 23.3976 32.2544 23.6552 32.1078 23.8743C31.9613 24.0934 31.753 24.2641 31.5094 24.3648C31.2658 24.4655 30.9978 24.4918 30.7393 24.4402C30.4808 24.3887 30.2434 24.2617 30.0571 24.0752C29.8707 23.8887 29.7439 23.6512 29.6926 23.3927C29.6412 23.1342 29.6676 22.8662 29.7686 22.6227C29.8695 22.3792 30.0403 22.171 30.2595 22.0246C30.4787 21.8782 30.7364 21.8 31 21.8C31.1751 21.7999 31.3485 21.8342 31.5103 21.9012C31.672 21.9681 31.8191 22.0663 31.9429 22.1901C32.0667 22.3139 32.1649 22.461 32.2318 22.6227C32.2988 22.7845 32.3331 22.9589 32.333 23.134ZM19.023 22.644L19.051 22.637C19.0176 22.8016 19.0005 22.9691 19 23.137C19.0011 23.6606 19.1567 24.1722 19.4474 24.6077C19.7381 25.0432 20.1508 25.3832 20.634 25.585L20.584 25.647L27 30.755V32.427H28.333V31.1H29.666V29.772H27.993L23.914 24.549C24.2253 24.0692 24.3698 23.5001 24.325 22.9299C24.2801 22.3597 24.0485 21.8203 23.666 21.395V15.166H22.332V20.566C21.9272 20.453 21.5009 20.4416 21.0907 20.5327C20.6805 20.6237 20.2989 20.8144 19.98 21.088L18.309 14.988L17.022 15.338L19.023 22.644ZM22.933 25.457L23.673 26.405L22.657 25.595C22.7514 25.5537 22.8436 25.5083 22.933 25.457ZM23 23.133C23.0012 23.3971 22.9239 23.6557 22.778 23.8759C22.6321 24.096 22.4241 24.268 22.1804 24.3698C21.9367 24.4717 21.6682 24.4989 21.4091 24.448C21.1499 24.3971 20.9116 24.2705 20.7245 24.084C20.5374 23.8976 20.4098 23.6599 20.358 23.4009C20.3061 23.1419 20.3323 22.8733 20.4333 22.6292C20.5342 22.3851 20.7054 22.1765 20.925 22.0298C21.1446 21.8831 21.4029 21.8048 21.667 21.805C22.0197 21.8047 22.3582 21.9444 22.6081 22.1934C22.858 22.4423 22.9989 22.7802 23 23.133ZM42.357 14.992L40.686 21.092C40.213 20.6963 39.6166 20.4785 39 20.476C38.7746 20.4791 38.5505 20.5107 38.333 20.57V15.17H37V21.4C36.5726 21.8783 36.3354 22.4966 36.333 23.138C36.3359 23.7127 36.5252 24.2709 36.8725 24.7288C37.2198 25.1866 37.7063 25.5194 38.259 25.677L37.811 29.251L36.122 29.811C35.9896 29.8549 35.8744 29.9394 35.7927 30.0525C35.7111 30.1656 35.667 30.3015 35.667 30.441V32.432H37V30.919L38.153 30.537L39 31.375V33.091H40.333V31.1C40.3332 31.0126 40.316 30.9261 40.2825 30.8455C40.2491 30.7648 40.1999 30.6916 40.138 30.63L39.109 29.606L39.597 25.715C40.2704 25.5698 40.8597 25.1654 41.2375 24.5893C41.6153 24.0132 41.7513 23.3115 41.616 22.636L41.643 22.643L43.643 15.343L42.357 14.992ZM37.667 23.133C37.666 22.8691 37.7434 22.6109 37.8892 22.3911C38.0351 22.1712 38.2429 21.9995 38.4864 21.8979C38.7299 21.7962 38.9981 21.7691 39.257 21.82C39.5159 21.8709 39.7539 21.9974 39.9408 22.1837C40.1277 22.3699 40.2552 22.6074 40.307 22.8661C40.3588 23.1248 40.3327 23.3931 40.232 23.637C40.1313 23.8808 39.9604 24.0893 39.7411 24.236C39.5218 24.3827 39.2639 24.461 39 24.461C38.6473 24.4613 38.3088 24.3216 38.0589 24.0726C37.809 23.8237 37.6681 23.4857 37.667 23.133ZM52.357 14.992L50.686 21.092C50.213 20.6963 49.6166 20.4785 49 20.476C48.7746 20.4791 48.5505 20.5107 48.333 20.57V15.17H47V21.4C46.5726 21.8783 46.3354 22.4966 46.333 23.138C46.3369 23.2564 46.3489 23.3743 46.369 23.491L43.862 25.991C43.8 26.0525 43.7508 26.1256 43.7172 26.2062C43.6836 26.2868 43.6663 26.3732 43.6663 26.4605C43.6663 26.5478 43.6836 26.6343 43.7172 26.7148C43.7508 26.7954 43.8 26.8685 43.862 26.93L44.391 27.456L42.529 29.31L43.471 30.249L45.333 28.395L45.862 28.921C45.9872 29.0458 46.1567 29.1158 46.3335 29.1158C46.5102 29.1158 46.6798 29.0458 46.805 28.921L50.138 25.602L50.093 25.557C50.6418 25.3189 51.0923 24.8998 51.3694 24.3697C51.6466 23.8396 51.7336 23.2305 51.616 22.644L51.643 22.651L53.643 15.351L52.357 14.992ZM45.276 26.452L46.939 24.797C47.2656 25.1979 47.7021 25.4947 48.195 25.651L46.333 27.505L45.276 26.452ZM47.667 23.133C47.666 22.8691 47.7434 22.6109 47.8892 22.3911C48.0351 22.1712 48.2429 21.9995 48.4864 21.8979C48.7299 21.7962 48.9981 21.7691 49.257 21.82C49.5159 21.8709 49.7539 21.9974 49.9408 22.1837C50.1277 22.3699 50.2552 22.6074 50.307 22.8661C50.3588 23.1248 50.3327 23.3931 50.232 23.637C50.1313 23.8808 49.9604 24.0893 49.7411 24.236C49.5218 24.3827 49.2639 24.461 49 24.461C48.6473 24.4613 48.3088 24.3216 48.0589 24.0726C47.809 23.8237 47.6681 23.4857 47.667 23.133ZM21.359 49.586L21.673 51.775C21.694 51.9201 21.7624 52.0541 21.8675 52.1562C21.9726 52.2584 22.1085 52.323 22.254 52.34C22.2803 52.3415 22.3067 52.3415 22.333 52.34C22.466 52.3402 22.596 52.3005 22.7063 52.2262C22.8166 52.1519 22.9022 52.0463 22.952 51.923L23.815 49.776L24.445 50.717C24.5056 50.8088 24.588 50.8843 24.6849 50.9366C24.7817 50.989 24.8899 51.0166 25 51.017H27.667V49.689H25.357L24.221 47.989C24.1534 47.8883 24.0596 47.8078 23.9497 47.7563C23.8398 47.7049 23.718 47.6843 23.5973 47.6968C23.4766 47.7094 23.3616 47.7545 23.2646 47.8275C23.1677 47.9005 23.0925 47.9985 23.047 48.111L22.641 49.124L22.327 46.935C22.3056 46.79 22.237 46.656 22.1319 46.5538C22.0268 46.4516 21.891 46.3868 21.7455 46.3694C21.5999 46.352 21.4526 46.383 21.3264 46.4575C21.2002 46.5321 21.102 46.6461 21.047 46.782L19.882 49.682H17.667V51.01H20.333C20.4662 51.01 20.5964 50.9702 20.7068 50.8957C20.8173 50.8212 20.903 50.7155 20.953 50.592L21.359 49.586ZM48.259 47.701C48.1382 47.7132 48.0232 47.7583 47.9263 47.8313C47.8293 47.9043 47.7542 48.0024 47.709 48.115L47.302 49.128L46.988 46.939C46.9669 46.7939 46.8986 46.6596 46.7936 46.5572C46.6886 46.4548 46.5528 46.3899 46.4071 46.3724C46.2615 46.355 46.1141 46.386 45.9879 46.4608C45.8617 46.5356 45.7637 46.6499 45.709 46.786L44.544 49.686H42.328V51.014H45C45.1331 51.0139 45.2631 50.9741 45.3734 50.8996C45.4836 50.8251 45.5692 50.7194 45.619 50.596L46.026 49.583L46.34 51.772C46.3611 51.917 46.4294 52.0511 46.5345 52.1533C46.6396 52.2554 46.7755 52.32 46.921 52.337C46.9473 52.3385 46.9737 52.3385 47 52.337C47.133 52.3371 47.263 52.2975 47.3733 52.2232C47.4836 52.1489 47.5692 52.0433 47.619 51.92L48.481 49.773L49.111 50.714C49.1719 50.8058 49.2545 50.8812 49.3515 50.9335C49.4485 50.9859 49.5568 51.0135 49.667 51.014H52.333V49.686H50.023L48.888 47.986C48.8204 47.8855 48.7264 47.8056 48.6163 47.7552C48.5062 47.7047 48.3842 47.6856 48.264 47.7L48.259 47.701ZM29 49.679H30.321V51H29V49.679ZM34.321 49.679H35.679V51H34.321V49.679ZM39.679 49.679H41V51H39.679V49.679ZM15 49.679H16.321V51H15V49.679ZM53.679 49.679H55V51H53.679V49.679Z" fill="#005F8C"/>
</g>
<defs>
<clipPath id="clip0_173_52">
<rect width="40" height="40" fill="white" transform="translate(15 15)"/>
</clipPath>
</defs>
</svg>
