<svg width="70" height="70" viewBox="0 0 70 70" fill="none" xmlns="http://www.w3.org/2000/svg">
<g clip-path="url(#clip0_93_145)">
<path fill-rule="evenodd" clip-rule="evenodd" d="M57.5701 29.212C57.1723 28.3378 56.5318 27.5962 55.7247 27.0756C55.8324 26.0769 55.6046 25.0708 55.0772 24.216C53.4652 21.7276 51.3189 19.6297 48.7943 18.075C48.0624 17.6461 47.2226 17.4363 46.3749 17.4705C45.9056 16.836 45.2513 16.3626 44.5019 16.1152C43.2533 15.7178 41.9726 15.429 40.6742 15.2522C40.0322 15.1929 39.3873 15.3285 38.8236 15.6413C38.2761 15.2564 37.6304 15.035 36.9618 15.003C34.9453 14.9985 32.9312 15.1439 30.9363 15.4381C30.1497 15.5767 29.4223 15.9465 28.8467 16.5002C28.3669 16.3635 27.871 16.291 27.372 16.2847C27.0963 16.2815 26.8215 16.3159 26.555 16.3869C25.4256 16.7126 24.3163 17.1044 23.2328 17.5603C22.3792 17.9596 21.6571 18.5941 21.1514 19.3894C20.1936 19.4198 19.2603 19.6989 18.443 20.1993C15.7259 22.0302 13.5335 24.5383 12.0825 27.4759C11.7832 28.1816 11.7163 28.9642 11.8915 29.7104C11.3599 30.3289 11.0469 31.1052 11.0009 31.9195C10.9757 33.2832 11.2352 34.6372 11.7627 35.8951C12.2903 37.1529 13.0743 38.2869 14.0648 39.2247C14.3891 39.5341 14.7851 39.7585 15.2172 39.8777C15.6493 39.9969 16.1043 40.0073 16.5414 39.9079C16.677 40.3041 16.8996 40.6649 17.1927 40.9639C17.4859 41.2629 17.8423 41.4925 18.2357 41.6359C19.6104 42.0612 21.0572 42.203 22.4883 42.0526C22.9377 43.8807 24.7535 45.5709 26.6653 46.5728C27.3356 46.8882 28.0764 47.024 28.8151 46.967C29.4929 47.4542 30.3019 47.7258 31.1364 47.7462C33.0273 47.6621 34.8724 47.1375 36.5247 46.2143C36.9332 49.9317 39.1014 52.0733 40.76 53.6911C41.4793 54.322 42.1124 55.0447 42.6432 55.8408L44.8022 54.647C44.1641 53.6427 43.3878 52.7334 42.4961 51.9457C41.1925 50.8422 40.1486 49.4644 39.4394 47.9106C41.0979 48.9892 43.0552 49.5151 45.0309 49.4129C46.343 49.4055 47.6505 49.2579 48.9312 48.9728C51.7907 48.3508 53.5433 47.3448 54.2919 45.8936C54.7369 44.969 54.81 43.9088 54.4961 42.9319C55.7447 42.6904 56.8702 42.0216 57.6794 41.0405C57.9259 40.6997 58.0825 40.3023 58.1348 39.8849C58.1871 39.4676 58.1334 39.0438 57.9787 38.6527C58.5912 38.0689 58.9567 37.2725 58.9999 36.4274C58.9201 33.9604 58.4371 31.5231 57.5701 29.212ZM48.6646 47.783C44.7143 48.6459 41.1072 48.1251 39.6825 46.49C39.3023 46.0546 39.098 45.4931 39.1095 44.9152C40.5477 44.1696 42.0631 43.5836 43.6287 43.1678C44.3785 42.9993 45.146 42.9228 45.9143 42.9401C46.8131 42.9401 47.7976 43.0095 48.7494 43.0739C49.7411 43.1433 50.7705 43.2158 51.753 43.2158C52.261 43.219 52.7689 43.1966 53.2747 43.1484C53.5356 43.8625 53.5063 44.6504 53.193 45.3431C52.6272 46.4287 51.1065 47.2499 48.6646 47.783ZM48.923 40.634C47.9283 40.5646 46.8999 40.4921 45.9143 40.4921C44.9403 40.4744 43.9678 40.5773 43.019 40.7984C40.8224 41.4063 38.7058 42.273 36.7136 43.3802C34.7007 44.4158 32.9625 45.3074 31.1354 45.3074C30.8552 45.2891 30.5838 45.2014 30.346 45.0521L30.298 44.9438C31.3366 43.0943 33.513 40.056 35.3931 39.4626C35.5482 39.4142 35.6776 39.3062 35.7531 39.1624C35.8285 39.0186 35.8438 38.8507 35.7955 38.6956C35.7436 38.5409 35.6333 38.4126 35.4881 38.338C35.3429 38.2634 35.1744 38.2484 35.0183 38.2963C33.7542 38.8139 32.6438 39.6469 31.7931 40.7157C30.8576 40.5119 29.9912 40.0685 29.2788 39.4289C29.1691 39.3073 29.0159 39.2338 28.8525 39.2245C28.689 39.2151 28.5284 39.2706 28.4056 39.3789C28.345 39.4318 28.2956 39.4963 28.2602 39.5686C28.2248 39.6408 28.2041 39.7193 28.1993 39.7997C28.1946 39.88 28.2059 39.9604 28.2325 40.0363C28.2591 40.1123 28.3006 40.1821 28.3545 40.2419C29.0801 40.9507 29.9715 41.4668 30.9475 41.7431C30.3175 42.5686 29.7433 43.4352 29.2287 44.3372L28.7589 44.5088C28.4427 44.5313 28.125 44.4999 27.8193 44.4158C25.7768 43.3486 24.6411 41.738 24.8944 40.9588L25.4643 39.2022C27.1167 37.3394 29.3145 36.2548 30.4829 36.6204C30.5754 36.651 30.6738 36.6591 30.7701 36.644C30.8664 36.6289 30.9577 36.591 31.0364 36.5336C31.1147 36.4771 31.1786 36.4028 31.2228 36.3169C31.267 36.231 31.2902 36.1359 31.2906 36.0393C31.2906 35.7544 32.0525 34.9036 33.5109 34.2868C33.9231 34.045 34.3853 33.9009 34.8619 33.8655C35.3385 33.83 35.8168 33.9043 36.2602 34.0825C36.9083 35.775 37.8635 37.3331 39.0779 38.6783C39.1322 38.7381 39.1978 38.7866 39.2709 38.8211C39.3439 38.8556 39.4231 38.8753 39.5038 38.8792C39.5845 38.8831 39.6652 38.8711 39.7412 38.8438C39.8173 38.8165 39.8872 38.7745 39.947 38.7202C40.0068 38.6658 40.0553 38.6003 40.0898 38.5272C40.1243 38.4541 40.1441 38.375 40.148 38.2943C40.1519 38.2136 40.1398 38.1329 40.1125 38.0568C40.0852 37.9808 40.0432 37.9109 39.9889 37.851C38.9029 36.6352 38.044 35.2342 37.453 33.7149C37.6868 33.4584 37.9729 33.2552 38.292 33.1188C38.6111 32.9824 38.9557 32.9161 39.3026 32.9244C39.7117 32.8509 40.1331 32.8878 40.5232 33.0315C40.9133 33.1751 41.258 33.4202 41.5218 33.7414C41.5922 33.8879 41.7171 34.0009 41.8698 34.0565C42.0224 34.112 42.1908 34.1056 42.3388 34.0386C42.4123 34.0049 42.4785 33.9569 42.5334 33.8975C42.5882 33.8381 42.6308 33.7684 42.6586 33.6924C42.6865 33.6165 42.699 33.5358 42.6954 33.455C42.6919 33.3741 42.6724 33.2948 42.6381 33.2216C42.3327 32.7189 41.8948 32.31 41.3723 32.0398C40.8499 31.7696 40.2631 31.6485 39.6763 31.6897C39.5895 30.5485 39.5895 29.4024 39.6763 28.2612C39.7051 28.1859 39.7185 28.1055 39.7158 28.0249C39.7131 27.9443 39.6943 27.8651 39.6605 27.7918C39.6267 27.7186 39.5787 27.6528 39.5191 27.5984C39.4596 27.5439 39.3898 27.5019 39.3138 27.4749C39.1611 27.4176 38.992 27.423 38.8433 27.4897C38.6945 27.5564 38.578 27.6792 38.5192 27.8313C38.3436 29.1491 38.3193 30.4827 38.4468 31.8061C37.7254 31.932 37.0641 32.2878 36.5615 32.8202C35.3853 32.4733 34.1208 32.5921 33.0299 33.1521C32.9227 33.1981 32.8195 33.2543 32.7133 33.3074C32.7031 33.3125 32.6908 33.3074 32.6816 33.3145C32.4161 33.4289 31.0824 32.5833 28.9244 29.4184C28.8314 29.2841 28.6892 29.1917 28.5287 29.1613C28.3682 29.131 28.2022 29.165 28.0665 29.256C27.932 29.3465 27.8388 29.4866 27.8074 29.6457C27.776 29.8048 27.809 29.9698 27.899 30.1047C28.821 31.6253 30.0052 32.9703 31.3969 34.0774C30.924 34.4027 30.53 34.8299 30.2439 35.3275C28.2667 35.1794 25.546 36.8502 23.817 39.2757L23.389 39.3962C21.9632 39.7598 20.4664 39.7383 19.0517 39.3339C18.9269 39.1933 18.8376 39.0251 18.7909 38.843C18.7441 38.661 18.7414 38.4704 18.7831 38.2871L18.8668 37.5814C19.3759 37.0898 19.9264 36.6428 20.5121 36.2456C21.0414 36.7188 21.3918 37.3595 21.5048 38.0604C21.5314 38.2031 21.6074 38.3318 21.7195 38.4241C21.8315 38.5163 21.9724 38.5662 22.1175 38.5649C22.1539 38.565 22.1902 38.5616 22.2258 38.5547C22.3053 38.5412 22.3813 38.5122 22.4495 38.4693C22.5177 38.4265 22.5767 38.3706 22.6233 38.3048C22.6699 38.2391 22.703 38.1648 22.7209 38.0862C22.7387 38.0077 22.7409 37.9264 22.7272 37.847C22.5751 36.9959 22.1906 36.2034 21.6161 35.5573C22.7807 34.8423 24.0888 34.3935 25.4469 34.2429C25.5276 34.2392 25.6068 34.2196 25.6799 34.1853C25.7529 34.1509 25.8185 34.1024 25.8728 34.0426C25.9271 33.9828 25.969 33.9129 25.9962 33.8369C26.0234 33.7608 26.0352 33.6801 26.0311 33.5995C26.0288 33.5181 26.0098 33.438 25.9754 33.3642C25.9411 33.2904 25.8919 33.2244 25.8311 33.1703C25.7703 33.1161 25.699 33.075 25.6217 33.0494C25.5444 33.0238 25.4626 33.0143 25.3815 33.0214C23.5053 33.2317 21.7121 33.9106 20.1669 34.9956C20.1375 35.0112 20.11 35.0304 20.0852 35.0528C19.7329 35.2846 19.4 35.5215 19.0864 35.7676L19.0956 35.6839L16.8814 37.1208C16.6073 37.3392 16.2798 37.4802 15.9327 37.5293C15.9044 37.531 15.8761 37.5257 15.8503 37.5139C15.8245 37.5022 15.802 37.4843 15.7846 37.4619C15.0358 36.7504 14.4441 35.8901 14.0474 34.9363C13.6508 33.9825 13.4581 32.9563 13.4816 31.9236C13.5705 31.5656 13.7743 31.2467 14.0617 31.0156L14.6214 30.6715C14.7164 30.6715 14.796 30.6786 14.8961 30.6786C15.3148 30.6786 15.7816 30.6592 16.2636 30.6306C16.2715 30.6338 16.2797 30.6362 16.2881 30.6378C17.9048 30.7961 19.2202 31.8449 19.2202 32.9734C19.2267 33.1331 19.2947 33.284 19.41 33.3947C19.5252 33.5054 19.6788 33.5672 19.8386 33.5672C19.9984 33.5672 20.152 33.5054 20.2672 33.3947C20.3825 33.284 20.4505 33.1331 20.457 32.9734C20.428 32.431 20.2671 31.9039 19.9882 31.4378C19.7093 30.9717 19.3209 30.5807 18.8566 30.2987C20.1058 30.0925 21.29 29.5989 22.3157 28.8567C22.3785 28.8063 22.4305 28.744 22.469 28.6734C22.5074 28.6027 22.5314 28.5251 22.5396 28.4451C22.5478 28.3651 22.54 28.2842 22.5166 28.2073C22.4932 28.1303 22.4548 28.0587 22.4035 27.9968C22.2993 27.8704 22.1492 27.7904 21.9861 27.7743C21.8231 27.7582 21.6604 27.8074 21.5334 27.911C19.9525 29.1916 16.6251 29.4858 14.508 29.4429L14.3375 29.2478C14.2561 29.0056 14.2561 28.7435 14.3375 28.5013C15.6167 25.9595 17.5264 23.7882 19.884 22.1949C20.3875 21.9448 20.9436 21.8187 21.5058 21.8272C21.5857 21.8267 21.6655 21.8315 21.7448 21.8415L21.9981 21.8773C22.2442 22.2439 22.5475 22.6667 22.9121 23.1201C21.9141 24.1251 20.7795 24.9846 19.5419 25.6733C19.4709 25.7112 19.4081 25.7628 19.3573 25.8252C19.3064 25.8876 19.2686 25.9596 19.2458 26.0368C19.2231 26.114 19.216 26.1949 19.2249 26.2749C19.2339 26.3549 19.2586 26.4323 19.2978 26.5026C19.351 26.5998 19.4295 26.6807 19.525 26.7368C19.6205 26.7929 19.7294 26.8221 19.8401 26.8213C19.9438 26.821 20.0458 26.7954 20.1373 26.7467C21.4432 26.007 22.6452 25.0972 23.7118 24.0413C23.8139 24.1435 23.916 24.2517 24.0182 24.359C25.1211 25.5906 24.7913 28.9945 24.5686 29.5031C24.5345 29.5768 24.5154 29.6565 24.5124 29.7376C24.5093 29.8188 24.5224 29.8997 24.5509 29.9757C24.5794 30.0517 24.6228 30.1213 24.6784 30.1805C24.734 30.2396 24.8009 30.2871 24.875 30.3202C25.0232 30.3878 25.1921 30.3943 25.345 30.3383C25.498 30.2823 25.6226 30.1683 25.692 30.0209C26.0669 28.6978 26.1464 27.3084 25.9249 25.9511C27.0236 26.7057 28.2622 27.2329 29.5678 27.5014C29.608 27.5105 29.6492 27.5146 29.6904 27.5137C29.8413 27.5121 29.9863 27.455 30.0977 27.3531C30.2091 27.2512 30.2789 27.1118 30.2939 26.9615C30.3088 26.8113 30.2678 26.6609 30.1786 26.5391C30.0895 26.4173 29.9585 26.3327 29.8108 26.3014C27.9516 25.884 26.2581 24.9243 24.9444 23.544C24.9353 23.5348 24.9291 23.5225 24.92 23.5133C24.9152 23.5112 24.911 23.5081 24.9077 23.5041C24.2147 22.8003 23.5896 22.0326 23.0408 21.2114L23.1133 20.9622C23.344 20.4688 23.7294 20.0643 24.2112 19.8102C25.1997 19.3942 26.2118 19.0369 27.2423 18.7399C27.2896 18.7325 27.3375 18.7294 27.3853 18.7307C27.7169 18.7386 28.0455 18.795 28.3607 18.8982L28.6139 19.1219C28.6881 20.4522 28.4374 21.7806 27.8837 22.9925C27.8299 23.0857 27.8016 23.1914 27.8016 23.299C27.8016 23.4066 27.83 23.5123 27.8838 23.6054C27.9376 23.6986 28.0151 23.7759 28.1083 23.8297C28.2015 23.8834 28.3072 23.9117 28.4148 23.9117C28.5216 23.912 28.6268 23.8847 28.72 23.8325C28.8132 23.7802 28.8914 23.7048 28.9468 23.6134C29.3322 22.8983 29.5838 22.1189 29.6893 21.3135C30.8795 21.2647 32.0658 21.1467 33.2423 20.9601C33.3219 20.946 33.3979 20.9162 33.466 20.8726C33.534 20.8289 33.5928 20.7723 33.6388 20.7058C33.6849 20.6394 33.7173 20.5645 33.7343 20.4854C33.7512 20.4064 33.7523 20.3247 33.7376 20.2452C33.7052 20.0855 33.6115 19.9448 33.4764 19.8535C33.3414 19.7622 33.1759 19.7276 33.0156 19.7571C31.9579 19.9238 30.8917 20.0315 29.8221 20.0798C29.8394 19.7959 29.8476 19.5069 29.8486 19.2097L30.2163 18.6623C30.4726 18.2661 30.8654 17.978 31.3203 17.8524C33.1916 17.5779 35.0807 17.4414 36.9721 17.4439C37.316 17.5469 37.6283 17.7352 37.88 17.9913L37.9576 18.0659C37.705 19.5329 37.3393 20.9782 36.8638 22.3889C34.6476 22.2561 32.1179 23.4245 31.6165 24.8992C31.5907 24.9756 31.5802 25.0564 31.5857 25.1369C31.5913 25.2174 31.6126 25.296 31.6486 25.3682C31.6845 25.4404 31.7344 25.5048 31.7953 25.5577C31.8562 25.6106 31.927 25.6509 32.0035 25.6764C32.0675 25.697 32.1344 25.7074 32.2017 25.7071C32.3305 25.7081 32.4564 25.6685 32.5614 25.5939C32.6665 25.5192 32.7454 25.4134 32.7868 25.2914C33.036 24.5601 34.715 23.6195 36.4236 23.5869C35.9104 25.0797 35.0806 26.444 33.9909 27.5862C33.9306 27.6394 33.8813 27.704 33.8462 27.7764C33.8111 27.8488 33.7907 27.9275 33.7864 28.0078C33.782 28.0882 33.7937 28.1686 33.8208 28.2443C33.8478 28.3201 33.8897 28.3898 33.9439 28.4492C34.054 28.5699 34.207 28.6427 34.3702 28.6516C34.5333 28.6606 34.6935 28.6051 34.8161 28.4972C36.263 26.9665 37.3272 25.1152 37.9218 23.0946C38.1027 23.5625 38.3526 24.0008 38.6632 24.3947C39.0453 24.8762 39.5282 25.2681 40.078 25.5428C40.6278 25.8175 41.2312 25.9684 41.8456 25.9848H41.8598C42.0224 25.9867 42.179 25.924 42.2952 25.8104C42.4115 25.6968 42.4779 25.5417 42.4797 25.3792C42.4816 25.2167 42.4189 25.0601 42.3053 24.9438C42.1918 24.8276 42.0367 24.7612 41.8742 24.7593C41.4383 24.7457 41.0107 24.6368 40.6215 24.4402C40.2323 24.2437 39.8909 23.9643 39.6212 23.6216C39.2407 23.1325 38.9699 22.5673 38.8274 21.9642C38.6848 21.3612 38.6738 20.7345 38.795 20.1268C38.7965 20.1197 38.7965 20.1124 38.795 20.1053C38.9472 19.465 39.0728 18.8502 39.1749 18.2742L39.4037 18.1281C39.6889 17.9216 40.0074 17.7655 40.3453 17.6665C41.5001 17.8253 42.6392 18.0822 43.7502 18.4345C44.0066 18.5293 44.234 18.689 44.41 18.8982V19.4926C43.9928 19.9436 43.4582 20.2696 42.8662 20.4339C42.2742 20.5983 41.6481 20.5945 41.0582 20.423L40.7835 20.3893C40.7029 20.3772 40.6208 20.3816 40.542 20.4021C40.4633 20.4227 40.3894 20.459 40.325 20.5088C40.2606 20.5586 40.207 20.6209 40.1673 20.692C40.1276 20.763 40.1027 20.8414 40.094 20.9224C40.0845 21.0025 40.091 21.0838 40.1129 21.1615C40.1349 21.2392 40.172 21.3117 40.2221 21.375C40.2722 21.4383 40.3343 21.4911 40.4049 21.5303C40.4755 21.5695 40.5531 21.5944 40.6333 21.6036L40.9019 21.6372C41.3321 21.7013 41.7661 21.7371 42.201 21.7445C42.3808 21.7438 42.5604 21.7336 42.7392 21.7139C42.7695 22.4058 43.0391 23.0657 43.5021 23.5808C43.842 24.0023 44.2689 24.3456 44.7536 24.5873C45.2382 24.8289 45.7693 24.9632 46.3106 24.9809C46.9724 24.9793 47.6154 24.7613 48.1417 24.36C48.2069 24.3126 48.2619 24.2526 48.3035 24.1836C48.3452 24.1146 48.3726 24.038 48.3842 23.9583C48.3958 23.8785 48.3913 23.7973 48.3711 23.7193C48.3509 23.6413 48.3152 23.5682 48.2663 23.5041C48.1678 23.3736 48.0218 23.2873 47.86 23.264C47.6981 23.2407 47.5337 23.2822 47.4023 23.3795C46.9306 23.6803 46.3611 23.7877 45.8122 23.6795C45.2633 23.5713 44.7772 23.2557 44.4549 22.7984C44.2375 22.6192 44.0872 22.3715 44.0288 22.0959C43.9704 21.8202 44.0072 21.5329 44.1332 21.2808C44.4448 21.1058 44.7342 20.8939 44.9952 20.6497L46.2432 19.9705C46.6732 19.8752 47.1233 19.9383 47.5106 20.1482C49.7243 21.515 51.6058 23.3578 53.0183 25.5426C53.161 25.8123 53.2486 26.1076 53.2761 26.4115C53.3037 26.7153 53.2705 27.0216 53.1787 27.3125L53.0306 27.7496C51.6693 28.5288 50.1453 28.9806 48.5793 29.0692C47.0133 29.1578 45.4481 28.8809 44.0076 28.2602C43.8608 28.1875 43.6912 28.1755 43.5356 28.2269C43.38 28.2783 43.2508 28.389 43.1763 28.5349C43.1056 28.6805 43.0954 28.8481 43.1478 29.0011C43.2002 29.1542 43.3111 29.2803 43.4561 29.352C44.8037 30.0051 46.2838 30.3382 47.7812 30.3253C48.1479 30.3253 48.5196 30.2773 48.8913 30.2415C48.9603 30.9351 49.1738 31.6066 49.5182 32.2126C49.8627 32.8186 50.3303 33.3457 50.891 33.7598C51.464 34.167 52.1489 34.3867 52.8518 34.3889C53.2914 34.3863 53.7267 34.3036 54.1366 34.1448C54.2119 34.1162 54.2808 34.073 54.3394 34.0177C54.3979 33.9624 54.445 33.8961 54.4779 33.8226C54.5108 33.7491 54.5289 33.6698 54.5312 33.5893C54.5334 33.5087 54.5198 33.4286 54.491 33.3533C54.4302 33.202 54.3125 33.0806 54.1633 33.0149C54.014 32.9492 53.845 32.9446 53.6923 33.002C53.3514 33.1425 52.9803 33.1938 52.614 33.1511C52.2477 33.1084 51.8983 32.9731 51.5987 32.7579C51.1801 32.4335 50.834 32.025 50.5828 31.5587C50.3316 31.0924 50.1809 30.5786 50.1404 30.0505C51.3539 29.7959 52.527 29.3767 53.627 28.8046L54.0355 28.922C54.5401 29.1669 54.9634 29.552 55.2549 30.0311C56.0358 32.0704 56.4684 34.2264 56.5346 36.409C56.4483 36.6977 56.2546 36.9422 55.9933 37.0922L55.2917 37.3241C51.2562 36.2328 47.0391 35.9853 42.9036 36.5969C42.8246 36.6123 42.7494 36.643 42.6823 36.6875C42.6152 36.7319 42.5575 36.7891 42.5125 36.8558C42.4675 36.9225 42.4361 36.9974 42.42 37.0763C42.404 37.1552 42.4037 37.2364 42.419 37.3154C42.4344 37.3944 42.4651 37.4696 42.5095 37.5367C42.554 37.6038 42.6112 37.6615 42.6779 37.7065C42.7446 37.7515 42.8195 37.7829 42.8984 37.7989C42.9772 37.815 43.0585 37.8153 43.1375 37.8C47.1005 37.2158 51.1415 37.4592 55.0057 38.5149L55.4255 39.0255C55.5624 39.1877 55.6518 39.3846 55.6838 39.5944C55.0006 40.3991 53.7843 40.7576 51.7601 40.7576C50.8573 40.7658 49.9188 40.7004 48.923 40.634Z" fill="#005F8C"/>
</g>
<defs>
<clipPath id="clip0_93_145">
<rect width="48" height="40.8511" fill="white" transform="translate(11 15)"/>
</clipPath>
</defs>
</svg>
