<svg width="70" height="70" viewBox="0 0 70 70" fill="none" xmlns="http://www.w3.org/2000/svg">
<g clip-path="url(#clip0_93_115)">
<path fill-rule="evenodd" clip-rule="evenodd" d="M11.0049 35.015C11.0049 42.228 16.3519 47.999 23.0439 47.999H46.1929C49.5922 47.9086 52.8247 46.5063 55.2132 44.0857C57.6017 41.6652 58.9608 38.4143 59.0059 35.014V34.873C59.0059 28.161 53.4329 23.001 46.1919 23.001H23.0439C16.0109 23.001 11.0049 27.938 11.0049 34.872V35.015ZM57.4579 34.873V35.014C57.405 38.0022 56.2067 40.856 54.1104 42.9862C52.0141 45.1163 49.1798 46.3602 46.1929 46.461H23.0439C16.9809 46.461 12.5529 41.039 12.5539 35.015V34.9C12.5143 33.5178 12.7596 32.1422 13.2744 30.8588C13.7893 29.5755 14.5628 28.4118 15.5468 27.4402C16.5307 26.4686 17.7041 25.7099 18.9939 25.2113C20.2837 24.7127 21.6623 24.4849 23.0439 24.542H46.1929C52.2569 24.539 57.4579 28.847 57.4579 34.873ZM44.4419 33.752C44.2539 33.54 44.0669 33.327 43.8759 33.116C43.6589 32.875 43.4409 32.636 43.2169 32.4C41.1779 30.249 38.7799 28.366 34.5359 28.366C30.2919 28.366 27.8999 30.244 25.8609 32.396C26.3259 32.887 26.7609 33.373 27.1709 33.836C27.2819 33.962 27.4329 34.084 27.5409 34.205C28.6234 32.9409 29.9868 31.9478 31.5219 31.305V38.556C29.9868 37.9132 28.6234 36.92 27.5409 35.656C27.3229 35.421 27.0829 35.181 26.8609 34.933C26.7279 34.785 26.5849 34.633 26.4489 34.482C26.0489 34.034 25.6369 33.575 25.2059 33.117C24.9869 32.883 24.7559 32.65 24.5229 32.417C22.644 30.4566 20.2504 29.0657 17.6169 28.404C17.3037 28.3257 16.9723 28.3743 16.6949 28.5394C16.4174 28.7044 16.2165 28.9724 16.1359 29.285C16.111 29.3831 16.0986 29.4838 16.0989 29.585C16.1098 29.8599 16.2106 30.1235 16.3859 30.3356C16.5611 30.5477 16.801 30.6964 17.0689 30.759C17.7692 30.9565 18.4588 31.1901 19.1349 31.459V38.414C18.4588 38.683 17.7692 38.9167 17.0689 39.114C16.8037 39.1779 16.567 39.3277 16.3958 39.54C16.2245 39.7523 16.1282 40.0153 16.1219 40.288C16.1185 40.3887 16.1272 40.4894 16.1479 40.588C16.1868 40.7426 16.2558 40.8881 16.3509 41.016C16.4461 41.1439 16.5655 41.2519 16.7024 41.3336C16.8393 41.4153 16.991 41.4693 17.1488 41.4923C17.3065 41.5154 17.4673 41.5071 17.6219 41.468C20.2535 40.8063 22.645 39.4157 24.5219 37.456C24.3039 37.215 24.0879 36.975 23.8769 36.737C23.5449 36.363 23.1579 35.999 22.8319 35.645C22.113 36.468 21.2537 37.1567 20.2939 37.679V32.205C21.2534 32.7273 22.1127 33.4156 22.8319 34.238C23.0609 34.468 23.3159 34.703 23.5319 34.938C23.8819 35.316 24.2409 35.702 24.5869 36.092C24.7869 36.313 24.9869 36.533 25.1869 36.755C25.4039 36.996 25.6279 37.234 25.8509 37.471C27.8909 39.623 30.2949 41.502 34.5289 41.502C38.7629 41.502 41.1719 39.619 43.2119 37.467C42.7389 36.967 42.3009 36.479 41.8829 36.011C41.7779 35.892 41.7359 35.777 41.6329 35.661C40.6131 36.7703 39.4183 37.7047 38.0959 38.427V31.451C39.4183 32.1728 40.6132 33.1069 41.6329 34.216C41.8509 34.451 42.0399 34.69 42.2619 34.939C42.3879 35.08 42.4999 35.224 42.6299 35.368C43.0299 35.823 43.4419 36.288 43.8809 36.752C44.1009 36.985 44.3249 37.218 44.5599 37.447C46.4248 39.3807 48.8024 40.7426 51.4139 41.373C51.7277 41.4488 52.0588 41.3973 52.3347 41.2298C52.6107 41.0623 52.8092 40.7924 52.8869 40.479C52.9081 40.3855 52.9192 40.2899 52.9199 40.194C52.9309 39.9267 52.8496 39.6638 52.6898 39.4493C52.5299 39.2348 52.3011 39.0818 52.0419 39.016C51.5058 38.9021 50.9835 38.7312 50.4839 38.506V31.373C50.9832 31.1476 51.5051 30.9763 52.0409 30.862C52.3034 30.798 52.5363 30.6464 52.7012 30.4323C52.8661 30.2181 52.9531 29.9542 52.9479 29.684C52.9426 29.5874 52.9262 29.4918 52.8989 29.399C52.8201 29.085 52.6205 28.8149 52.3435 28.6474C52.0665 28.48 51.7345 28.4288 51.4199 28.505C48.8055 29.1354 46.4247 30.4972 44.5559 32.431C44.7649 32.661 44.9719 32.892 45.1749 33.12C45.5159 33.503 45.8199 33.877 46.1549 34.238C46.9615 33.3641 47.8998 32.6218 48.9359 32.038V37.85C47.9005 37.2657 46.9625 36.5234 46.1559 35.65C45.9259 35.421 45.7159 35.187 45.4939 34.95C45.1409 34.544 44.7999 34.151 44.4419 33.752ZM34.4419 39.067C33.8513 39.0601 33.2619 39.0127 32.6779 38.925V30.932C33.2621 30.8453 33.8514 30.7979 34.4419 30.79C35.1503 30.7731 35.8582 30.8446 36.5489 31.003V38.855C35.8597 39.0125 35.1536 39.0837 34.4469 39.067H34.4419Z" fill="#005F8C"/>
</g>
<defs>
<clipPath id="clip0_93_115">
<rect width="48" height="25" fill="white" transform="translate(11 23)"/>
</clipPath>
</defs>
</svg>
