<?xml version="1.0" encoding="utf-8"?><svg xmlns="http://www.w3.org/2000/svg" xmlns:xlink="http://www.w3.org/1999/xlink"><symbol fill="none" viewBox="0 0 55 8" id="arrow-lg-right" xmlns="http://www.w3.org/2000/svg"><path d="M54.354 4.354a.5.5 0 0 0 0-.708L51.172.464a.5.5 0 1 0-.707.708L53.293 4l-2.828 2.828a.5.5 0 1 0 .707.708l3.182-3.182ZM0 4.5h54v-1H0v1Z" fill="#fff"/></symbol><symbol fill="none" viewBox="0 0 23 16" id="arrow-more" xmlns="http://www.w3.org/2000/svg"><path d="M22.707 8.707a1 1 0 0 0 0-1.414L16.343.929a1 1 0 1 0-1.414 1.414L20.586 8l-5.657 5.657a1 1 0 0 0 1.414 1.414l6.364-6.364ZM0 9h22V7H0v2Z" fill="#434242"/></symbol><symbol fill="none" viewBox="0 0 17 16" id="arrow-right-sm" xmlns="http://www.w3.org/2000/svg"><path d="M16.707 8.707a1 1 0 0 0 0-1.414L10.343.929A1 1 0 1 0 8.93 2.343L14.586 8l-5.657 5.657a1 1 0 0 0 1.414 1.414l6.364-6.364ZM0 9h16V7H0v2Z" fill="#fff"/></symbol><symbol fill="none" viewBox="0 0 7 13" id="chevron-left" xmlns="http://www.w3.org/2000/svg"><path d="M6.5 1 1 6.5 6.5 12" stroke="#fff"/></symbol><symbol fill="none" viewBox="0 0 7 13" id="chevron-right" xmlns="http://www.w3.org/2000/svg"><path d="M.5 12 6 6.5.5 1" stroke="#fff"/></symbol><symbol fill="none" viewBox="0 0 36 36" id="clock" xmlns="http://www.w3.org/2000/svg"><path d="M18 36a18 18 0 1 1 0-36 18 18 0 0 1 0 36Zm0-33.429a15.429 15.429 0 1 0 0 30.858A15.429 15.429 0 0 0 18 2.57Z" fill="#000"/><path d="m23.902 25.714-7.187-7.187V6.43h2.571v11.03l6.429 6.442-1.813 1.812Z" fill="#000"/></symbol><symbol fill="none" viewBox="0 0 50 50" id="go-back" xmlns="http://www.w3.org/2000/svg"><path fill-rule="evenodd" clip-rule="evenodd" d="m8.969 24.219 6.156 6.156a2.345 2.345 0 1 1-3.313 3.313L1.656 23.53 0 21.875l1.656-1.656 10.156-10.156a2.344 2.344 0 0 1 3.313 3.312l-6.156 6.156h30.875a10.156 10.156 0 1 1 0 20.313h-6.25a2.344 2.344 0 0 1 0-4.688h6.25a5.468 5.468 0 1 0 0-10.937H8.969Z" fill="#fff"/></symbol><symbol fill="none" viewBox="0 0 25 23" id="headerBlock-icon-1" xmlns="http://www.w3.org/2000/svg"><path d="M14.4.549c-2.164.163-3.634 1.177-4.055 2.795-.058.211-.1.422-.1.47 0 .11-.034.11-.355-.034-1.082-.479-2.762-.522-3.988-.105-1.345.46-2.293 1.575-2.58 3.04-.043.234-.067.674-.067 1.302 0 .641-.019.962-.052.986-.03.014-.115.162-.192.325-.139.292-.139.292-.139 1.254 0 1.097.039 1.274.33 1.609.101.115.22.325.269.469.22.67.521 1.211 1.062 1.9l.35.45v.627c0 .714-.067.939-.35 1.15a69.48 69.48 0 0 1-1.68 1.072C1.01 19.008.728 19.247.363 19.984c-.3.618-.363.977-.363 2.111V23h24.51v-.953c0-1.086-.067-1.575-.288-2.116a3.794 3.794 0 0 0-1.532-1.766c-.172-.1-1.201-.627-2.292-1.168-1.37-.69-2.02-1.039-2.121-1.144-.254-.278-.292-.421-.311-1.278l-.024-.79.163-.216c.44-.584 1.01-1.613 1.235-2.24.067-.182.158-.335.23-.383.31-.215.545-.474.689-.766l.158-.316.014-.938c.024-1.14-.024-1.508-.254-1.886l-.162-.268L20 5.178c-.019-1.776-.033-1.867-.412-2.595-.215-.411-.866-1.086-1.278-1.32-1-.58-2.37-.83-3.91-.714Zm1.948.89c.895.134 1.55.436 2.058.953.388.388.55.67.69 1.173.09.33.1.483.1 1.967v1.609l.124.114c.254.235.278.345.297 1.207.029 1.321-.029 1.527-.521 1.771-.269.134-.273.144-.403.503-.31.87-.8 1.77-1.32 2.436l-.235.302v.8c0 1.277.114 1.713.564 2.163.211.206.513.373 2.317 1.278 1.14.57 2.217 1.13 2.394 1.25a2.827 2.827 0 0 1 1.211 1.809c.038.201.072.603.072.89v.522H6.558v-.675c0-.46.024-.77.077-.971a2.988 2.988 0 0 1 1.163-1.652c.148-.1 1.12-.642 2.159-1.206 1.556-.843 1.934-1.068 2.145-1.274.464-.46.579-.895.584-2.168v-.747l-.245-.33a8.164 8.164 0 0 1-1.244-2.648c-.048-.191-.096-.272-.22-.359-.312-.205-.35-.373-.35-1.46 0-1.048.024-1.177.254-1.397l.13-.12V5.66c0-1.675.038-2.039.277-2.546.488-1.034 1.59-1.638 3.202-1.748a8.528 8.528 0 0 1 1.858.072Zm-7.42 2.892c.263.057.589.172.838.296l.406.206.015.991c.01.981.01.991-.105 1.163-.25.364-.278.546-.259 1.781.014 1.116.02 1.144.139 1.407.072.149.2.355.292.455.115.125.21.316.292.57.249.77.622 1.541 1.096 2.236l.182.272v.81c0 .904-.034 1.043-.302 1.311-.2.201-1.335.814-1.436.776-.043-.015-.081.004-.1.062-.02.052-.484.335-1.168.703-.623.345-1.278.718-1.456.833a3.634 3.634 0 0 0-1.235 1.417c-.292.59-.378.977-.416 1.882l-.029.684H.814v-.493c0-.58.09-.996.301-1.393.268-.517.546-.737 2.284-1.819.88-.55 1.685-1.077 1.785-1.173.1-.096.25-.31.335-.483l.154-.307.014-.924.02-.919-.307-.35c-.58-.66-.986-1.368-1.187-2.038-.082-.278-.14-.383-.302-.532l-.201-.191-.014-.848c-.01-.469-.005-.9.014-.962.014-.062.1-.191.187-.292l.162-.177.02-1.244c.023-1.35.043-1.47.335-2.059.488-.996 1.407-1.59 2.695-1.747.464-.058 1.307-.015 1.819.096Z" fill="#ACFF6B"/></symbol><symbol fill="none" viewBox="0 0 26 24" id="headerBlock-icon-2" xmlns="http://www.w3.org/2000/svg"><path d="M4.457.985C4.36 1.055.102 7.854.027 8.049c-.04.106-.036.176.02.291.065.136 12.026 15.013 12.438 15.47.135.155.2.19.361.19.176 0 .216-.03.482-.341.737-.863 12.243-15.183 12.308-15.319.055-.115.06-.18.015-.296-.08-.205-4.325-6.984-4.426-7.06-.115-.09-16.653-.09-16.768 0Zm7.42.827c-.05.13-4.48 5.525-4.51 5.49-.02-.02-.467-1.21-.988-2.645L5.37 1.907l-.055-.135h3.291c1.812 0 3.282.02 3.272.04Zm7.853 1.626c-.341.918-.803 2.163-1.028 2.765-.221.602-.422 1.089-.442 1.079-.045-.015-4.466-5.45-4.466-5.485 0-.015 1.476-.025 3.282-.025h3.276l-.622 1.666Zm-4.536 1.455 2.308 2.85H8.18l2.318-2.86c1.274-1.57 2.333-2.85 2.348-2.845.02.005 1.074 1.29 2.348 2.855Zm-9.583.156c.532 1.46.958 2.66.943 2.674-.01.01-1.214.015-2.68.01l-2.659-.015 1.686-2.694c.929-1.486 1.696-2.68 1.716-2.66.015.02.462 1.23.994 2.685Zm17.27.135 1.586 2.534-2.685.015c-1.475.005-2.694 0-2.704-.01-.015-.01 1.515-4.164 1.942-5.273l.055-.146.11.17 1.696 2.71Zm-14.606 7.16c.753 2.068 1.796 4.912 2.313 6.332.537 1.476.903 2.54.848 2.484-.145-.155-10.085-12.509-10.085-12.539 0-.015 1.25-.025 2.78-.025h2.774l1.37 3.748Zm9.508-3.663c-.02.05-1.093 2.936-2.388 6.413a2123.79 2123.79 0 0 1-2.489 6.668c-.085.226-.14.321-.165.276-.02-.04-1.124-3.04-2.449-6.668-1.324-3.628-2.428-6.638-2.442-6.69-.035-.08.22-.085 4.967-.085s5.002.005 4.967.085Zm6.538-.04c-.02.056-10.396 12.94-10.411 12.93-.01-.005 1.069-2.92 2.393-6.472 1.325-3.558 2.409-6.473 2.409-6.483 0-.01 1.264-.02 2.814-.02 1.56 0 2.805.02 2.795.045Z" fill="#ACFF6B"/></symbol><symbol fill="none" viewBox="0 0 22 23" id="headerBlock-icon-3" xmlns="http://www.w3.org/2000/svg"><path d="M.498.104.372.212v22.572l.126.108c.067.059.166.108.216.108.125 0 .337-.117.372-.202.014-.04.027-2.256.027-4.924v-4.848H3.23c1.163 0 2.107.013 2.098.031-.288.575-.324.674-.342 1.006-.045.75.355 1.47.998 1.802.436.225.076.216 7.916.216h7.328l.09-.099c.14-.153.158-.27.068-.44-.045-.086-.975-1.46-2.072-3.056C17.5 9.854 17.328 9.584 17.378 9.5c.031-.05.948-1.384 2.035-2.966 1.088-1.581 1.995-2.925 2.018-2.983a.315.315 0 0 0-.014-.238c-.112-.274.234-.26-6.083-.26H9.56v-.828c0-.745-.009-.835-.085-.93l-.086-.107-4.129-.023-4.124-.022-.01-.405C1.11.207 1.092.144.935.063.749-.03.646-.022.498.103Zm8.298 6.99v5.168H1.113V1.928h7.683v5.167Zm11.502-3.243c0 .022-.862 1.29-1.914 2.822-1.756 2.552-1.91 2.794-1.896 2.938.014.117.481.827 1.914 2.907a215.556 215.556 0 0 1 1.896 2.777c0 .013-3.082.022-6.847.022H6.604l-.238-.126c-.548-.287-.773-.925-.517-1.469.13-.278.306-.458.566-.58.189-.09.292-.094 1.56-.107l1.352-.014.116-.117.117-.117V3.815h5.37c2.951 0 5.368.018 5.368.036Z" fill="#ACFF6B"/></symbol><symbol fill="none" viewBox="0 0 24 24" id="instagram" xmlns="http://www.w3.org/2000/svg"><path d="M11.999 7.377a4.624 4.624 0 1 0 0 9.248 4.624 4.624 0 0 0 0-9.248Zm0 7.627a3.004 3.004 0 1 1 0-6.008 3.004 3.004 0 0 1 0 6.008Zm4.807-6.719a1.078 1.078 0 1 0 0-2.156 1.078 1.078 0 0 0 0 2.156Z" fill="#000"/><path d="M20.533 6.11A4.605 4.605 0 0 0 17.9 3.48a6.607 6.607 0 0 0-2.186-.42c-.963-.042-1.268-.054-3.71-.054s-2.755 0-3.71.054a6.554 6.554 0 0 0-2.184.42 4.6 4.6 0 0 0-2.633 2.63 6.585 6.585 0 0 0-.419 2.186c-.043.962-.056 1.267-.056 3.71 0 2.442 0 2.753.056 3.71.015.748.156 1.486.419 2.187a4.61 4.61 0 0 0 2.634 2.632 6.583 6.583 0 0 0 2.185.45c.963.042 1.268.055 3.71.055s2.755 0 3.71-.055a6.616 6.616 0 0 0 2.186-.42 4.613 4.613 0 0 0 2.633-2.632c.263-.7.404-1.438.419-2.186.043-.962.056-1.267.056-3.71s0-2.753-.056-3.71a6.583 6.583 0 0 0-.421-2.217Zm-1.218 9.533a5.046 5.046 0 0 1-.311 1.688 2.987 2.987 0 0 1-1.712 1.71c-.535.2-1.1.305-1.67.312-.95.044-1.218.055-3.654.055-2.438 0-2.687 0-3.655-.055a4.961 4.961 0 0 1-1.67-.311 2.984 2.984 0 0 1-1.718-1.711 5.08 5.08 0 0 1-.311-1.67c-.043-.95-.053-1.217-.053-3.653 0-2.437 0-2.686.053-3.655a5.038 5.038 0 0 1 .311-1.687c.305-.79.93-1.41 1.719-1.712a5.01 5.01 0 0 1 1.669-.311c.95-.043 1.218-.055 3.655-.055s2.687 0 3.654.055a4.96 4.96 0 0 1 1.67.31 2.99 2.99 0 0 1 1.712 1.713 5.06 5.06 0 0 1 .311 1.669c.043.95.054 1.218.054 3.655 0 2.436 0 2.698-.043 3.654h-.011v-.001Z" fill="#000"/></symbol><symbol fill="none" viewBox="0 0 38 38" id="mail" xmlns="http://www.w3.org/2000/svg"><path d="M3.748 4.639c-1.002.222-1.714.608-2.39 1.298C.838 6.457.505 7 .238 7.734l-.2.541v21.45l.2.541c.541 1.485 1.64 2.546 3.102 2.999l.556.17h30.207l.557-.17c1.462-.453 2.56-1.514 3.103-2.999l.2-.541V8.275l-.2-.541c-.535-1.463-1.611-2.509-3.066-2.999l-.52-.17-14.991-.015c-12.343-.008-15.074.007-15.438.089Zm30.704 2.323c.542.267.92.645 1.188 1.195l.17.341.023 10.406c.015 10.353.015 10.405-.134 10.813-.2.535-.697 1.069-1.24 1.344l-.43.222H3.97l-.37-.185c-.55-.267-1.099-.846-1.284-1.358l-.164-.431V19.007c0-11.4-.037-10.598.483-11.303.304-.408.705-.698 1.247-.883.363-.134 1.113-.134 15.23-.119l14.843.015.497.245Z" fill="#373737"/><path d="M5.15 8.617c-.541.155-.875.771-.704 1.32.074.26.675.825 4.876 4.572 2.635 2.36 4.78 4.313 4.765 4.342-.015.03-2.145 2.041-4.735 4.468-2.59 2.427-4.758 4.498-4.81 4.617-.312.69.223 1.484 1.002 1.47.178 0 .4-.053.49-.112.09-.06 2.308-2.115 4.936-4.572l4.772-4.468 1.276 1.143c.705.623 1.366 1.202 1.477 1.27.245.162.824.17 1.047.021.089-.059.764-.645 1.499-1.298l1.328-1.195.194.17 4.809 4.557c4.906 4.654 4.846 4.61 5.425 4.498.342-.074.728-.46.787-.802.126-.638.252-.49-4.869-5.35-4.527-4.305-4.742-4.52-4.616-4.64.074-.066 2.212-1.988 4.75-4.26 4.037-3.614 4.631-4.17 4.705-4.43.12-.394-.007-.802-.341-1.099-.223-.193-.327-.23-.66-.23-.297 0-.453.045-.61.163-.17.134-12.015 10.732-12.728 11.393l-.2.178-6.428-5.752c-3.531-3.169-6.5-5.804-6.597-5.863a1.068 1.068 0 0 0-.838-.111Z" fill="#373737"/></symbol><symbol fill="none" viewBox="0 0 38 38" id="phone-call" xmlns="http://www.w3.org/2000/svg"><g clip-path="url(#ma)" fill="#373737"><path d="M20.559.134c-.728.363-.794 1.395-.112 1.84.104.067.609.216 1.136.334 1.588.35 2.375.609 3.8 1.255 2.04.927 3.852 2.211 5.537 3.94 2.434 2.502 4.03 5.5 4.772 8.981.2.943.252 1.061.542 1.277.467.341 1.039.312 1.417-.082.342-.356.364-.586.156-1.596C36.323 8.78 30.793 2.74 23.64.601c-.817-.245-2.39-.6-2.65-.6-.096 0-.29.059-.43.133ZM6.227 2.368c-.95.304-1.744.965-3.97 3.325C.66 7.378.23 8.23.081 9.93c-.216 2.42.6 5.484 2.404 9.032.757 1.5 1.099 2.086 2.064 3.525 3.636 5.448 8.409 9.79 14.042 12.788 3.191 1.7 5.893 2.568 8.35 2.694 1.736.097 3.28-.393 4.438-1.395.14-.119.994-.972 1.9-1.907 1.499-1.537 1.67-1.744 1.96-2.316.556-1.113.563-2.115.006-3.258-.304-.616-.378-.698-3.065-3.385-2.605-2.612-2.783-2.775-3.317-3.028-1.136-.534-2.301-.482-3.407.156-.186.112-1.024.876-1.87 1.715l-1.537 1.514-.734-.394c-3.266-1.721-7.556-6.041-9.144-9.203l-.29-.564 1.425-1.44c1.522-1.536 1.893-1.996 2.138-2.694.326-.95.26-1.855-.208-2.813-.245-.49-.497-.764-3.02-3.288-2.873-2.872-3.103-3.065-3.979-3.325-.534-.155-1.484-.148-2.011.023Zm1.662 2.16c.46.215 5.263 5.039 5.463 5.492.386.853.223 1.135-1.811 3.154-.913.898-1.707 1.744-1.781 1.885-.208.416-.119 1.165.222 1.893.958 2.033 2.502 4.082 4.854 6.427 1.937 1.937 3.926 3.429 5.938 4.46.838.439.95.476 1.373.468.29 0 .55-.052.712-.133.141-.075 1.01-.884 1.93-1.79.92-.904 1.781-1.706 1.922-1.78.371-.186 1.024-.127 1.396.133.527.364 5.04 4.966 5.217 5.314.215.43.215.92 0 1.351-.163.312-2.553 2.82-3.377 3.533-1.187 1.039-2.857 1.165-5.603.423-2.004-.542-5.1-2.041-7.645-3.703-5.418-3.548-10.376-9.285-12.884-14.919-1.61-3.621-2.004-6.397-1.158-8.126.148-.312.601-.817 1.907-2.138 1.077-1.098 1.834-1.803 2.041-1.907.416-.223.869-.23 1.284-.038Zm12.313 2.523c-.504.312-.683.98-.386 1.462.208.342.386.43 1.284.653 2.056.505 3.711 1.448 5.114 2.925 1.329 1.387 2.227 3.065 2.62 4.868.156.698.26.935.527 1.143.601.475 1.566.126 1.7-.616.11-.564-.446-2.501-1.091-3.785a12.472 12.472 0 0 0-8.261-6.62c-.898-.215-1.188-.223-1.507-.03Z"/></g><defs><clipPath id="ma"><path fill="#fff" d="M0 0h38v38H0z"/></clipPath></defs></symbol><symbol fill="none" viewBox="0 0 18 13" id="rus-flag" xmlns="http://www.w3.org/2000/svg"><path d="M18 11a2 2 0 0 1-2 2H2a2 2 0 0 1-2-2V9h18v2Z" fill="#CE2028"/><path d="M0 4h18v5H0V4Z" fill="#22408C"/><path d="M16 0H2a2 2 0 0 0-2 2v2h18V2a2 2 0 0 0-2-2Z" fill="#EEE"/></symbol><symbol fill="none" viewBox="0 0 30 30" id="sCase-icon-1" xmlns="http://www.w3.org/2000/svg"><path d="M14.324 2.011c-2.292.234-4.147 1.097-5.675 2.64-2.202 2.224-3.147 5.9-2.393 9.337.216.995.724 2.249 1.206 2.975.865 1.3 7.51 10.961 7.54 10.961.03 0 6.676-9.661 7.54-10.961.116-.178.347-.604.508-.94.633-1.35.95-2.802.95-4.396 0-2.747-.955-5.265-2.644-6.976a8.88 8.88 0 0 0-4.921-2.549c-.462-.07-1.754-.127-2.111-.091Zm1.81 1.005c2.407.376 4.433 1.706 5.654 3.712.94 1.548 1.418 3.62 1.267 5.544-.116 1.431-.452 2.655-1.03 3.711-.257.462-6.957 10.266-7.023 10.266-.06 0-6.766-9.799-7.012-10.256-1.312-2.386-1.417-5.63-.271-8.29 1.07-2.499 3.337-4.235 6.102-4.682.548-.086 1.76-.091 2.312-.005Z" fill="#2521E7"/><path d="M14.725 7.697c-.056.01-.226.046-.377.076-.367.071-1.02.396-1.332.655-.518.437-.98 1.173-1.121 1.777a3.354 3.354 0 0 0 1.513 3.646c.663.406 1.578.558 2.347.396.945-.198 1.83-.894 2.257-1.757.89-1.828.02-3.965-1.88-4.63-.397-.137-1.146-.224-1.407-.163Zm.96 1.03c1.744.473 2.322 2.651 1.05 3.94a2.24 2.24 0 0 1-1.633.686c-2.091 0-3.142-2.523-1.664-4.016.608-.61 1.422-.833 2.247-.61Z" fill="#2521E7"/></symbol><symbol fill="none" viewBox="0 0 30 30" id="sCase-icon-2" xmlns="http://www.w3.org/2000/svg"><path d="M13.153 2.122c-.3.137-.39.233-.528.538-.188.411-.101.858.229 1.188.213.214.447.295.95.325l.441.026v.477l-.29.036c-.705.081-1.152.198-1.294.34-.188.183-.183.366.005.559.178.172.193.177.843.045.28-.056.752-.117 1.056-.132l.543-.035v.452c0 .507.061.67.275.772.167.086.35.045.487-.102.087-.097.102-.178.102-.61v-.497h.269c.894 0 2.483.396 3.64.904.692.305.656.264.494.553-.3.518-.356.66-.32.793.07.289.431.436.65.269.045-.036.182-.234.304-.437.122-.203.244-.38.27-.391.076-.02.878.574 1.401 1.03.254.22.64.61.868.87.386.436 1.052 1.32 1.057 1.396 0 .02-.193.147-.427.29-.234.141-.442.294-.457.34-.112.294.107.629.416.629.046 0 .264-.102.488-.229.218-.127.416-.228.437-.228.055 0 .441.873.655 1.493.315.92.558 2.138.563 2.808v.27h-.477c-.427 0-.498.014-.61.111a.543.543 0 0 0-.162.28c-.025.136-.005.187.122.32.152.146.168.152.64.152h.487v.289c0 .665-.3 2.102-.614 2.96-.208.574-.559 1.32-.614 1.32-.026 0-.204-.09-.397-.202-.492-.29-.62-.305-.812-.112-.157.157-.193.345-.102.518.026.05.234.198.457.33.224.132.407.26.407.28 0 .065-.549.807-.92 1.254a11.399 11.399 0 0 1-2.127 1.894l-.29.198-.218-.381c-.239-.416-.406-.579-.594-.579-.158 0-.422.26-.422.411 0 .061.107.305.234.539.127.238.223.436.213.452a8.63 8.63 0 0 1-.528.253c-.995.468-2.346.828-3.438.925-.274.02-.508.03-.518.015-.015-.01-.025-.244-.025-.513 0-.442-.01-.497-.112-.594-.173-.152-.28-.173-.467-.097-.219.092-.285.28-.285.823v.422l-.264-.026c-.858-.086-1.223-.132-1.548-.203-.31-.066-.386-.071-.503-.01-.29.137-.35.472-.127.696.178.177 1.726.406 2.747.411 5.591.01 10.395-3.9 11.527-9.39.33-1.62.305-3.32-.08-5.032-.356-1.574-1.306-3.468-2.367-4.717-.178-.204-.34-.407-.37-.442-.036-.051.06-.183.405-.528l.457-.457.28.279c.157.152.304.28.33.28.066 0 1.803-1.738 1.803-1.804 0-.066-1.737-1.802-1.803-1.802-.066 0-1.803 1.736-1.803 1.802 0 .03.127.178.28.33l.279.275-.442.447c-.244.248-.467.447-.498.447-.03 0-.122-.072-.208-.158a7.597 7.597 0 0 0-.62-.513c-1.574-1.188-3.336-1.95-5.22-2.254l-.528-.087v-.478l.472-.025c.838-.045 1.255-.41 1.255-1.102 0-.314-.051-.451-.264-.69C17.968 2 17.988 2 15.566 2h-2.159l-.254.122Zm4.484.802c.092.092.072.285-.035.346-.056.025-.437.05-.863.05h-.767v1.27h-.863V3.32h-.752c-.594 0-.772-.015-.863-.08-.132-.092-.143-.189-.03-.295.065-.072.33-.082 2.096-.082 1.498 0 2.032.016 2.077.061ZM25.91 5.87c.147.147.269.289.269.314 0 .066-.513.59-.58.59-.065 0-.588-.513-.588-.58 0-.065.513-.589.579-.589.03 0 .172.117.32.265ZM9.385 8.079c-.157.03-.32.253-.32.426 0 .076.056.208.122.284l.122.143h2.488l.133-.122a.418.418 0 0 0 0-.62c-.127-.122-.138-.122-1.28-.127-.635-.005-1.204 0-1.265.016Zm-2.25 3.077a.423.423 0 0 0-.091.696c.107.096.173.101 2.432.101 2.265 0 2.321 0 2.453-.106a.312.312 0 0 0 .132-.28c0-.244-.071-.355-.259-.421-.244-.087-4.5-.077-4.667.01Z" fill="#2521E7"/><path d="M20.026 11.958c-3.372 2.427-5.297 3.85-5.419 4.002a1.543 1.543 0 0 0 .148 2.082c.563.548 1.553.538 2.102-.016.228-.233 4.113-5.58 4.255-5.865.102-.198.082-.33-.076-.503-.193-.208-.37-.157-1.01.3Zm-2.479 3.707c-.675.934-1.294 1.747-1.386 1.808-.33.239-.767.112-.955-.274-.116-.239-.096-.473.051-.666.082-.111 3.464-2.595 3.499-2.574.005.005-.538.777-1.209 1.706Zm-12.63-1.452c-.239.168-.223.6.03.731.072.04 1.107.056 3.514.046l3.408-.015.096-.122a.449.449 0 0 0-.03-.59l-.122-.126H8.421c-2.92 0-3.413.01-3.504.076ZM3.14 17.295c-.153.173-.173.28-.097.467a.373.373 0 0 0 .234.229c.233.076 8.292.081 8.526 0 .188-.066.259-.178.259-.422a.312.312 0 0 0-.132-.279c-.137-.107-.163-.107-4.413-.107H3.24l-.101.112Zm2.804 2.92c-.32.082-.447.498-.214.716l.117.112h5.997l.107-.117a.43.43 0 0 0-.02-.599l-.132-.122-2.875-.005c-1.584-.005-2.925 0-2.98.015Zm2.486 3.073c-.258.147-.309.472-.1.675l.121.127h1.67c1.616 0 1.677-.005 1.809-.107a.31.31 0 0 0 .132-.274c0-.472-.036-.482-1.94-.482-1.102.005-1.62.02-1.691.06Z" fill="#2521E7"/></symbol><symbol fill="none" viewBox="0 0 30 30" id="sCase-icon-3" xmlns="http://www.w3.org/2000/svg"><path d="M12.94 2.047c-2.94.18-5.475.737-7.236 1.586-.85.407-1.313.721-1.834 1.236-.35.35-.484.53-.643.855l-.201.412-.016 8.967L3 24.069l.129.35c.232.619.69 1.154 1.375 1.613 1.73 1.153 4.202 1.864 7.715 2.209 1.262.124 4.357.124 5.588 0 2.106-.216 3.682-.52 5.155-1.01 2.148-.71 3.482-1.668 3.91-2.811l.128-.34-.01-8.972-.016-8.972-.2-.412c-.16-.324-.294-.504-.644-.855-.52-.515-.984-.829-1.834-1.236-1.808-.87-4.28-1.4-7.375-1.591a44.631 44.631 0 0 0-3.981.005Zm5.073 1.046c4.166.453 7.148 1.576 7.885 2.966.134.258.123.737-.02 1.015-.645 1.23-3.436 2.358-6.964 2.817-1.38.18-1.962.211-3.914.211-1.952 0-2.534-.03-3.914-.211-3.07-.402-5.521-1.272-6.592-2.344-.36-.36-.485-.618-.485-.999 0-.494.258-.89.907-1.37 1.164-.86 3.363-1.58 5.938-1.946.623-.088.979-.124 2.292-.232.602-.052 4.187.015 4.867.093ZM4.777 8.959c1.287.824 3.224 1.457 5.536 1.807 2.843.433 6.53.433 9.374 0 2.673-.406 4.861-1.2 6.118-2.22l.216-.174V10.4c0 2.353.006 2.333-.448 2.822-1.179 1.272-4.017 2.173-8.1 2.58-.99.098-4.09.083-5.203-.026-3.795-.37-6.695-1.318-7.843-2.554-.454-.49-.448-.469-.448-2.822V8.37l.221.176c.118.097.381.283.577.412Zm-.113 5.675c1.596 1.092 4.254 1.818 7.71 2.112 1.261.108 3.96.108 5.253 0 3.795-.314 6.556-1.149 8.23-2.483l.165-.133v4.109l-.124.268c-.5 1.066-2.575 2.07-5.465 2.637-1.75.345-3.255.479-5.381.479-3.085.005-5.588-.345-7.777-1.076-1.69-.567-2.823-1.293-3.173-2.04l-.123-.268v-4.11l.17.134a5.9 5.9 0 0 0 .515.371Zm-.505 5.382c.17.19.973.685 1.54.958 1.632.773 3.898 1.298 6.571 1.524 1.056.088 4.404.088 5.46 0 2.1-.18 3.986-.55 5.536-1.091.891-.314 2.137-.979 2.555-1.37.072-.067.144-.124.164-.124.021 0 .037.922.037 2.045v2.05l-.13.278c-.545 1.164-3.264 2.333-6.566 2.806-1.576.227-2.086.258-4.326.258-2.24 0-2.75-.03-4.326-.258-3.301-.473-6.02-1.642-6.567-2.806l-.128-.278v-2.05c0-1.123.02-2.045.04-2.045.026 0 .088.046.14.103Z" fill="#2521E7"/></symbol><symbol fill="none" viewBox="0 0 30 30" id="sCase-icon-4" xmlns="http://www.w3.org/2000/svg"><path d="M5.455 4.388v2.388H4.2c-1.22 0-1.27.005-1.52.122-.274.127-.472.345-.604.655C2.01 7.716 2 8.84 2 17.404c.005 7.835.015 9.705.071 9.857.102.274.28.478.559.625l.254.127h9.882c6.945 0 9.948-.015 10.085-.056.112-.03.295-.147.422-.264.218-.213.228-.239 2.484-6.432 2.114-5.802 2.266-6.24 2.24-6.468-.04-.325-.223-.686-.441-.859-.24-.193-.564-.248-1.428-.248h-.706v-1.387c0-1.545-.036-1.779-.31-2.089-.295-.335-.478-.386-1.433-.386h-.848V8.783l-3.394-3.394L16.048 2H5.455v2.388Zm9.999 1.737.01 3.242 3.241.01 3.237.015.015 2.144.01 2.15h-7.21c-4.887 0-7.295.015-7.463.055-.345.072-.65.34-.828.732l-.142.305-.005-5.96V2.864l4.562.01 4.557.015.016 3.236Zm3.388-.111 2.49 2.49h-5.005v-2.49c0-1.372.005-2.49.016-2.49.005 0 1.133 1.118 2.5 2.49ZM5.455 12.436v4.796l-1.275 3.47a310.184 310.184 0 0 1-1.296 3.495c-.01.01-.02-3.663-.02-8.164 0-8.124 0-8.19.101-8.292.097-.096.168-.101 1.296-.101h1.194v4.796Zm18.981-1.677c.092.071.097.157.112 1.499l.015 1.428h-1.732v-2.998h.752c.569 0 .777.015.853.071Zm2.546 3.83c.03.021.086.102.111.179.051.127-.188.807-2.134 6.147-1.204 3.303-2.22 6.056-2.26 6.117l-.072.117h-9.8c-9.664 0-9.796 0-9.887-.101a.224.224 0 0 1-.056-.214c.015-.066 1.021-2.825 2.23-6.137 1.916-5.243 2.216-6.026 2.322-6.082.102-.05 2.165-.066 9.806-.066 5.325 0 9.704.02 9.74.04Z" fill="#2521E7"/><path d="M8.756 5.52c-.274.138-.32.479-.101.697.096.097.178.102 2.438.102h2.343l.122-.127c.223-.219.147-.57-.148-.686-.213-.082-4.491-.066-4.654.015Zm-.105 3.13c-.086.092-.147.204-.147.285 0 .081.06.193.147.285l.148.147h4.638l.122-.127a.483.483 0 0 0 .097-.508c-.087-.219-.199-.229-2.586-.229H8.799l-.148.148Zm.014 3.003c-.234.219-.188.554.091.696.188.097 10.588.092 10.771 0a.423.423 0 0 0 .092-.696c-.112-.101-.158-.101-5.477-.101-5.32 0-5.365 0-5.477.101Z" fill="#2521E7"/></symbol><symbol fill="none" viewBox="0 0 15 13" id="telegram" xmlns="http://www.w3.org/2000/svg"><path d="M13.678.073.303 5.463c-.435.147-.386.784.048.932l3.38 1.078 1.352 4.312a.463.463 0 0 0 .773.196l1.98-1.862 3.765 2.793c.29.196.676.05.773-.294L14.981 1.25c.145-.833-.58-1.47-1.303-1.176ZM5.856 8.306l-.435 2.548-.966-3.528 9.416-6.273-8.015 7.253Z" fill="#40B3E0"/></symbol><symbol fill="none" viewBox="0 0 22 22" id="telegram2" xmlns="http://www.w3.org/2000/svg"><g clip-path="url(#ta)"><path d="M11 0a10.999 10.999 0 0 0-7.777 18.778A10.998 10.998 0 1 0 18.777 3.222 10.998 10.998 0 0 0 11 0Z" fill="#2AABEE"/><path d="M4.98 10.884a534.595 534.595 0 0 1 6.414-2.763c3.056-1.27 3.69-1.492 4.104-1.5.091 0 .294.022.426.129.11.09.141.212.157.298.013.085.032.28.017.433-.165 1.74-.882 5.96-1.246 7.908-.153.825-.457 1.101-.751 1.128-.64.059-1.124-.422-1.743-.828-.968-.634-1.514-1.03-2.455-1.649-1.086-.715-.381-1.109.238-1.751.161-.169 2.976-2.729 3.03-2.961.007-.03.014-.137-.052-.194-.063-.058-.158-.038-.227-.023-.098.022-1.643 1.045-4.64 3.067-.439.302-.836.449-1.193.44-.392-.008-1.148-.221-1.71-.404-.688-.224-1.236-.342-1.188-.723.024-.197.297-.4.818-.607Z" fill="#fff"/></g><defs><clipPath id="ta"><path fill="#fff" d="M0 0h22v22H0z"/></clipPath></defs></symbol><symbol fill="none" viewBox="0 0 16 16" id="viber" xmlns="http://www.w3.org/2000/svg"><path d="M8 1.335c-1.071.013-3.374.19-4.662 1.37-.958.948-1.292 2.35-1.331 4.084-.033 1.728-.072 4.973 3.058 5.856v1.346s-.02.538.337.648c.438.14.688-.275 1.105-.72l.778-.879c2.142.178 3.782-.232 3.97-.293.435-.139 2.883-.451 3.283-3.696.41-3.351-.2-5.463-1.301-6.418h-.007c-.332-.306-1.668-1.279-4.652-1.29 0 0-.222-.014-.578-.008Zm.037.942a7.02 7.02 0 0 1 .488.011c2.527.007 3.732.767 4.017 1.023.927.794 1.405 2.697 1.055 5.495-.332 2.713-2.317 2.885-2.685 3.002-.156.05-1.6.406-3.42.289 0 0-1.356 1.634-1.78 2.055-.067.074-.146.095-.196.085-.071-.018-.093-.107-.089-.229l.013-2.233c-2.655-.733-2.498-3.5-2.47-4.946.033-1.446.304-2.628 1.113-3.43 1.088-.982 3.043-1.115 3.953-1.122Zm.2 1.446a.166.166 0 1 0 0 .332 3.136 3.136 0 0 1 2.242.883c.606.588.9 1.378.912 2.411 0 .092.074.167.167.167V7.51a.167.167 0 0 0 .168-.165 3.588 3.588 0 0 0-1.009-2.646c-.66-.645-1.496-.977-2.48-.977Zm-2.198.382a.523.523 0 0 0-.342.067H5.69a2.61 2.61 0 0 0-.637.523 1.003 1.003 0 0 0-.256.525.71.71 0 0 0 .026.302l.01.006c.172.504.396.988.67 1.444a8.48 8.48 0 0 0 1.29 1.762l.015.022.024.017.015.018.017.015c.532.505 1.127.94 1.769 1.295.734.4 1.18.588 1.447.667v.004c.078.024.15.034.221.034.228-.016.444-.109.613-.262a2.53 2.53 0 0 0 .517-.638v-.004c.128-.241.085-.469-.1-.623-.37-.323-.77-.61-1.195-.857-.285-.155-.574-.061-.69.095l-.25.315c-.129.156-.361.134-.361.134l-.007.004C7.093 8.527 6.63 6.772 6.63 6.772s-.022-.239.139-.36l.312-.252c.15-.122.254-.41.094-.695a7.498 7.498 0 0 0-.856-1.194.475.475 0 0 0-.28-.167Zm2.486.495c-.221 0-.221.334.003.334A2.098 2.098 0 0 1 10 5.572 1.94 1.94 0 0 1 10.5 7a.168.168 0 0 0 .167.165l.007.009a.169.169 0 0 0 .167-.167c.015-.662-.191-1.218-.595-1.663C9.84 4.9 9.273 4.65 8.549 4.6h-.024Zm.274.898c-.228-.006-.236.335-.01.341.55.029.816.306.851.877a.166.166 0 0 0 .165.163h.007a.168.168 0 0 0 .16-.178c-.039-.744-.445-1.164-1.166-1.202H8.8Z" fill="#000"/></symbol><symbol fill="none" viewBox="0 0 24 24" id="vk" xmlns="http://www.w3.org/2000/svg"><path d="M21.579 6.855c.14-.465 0-.806-.662-.806h-2.193c-.558 0-.813.295-.953.619 0 0-1.115 2.719-2.695 4.482-.51.513-.743.675-1.021.675-.139 0-.341-.162-.341-.627V6.855c0-.558-.161-.806-.626-.806H9.642c-.348 0-.558.258-.558.504 0 .528.79.65.871 2.138v3.228c0 .707-.127.836-.407.836-.743 0-2.551-2.73-3.624-5.853-.209-.607-.42-.852-.98-.852H2.752c-.627 0-.752.295-.752.619 0 .582.743 3.462 3.461 7.27 1.812 2.602 4.363 4.012 6.687 4.012 1.393 0 1.565-.313 1.565-.853v-1.966c0-.626.133-.752.574-.752.324 0 .882.164 2.183 1.417 1.486 1.486 1.732 2.153 2.567 2.153h2.192c.626 0 .939-.313.759-.931-.197-.615-.907-1.51-1.849-2.57-.512-.603-1.277-1.253-1.51-1.578-.325-.42-.231-.604 0-.976.001 0 2.672-3.761 2.95-5.04Z" fill="#000"/></symbol><symbol fill="none" viewBox="0 0 16 16" id="wa" xmlns="http://www.w3.org/2000/svg"><path d="M1.299 7.94c0 1.176.309 2.324.898 3.337l-.955 3.459 3.568-.929a6.768 6.768 0 0 0 3.215.813h.003c3.709 0 6.728-2.995 6.73-6.675 0-1.784-.7-3.46-1.97-4.722a6.713 6.713 0 0 0-4.76-1.958c-3.71 0-6.728 2.994-6.73 6.675" fill="url(#wa)"/><path d="M6.287 5.047c-.13-.288-.268-.294-.392-.3-.101-.003-.218-.003-.334-.003a.642.642 0 0 0-.464.216c-.16.173-.61.591-.61 1.441 0 .85.624 1.672.711 1.788.088.115 1.205 1.916 2.976 2.608 1.471.576 1.77.462 2.09.433.32-.029 1.03-.418 1.175-.822.146-.403.146-.75.102-.821-.043-.072-.16-.116-.334-.202-.174-.086-1.03-.505-1.19-.562-.16-.058-.276-.087-.392.086-.116.173-.45.562-.551.678-.102.115-.203.13-.378.043-.174-.087-.735-.269-1.4-.858a5.212 5.212 0 0 1-.97-1.196c-.1-.173-.01-.267.077-.353.078-.077.174-.202.262-.303.086-.1.115-.173.173-.288.059-.115.03-.216-.014-.303-.044-.086-.382-.94-.537-1.282Z" fill="#fff"/><defs><linearGradient id="wa" x1="676.997" y1="1348.33" x2="676.997" y2="1.265" gradientUnits="userSpaceOnUse"><stop stop-color="#1FAF38"/><stop offset="1" stop-color="#60D669"/></linearGradient></defs></symbol><symbol fill="none" viewBox="0 0 16 16" id="wa2" xmlns="http://www.w3.org/2000/svg"><path d="M.82 7.935c0 1.264.332 2.499.963 3.587L.76 15.241l3.822-.998a7.233 7.233 0 0 0 3.445.873h.003c3.974 0 7.209-3.219 7.21-7.175a7.113 7.113 0 0 0-2.11-5.077A7.18 7.18 0 0 0 8.03.76C4.056.76.822 3.979.82 7.935" fill="#60D669"/><path d="M6.165 4.825c-.14-.309-.287-.315-.42-.32-.11-.005-.234-.005-.358-.005a.687.687 0 0 0-.497.232c-.172.186-.654.636-.654 1.55s.67 1.797.762 1.921c.094.124 1.291 2.06 3.188 2.805 1.576.618 1.897.495 2.24.464.342-.03 1.104-.45 1.259-.883.156-.434.156-.805.109-.883-.047-.078-.171-.124-.358-.217-.187-.093-1.104-.542-1.275-.604-.171-.062-.295-.093-.42.093a10.87 10.87 0 0 1-.59.728c-.11.124-.218.14-.405.047-.187-.094-.788-.29-1.5-.922a5.6 5.6 0 0 1-1.039-1.287c-.109-.186-.012-.286.082-.379.084-.083.187-.217.28-.325.093-.109.124-.186.186-.31.063-.124.032-.233-.015-.326s-.41-1.011-.575-1.379Z" fill="#fff"/></symbol><symbol fill="none" viewBox="0 0 16 16" id="whatsapp" xmlns="http://www.w3.org/2000/svg"><path fill-rule="evenodd" clip-rule="evenodd" d="M12.269 3.755A5.947 5.947 0 0 0 8.035 2 5.994 5.994 0 0 0 2.05 7.985a5.98 5.98 0 0 0 .799 2.992L2 14.077l3.173-.832c.877.477 1.86.728 2.86.728h.002a5.993 5.993 0 0 0 5.533-8.276 5.953 5.953 0 0 0-1.3-1.942Zm-4.234 9.208h-.002c-.89 0-1.765-.24-2.532-.694l-.181-.108-1.883.494.502-1.835-.118-.188a4.965 4.965 0 0 1-.76-2.647 4.982 4.982 0 0 1 6.88-4.597c.604.25 1.152.618 1.613 1.081a4.946 4.946 0 0 1 1.455 3.52 4.982 4.982 0 0 1-4.974 4.974Zm2.729-3.726c-.15-.075-.885-.436-1.022-.486-.137-.05-.236-.075-.336.074-.1.15-.387.486-.474.586-.087.1-.175.112-.324.038-.15-.075-.631-.233-1.203-.742a4.505 4.505 0 0 1-.832-1.036c-.087-.15-.009-.231.066-.306.068-.066.15-.174.224-.262.075-.087.1-.149.15-.249.05-.1.025-.187-.013-.262-.037-.075-.337-.811-.461-1.11-.121-.29-.244-.252-.336-.256a6.418 6.418 0 0 0-.286-.005.55.55 0 0 0-.4.186c-.137.15-.523.512-.523 1.248s.536 1.447.61 1.547c.075.1 1.055 1.61 2.555 2.258.358.154.636.246.853.315.358.114.684.098.942.06.287-.043.885-.362 1.01-.711.124-.35.124-.649.087-.711-.038-.063-.138-.101-.287-.176Z" fill="#000"/></symbol></svg>