<?xml version="1.0" encoding="utf-8"?><svg xmlns="http://www.w3.org/2000/svg" xmlns:xlink="http://www.w3.org/1999/xlink"><symbol viewBox="0 0 22 24" id="basket" xmlns="http://www.w3.org/2000/svg"><g clip-path="url(#aa)"><path d="M10.363 18.443a2.046 2.046 0 0 0-2.045 2.042 2.046 2.046 0 0 0 4.09 0 2.046 2.046 0 0 0-2.045-2.042Zm6.134 0a2.046 2.046 0 0 0-2.045 2.042 2.046 2.046 0 0 0 4.089 0 2.046 2.046 0 0 0-2.044-2.042Zm3.978-8.199L7.413 6.891a.614.614 0 0 0-.75.73L8.67 16.4h-.786L5.482 5.895a.613.613 0 0 0-.474-.464l-4.27-.882A.614.614 0 0 0 .489 5.75l3.885.802L6.797 17.15a.613.613 0 0 0 .598.477h12.07a.615.615 0 0 0 .607-.53l.858-6.175a.613.613 0 0 0-.455-.678Zm-8.14 3.91a.613.613 0 0 1-1.227 0v-2.696a.613.613 0 0 1 1.227 0v2.696Zm2.625 0a.613.613 0 0 1-1.227 0v-1.88a.613.613 0 0 1 1.227 0v1.88Zm2.625 0a.613.613 0 0 1-1.227 0v-1.226a.613.613 0 0 1 1.227 0v1.226Z"/></g><path fill-rule="evenodd" clip-rule="evenodd" d="M16.268 4.568a2.996 2.996 0 0 0-1.693-.523c-.627 0-1.21.193-1.693.523-.28-.843-.492-1.752-.492-2.383C12.39.98 13.37 0 14.575 0s2.185.98 2.185 2.185c0 .631-.212 1.54-.492 2.383Zm-4.722 2.274.024.006v-.011l-.024.005Zm4.972 1.217c-1.333-.33-2.766-.681-4.129-1.013a2.185 2.185 0 1 1 4.129 1.013Zm4.436 1.103c-.866-.217-2.155-.538-3.618-.9a2.995 2.995 0 0 0 .243-1.425c.87.18 1.762.45 2.308.765.596.344.969.928 1.067 1.56ZM9.869 6.439c-.36-.086-.706-.167-1.03-.243a2.19 2.19 0 0 1-.376-2.667 2.188 2.188 0 0 1 3.147-.7c.098.738.338 1.599.61 2.353a3.01 3.01 0 0 0-.449.774c-.628.113-1.305.278-1.902.483Zm10.124.075a3.43 3.43 0 0 1-.217.114c-.696-.295-1.587-.526-2.397-.672a3.01 3.01 0 0 0-.449-.774c.262-.727.494-1.553.599-2.273.095-.067.189-.128.278-.18a2.188 2.188 0 0 1 2.986.8 2.188 2.188 0 0 1-.8 2.985Z"/><defs><clipPath id="aa"><path transform="translate(0 3.064)" d="M0 0h20.936v20.936H0z"/></clipPath></defs></symbol><symbol viewBox="0 0 12 11" id="calendar" xmlns="http://www.w3.org/2000/svg"><path d="M10.01 1.277H8.631V.985a.502.502 0 0 0-.504-.504.502.502 0 0 0-.504.504v.292h-3.26V.985A.502.502 0 0 0 3.86.481a.502.502 0 0 0-.504.504v.292H1.99c-.717 0-1.31.582-1.31 1.31v6.82c0 .718.582 1.311 1.31 1.311h8.03c.717 0 1.31-.582 1.31-1.31V2.587a1.322 1.322 0 0 0-1.32-1.31ZM1.99 2.285h1.378v.29c0 .28.224.505.504.505s.504-.224.504-.504v-.291h3.259v.29c0 .28.224.505.504.505s.504-.224.504-.504v-.291h1.377c.168 0 .303.134.303.302V3.92H1.688V2.587a.3.3 0 0 1 .302-.302Zm8.02 7.425H1.99a.301.301 0 0 1-.302-.302V4.917h8.635v4.49a.318.318 0 0 1-.314.303Z"/></symbol><symbol viewBox="0 0 344.96 344.96" id="check" xmlns="http://www.w3.org/2000/svg"><g data-name="Слой 2"><path class="ccls-1" d="m321.85 86.24-40-23.11-23.1-40H212.5L172.48 0l-40 23.11H86.24l-23.11 40-40 23.1v46.21L0 172.48l23.11 40v46.21l40 23.11 23.11 40h46.21l40 23.1 40-23.11h46.21l23.11-40 40-23.11V212.5l23.11-40-23.11-40V86.24ZM156.91 243.07a16.79 16.79 0 0 1-23.34 0l-50.45-50.44a16.19 16.19 0 0 1 0-22.89l13.35-13.35a16.19 16.19 0 0 1 22.89 0l25.87 25.87 80.34-80.35a16.19 16.19 0 0 1 22.89 0l13.35 13.35a16.19 16.19 0 0 1 0 22.89Z" data-name="Capa 1"/></g></symbol><symbol viewBox="0 0 9 14" id="chevron-left" xmlns="http://www.w3.org/2000/svg"><path d="m6.99 13.136 1.42-1.431L3.746 7l4.662-4.705L6.99.864.91 7l6.08 6.136Z"/></symbol><symbol viewBox="0 0 9 14" id="chevron-right" xmlns="http://www.w3.org/2000/svg"><path d="M2.009.837.59 2.268l4.662 4.705L.59 11.678l1.419 1.431L8.09 6.973 2.009.837Z"/></symbol><symbol viewBox="0 0 14 14" id="fb" xmlns="http://www.w3.org/2000/svg"><g clip-path="url(#fa)"><path d="M10.374.253 8.624.25c-1.967 0-3.238 1.304-3.238 3.322v1.532h-1.76a.275.275 0 0 0-.275.276v2.219c0 .152.123.275.275.275h1.76v5.6c0 .153.123.276.275.276h2.297a.275.275 0 0 0 .275-.275v-5.6h2.058a.275.275 0 0 0 .275-.276l.001-2.22a.276.276 0 0 0-.275-.275H8.233V3.806c0-.625.149-.941.962-.941h1.18a.275.275 0 0 0 .274-.276V.529a.275.275 0 0 0-.275-.276Z"/></g><defs><clipPath id="fa"><path transform="translate(.25 .25)" d="M0 0h13.5v13.5H0z"/></clipPath></defs></symbol><symbol viewBox="0 0 24 24" id="instagram" xmlns="http://www.w3.org/2000/svg"><path d="M11.999 7.377a4.624 4.624 0 1 0 0 9.248 4.624 4.624 0 0 0 0-9.248Zm0 7.627a3.004 3.004 0 1 1 0-6.008 3.004 3.004 0 0 1 0 6.008Zm4.807-6.719a1.078 1.078 0 1 0 0-2.156 1.078 1.078 0 0 0 0 2.156Z"/><path d="M20.533 6.11A4.605 4.605 0 0 0 17.9 3.48a6.607 6.607 0 0 0-2.186-.42c-.963-.042-1.268-.054-3.71-.054s-2.755 0-3.71.054a6.554 6.554 0 0 0-2.184.42 4.6 4.6 0 0 0-2.633 2.63 6.585 6.585 0 0 0-.419 2.186c-.043.962-.056 1.267-.056 3.71 0 2.442 0 2.753.056 3.71.015.748.156 1.486.419 2.187a4.61 4.61 0 0 0 2.634 2.632 6.583 6.583 0 0 0 2.185.45c.963.042 1.268.055 3.71.055s2.755 0 3.71-.055a6.616 6.616 0 0 0 2.186-.42 4.613 4.613 0 0 0 2.633-2.632c.263-.7.404-1.438.419-2.186.043-.962.056-1.267.056-3.71s0-2.753-.056-3.71a6.583 6.583 0 0 0-.421-2.217Zm-1.218 9.533a5.046 5.046 0 0 1-.311 1.688 2.987 2.987 0 0 1-1.712 1.71c-.535.2-1.1.305-1.67.312-.95.044-1.218.055-3.654.055-2.438 0-2.687 0-3.655-.055a4.961 4.961 0 0 1-1.67-.311 2.984 2.984 0 0 1-1.718-1.711 5.08 5.08 0 0 1-.311-1.67c-.043-.95-.053-1.217-.053-3.653 0-2.437 0-2.686.053-3.655a5.038 5.038 0 0 1 .311-1.687c.305-.79.93-1.41 1.719-1.712a5.01 5.01 0 0 1 1.669-.311c.95-.043 1.218-.055 3.655-.055s2.687 0 3.654.055a4.96 4.96 0 0 1 1.67.31 2.99 2.99 0 0 1 1.712 1.713 5.06 5.06 0 0 1 .311 1.669c.043.95.054 1.218.054 3.655 0 2.436 0 2.698-.043 3.654h-.011v-.001Z"/></symbol><symbol viewBox="0 0 24 27" id="person" xmlns="http://www.w3.org/2000/svg"><path d="M22.667 26.664H24c0-5.162-2.933-6.713-5.293-7.96-1.819-.962-3.27-1.728-3.368-3.861a10.21 10.21 0 0 0 1.321-3.066c1.305-1.467 1.345-2.903.908-3.853.677-3.677-.69-5.613-1.973-6.595A7.488 7.488 0 0 0 8.367.614L8 .798v.769A3.478 3.478 0 0 0 6.547 3.3a6.937 6.937 0 0 0-.151 4.698c-.395.918-.344 2.333.944 3.782a10.21 10.21 0 0 0 1.321 3.066c-.098 2.134-1.549 2.9-3.368 3.862C2.933 19.95 0 21.502 0 26.664h1.333c0-3.996 1.872-5.317 4-6.467v2.593a2 2 0 1 0 1.334 0v-3.306c.297-.165.588-.334.866-.521l3.4 6.368h2.133l3.4-6.372c.282.184.572.356.867.521v2.815c-1.415.919-2.667 2.913-2.667 4.37H16c0-.979.995-2.541 2-3.227 1.004.686 2 2.248 2 3.226h1.333c0-1.456-1.251-3.45-2.667-4.37v-2.096c2.128 1.149 4 2.47 4 6.466ZM6 25.331a.667.667 0 1 1 0-1.333.667.667 0 0 1 0 1.333Zm6.267-1.333h-.534L8.6 18.12a4.61 4.61 0 0 0 1.4-3.515v-.266l-.183-.194c-.584-.869-1-1.84-1.228-2.862l-.042-.168-.118-.126c-1.054-1.12-1.054-2.106-.734-2.61l.197-.311-.157-.333a5.453 5.453 0 0 1 .041-3.913 2.038 2.038 0 0 1 1.103-1.196l.454-.15v-.829a6.2 6.2 0 0 1 5.452.74c1.466 1.121 1.946 2.973 1.43 5.504l-.051.253.133.222c.327.545.308 1.522-.726 2.625l-.117.126-.043.167a8.407 8.407 0 0 1-1.228 2.863l-.182.193v.267a4.61 4.61 0 0 0 1.4 3.514l-3.134 5.876Z"/></symbol><symbol viewBox="0 0 31 31" id="phone" xmlns="http://www.w3.org/2000/svg"><path d="M24.39 30.791a4.706 4.706 0 0 1-2.1-.364 39.55 39.55 0 0 1-6.96-3.622 37.705 37.705 0 0 1-3.972-3.001 37.474 37.474 0 0 1-5.441-5.852 42.805 42.805 0 0 1-4.413-7.267 5.14 5.14 0 0 1-.513-2.24 5.205 5.205 0 0 1 1.2-3.407c.815-.99 1.634-1.975 2.456-2.956.7-.866 1.735-1.338 2.806-1.28a3.311 3.311 0 0 1 2.165.96l3.646 3.436a3.78 3.78 0 0 1 1.086 1.878c.062.244.097.494.104.746a3.85 3.85 0 0 1-.9 2.707l-2.757 3.302a16.8 16.8 0 0 0 1.161 1.92 15.289 15.289 0 0 0 2.548 2.844 15.378 15.378 0 0 0 3.9 2.444l2.754-3.315a3.44 3.44 0 0 1 2.285-1.278 3.346 3.346 0 0 1 2.488.738c.105.083.2.172.3.265l3.524 3.337c.449.412.794.937 1.005 1.526a3.955 3.955 0 0 1-.108 2.918 3.634 3.634 0 0 1-.564.89l-.665.819c-.627.755-1.251 1.513-1.887 2.258a4.507 4.507 0 0 1-2.547 1.51 4.47 4.47 0 0 1-.6.084ZM7.183 3.046c-.379.02-.731.21-.97.524-.82.98-1.634 1.96-2.444 2.944a2.91 2.91 0 0 0-.678 1.932c.007.424.11.84.3 1.213a40.738 40.738 0 0 0 4.158 6.895 35.315 35.315 0 0 0 5.123 5.522 35.421 35.421 0 0 0 3.754 2.825 37.456 37.456 0 0 0 6.6 3.436c.49.22 1.028.283 1.55.183a2.456 2.456 0 0 0 1.407-.822c.63-.74 1.249-1.488 1.866-2.24l.681-.822a1.48 1.48 0 0 0 .223-.349c.173-.376.19-.813.044-1.203a1.578 1.578 0 0 0-.428-.64l-3.516-3.308a2.17 2.17 0 0 0-.168-.154c-.348-.3-.81-.399-1.24-.265a1.372 1.372 0 0 0-.716.493l-3.139 3.794c-.159.201-.374.343-.614.405s-.492.041-.72-.06a1.754 1.754 0 0 0-.177-.067l-.229-.093a17.36 17.36 0 0 1-4.643-2.879 17.21 17.21 0 0 1-2.916-3.225 18.488 18.488 0 0 1-1.632-2.815 1.318 1.318 0 0 1 .177-1.424l3.144-3.798a1.588 1.588 0 0 0 .345-1.404 1.526 1.526 0 0 0-.45-.775L8.239 3.433a1.32 1.32 0 0 0-1.056-.387Z"/></symbol><symbol viewBox="0 0 24 24" id="tel-solid" xmlns="http://www.w3.org/2000/svg"><path fill-rule="evenodd" clip-rule="evenodd" d="M21.046 17.778c-.642-.808-1.684-1.98-2.577-2.09-.543-.068-1.167.382-1.782.806-.12.06-1.047.612-1.16.645-.593.17-1.86.22-2.627-.48-.738-.675-1.905-1.924-2.847-3.069-.9-1.179-1.844-2.596-2.327-3.466-.504-.902-.14-2.094.171-2.62.057-.094.747-.803.902-.968l.022.027c.572-.48 1.17-.968 1.238-1.496.11-.879-.788-2.158-1.43-2.968C7.987 1.287 6.993-.133 5.64.068c-.51.075-.95.253-1.384.51L4.243.564a2.76 2.76 0 0 0-.072.056l-.037.02.004.005c-.249.192-.96.723-1.04.795-.88.782-2.203 2.622-1.18 5.933.76 2.46 2.378 5.349 4.583 8.27l-.012.011c.108.141.219.269.331.405.105.14.209.278.317.416l.015-.01c2.34 2.818 4.794 5.07 7.033 6.4 3.015 1.788 5.159.982 6.149.342.093-.062.8-.612 1.04-.794l.007.006c.009-.009.015-.02.027-.03l.064-.05-.009-.011c.363-.351.654-.726.855-1.199.527-1.243-.63-2.54-1.272-3.35Z"/></symbol><symbol viewBox="0 0 16 16" id="telegram" xmlns="http://www.w3.org/2000/svg"><path d="m14.629 3.698-2.012 9.618c-.152.679-.548.848-1.11.528l-3.066-2.29-1.48 1.442c-.163.166-.3.305-.616.305l.22-3.165 5.683-5.204c.247-.223-.054-.347-.384-.123L4.839 9.29l-3.024-.959c-.658-.208-.67-.667.137-.986L13.78 2.727c.548-.208 1.027.124.849.971Z"/></symbol><symbol viewBox="0 0 14 14" id="time" xmlns="http://www.w3.org/2000/svg"><path d="M12.92 5.633h-3.5a.11.11 0 0 0-.11.11v.655c0 .06.05.11.11.11h3.5c.06 0 .11-.05.11-.11v-.656a.11.11 0 0 0-.11-.11Zm-1.832 1.86H9.42a.11.11 0 0 0-.11.109v.656c0 .06.05.11.11.11h1.668c.06 0 .11-.05.11-.11v-.656a.11.11 0 0 0-.11-.11ZM6.526 4.408h-.592a.153.153 0 0 0-.153.153v3.39c0 .05.023.095.062.124L7.88 9.561a.153.153 0 0 0 .213-.033l.352-.48v-.001a.153.153 0 0 0-.034-.214L6.677 7.581V4.562a.152.152 0 0 0-.151-.153Z"/><path d="M11.003 9.213h-.79a.225.225 0 0 0-.19.106 4.39 4.39 0 0 1-1.993 1.695 4.333 4.333 0 0 1-1.696.342 4.323 4.323 0 0 1-3.08-1.276A4.336 4.336 0 0 1 1.978 7a4.327 4.327 0 0 1 1.276-3.08 4.336 4.336 0 0 1 3.08-1.276 4.336 4.336 0 0 1 3.08 1.276c.233.232.435.486.609.761a.225.225 0 0 0 .19.106h.79a.125.125 0 0 0 .112-.182 5.347 5.347 0 0 0-4.717-2.95C3.444 1.62.99 4.038.984 6.99a5.348 5.348 0 0 0 5.349 5.357 5.348 5.348 0 0 0 4.782-2.95.125.125 0 0 0-.112-.183Z"/></symbol><symbol viewBox="0 0 16 16" id="viber" xmlns="http://www.w3.org/2000/svg"><path d="M8 1.335c-1.071.013-3.374.19-4.662 1.37-.958.948-1.292 2.35-1.331 4.084-.033 1.728-.072 4.973 3.058 5.856v1.346s-.02.538.337.648c.438.14.688-.275 1.105-.72l.778-.879c2.142.178 3.782-.232 3.97-.293.435-.139 2.883-.451 3.283-3.696.41-3.351-.2-5.463-1.301-6.418h-.007c-.332-.306-1.668-1.279-4.652-1.29 0 0-.222-.014-.578-.008Zm.037.942a7.02 7.02 0 0 1 .488.011c2.527.007 3.732.767 4.017 1.023.927.794 1.405 2.697 1.055 5.495-.332 2.713-2.317 2.885-2.685 3.002-.156.05-1.6.406-3.42.289 0 0-1.356 1.634-1.78 2.055-.067.074-.146.095-.196.085-.071-.018-.093-.107-.089-.229l.013-2.233c-2.655-.733-2.498-3.5-2.47-4.946.033-1.446.304-2.628 1.113-3.43 1.088-.982 3.043-1.115 3.953-1.122Zm.2 1.446a.166.166 0 1 0 0 .332 3.136 3.136 0 0 1 2.242.883c.606.588.9 1.378.912 2.411 0 .092.074.167.167.167V7.51a.167.167 0 0 0 .168-.165 3.588 3.588 0 0 0-1.009-2.646c-.66-.645-1.496-.977-2.48-.977Zm-2.198.382a.523.523 0 0 0-.342.067H5.69a2.61 2.61 0 0 0-.637.523 1.003 1.003 0 0 0-.256.525.71.71 0 0 0 .026.302l.01.006c.172.504.396.988.67 1.444a8.48 8.48 0 0 0 1.29 1.762l.015.022.024.017.015.018.017.015c.532.505 1.127.94 1.769 1.295.734.4 1.18.588 1.447.667v.004c.078.024.15.034.221.034.228-.016.444-.109.613-.262a2.53 2.53 0 0 0 .517-.638v-.004c.128-.241.085-.469-.1-.623-.37-.323-.77-.61-1.195-.857-.285-.155-.574-.061-.69.095l-.25.315c-.129.156-.361.134-.361.134l-.007.004C7.093 8.527 6.63 6.772 6.63 6.772s-.022-.239.139-.36l.312-.252c.15-.122.254-.41.094-.695a7.498 7.498 0 0 0-.856-1.194.475.475 0 0 0-.28-.167Zm2.486.495c-.221 0-.221.334.003.334A2.098 2.098 0 0 1 10 5.572 1.94 1.94 0 0 1 10.5 7a.168.168 0 0 0 .167.165l.007.009a.169.169 0 0 0 .167-.167c.015-.662-.191-1.218-.595-1.663C9.84 4.9 9.273 4.65 8.549 4.6h-.024Zm.274.898c-.228-.006-.236.335-.01.341.55.029.816.306.851.877a.166.166 0 0 0 .165.163h.007a.168.168 0 0 0 .16-.178c-.039-.744-.445-1.164-1.166-1.202H8.8Z"/></symbol><symbol viewBox="0 0 24 24" id="vk" xmlns="http://www.w3.org/2000/svg"><path d="M21.579 6.855c.14-.465 0-.806-.662-.806h-2.193c-.558 0-.813.295-.953.619 0 0-1.115 2.719-2.695 4.482-.51.513-.743.675-1.021.675-.139 0-.341-.162-.341-.627V6.855c0-.558-.161-.806-.626-.806H9.642c-.348 0-.558.258-.558.504 0 .528.79.65.871 2.138v3.228c0 .707-.127.836-.407.836-.743 0-2.551-2.73-3.624-5.853-.209-.607-.42-.852-.98-.852H2.752c-.627 0-.752.295-.752.619 0 .582.743 3.462 3.461 7.27 1.812 2.602 4.363 4.012 6.687 4.012 1.393 0 1.565-.313 1.565-.853v-1.966c0-.626.133-.752.574-.752.324 0 .882.164 2.183 1.417 1.486 1.486 1.732 2.153 2.567 2.153h2.192c.626 0 .939-.313.759-.931-.197-.615-.907-1.51-1.849-2.57-.512-.603-1.277-1.253-1.51-1.578-.325-.42-.231-.604 0-.976.001 0 2.672-3.761 2.95-5.04Z"/></symbol><symbol viewBox="0 0 16 16" id="whatsapp" xmlns="http://www.w3.org/2000/svg"><path fill-rule="evenodd" clip-rule="evenodd" d="M12.269 3.755A5.947 5.947 0 0 0 8.035 2 5.994 5.994 0 0 0 2.05 7.985a5.98 5.98 0 0 0 .799 2.992L2 14.077l3.173-.832c.877.477 1.86.728 2.86.728h.002a5.993 5.993 0 0 0 5.533-8.276 5.953 5.953 0 0 0-1.3-1.942Zm-4.234 9.208h-.002c-.89 0-1.765-.24-2.532-.694l-.181-.108-1.883.494.502-1.835-.118-.188a4.965 4.965 0 0 1-.76-2.647 4.982 4.982 0 0 1 6.88-4.597c.604.25 1.152.618 1.613 1.081a4.946 4.946 0 0 1 1.455 3.52 4.982 4.982 0 0 1-4.974 4.974Zm2.729-3.726c-.15-.075-.885-.436-1.022-.486-.137-.05-.236-.075-.336.074-.1.15-.387.486-.474.586-.087.1-.175.112-.324.038-.15-.075-.631-.233-1.203-.742a4.505 4.505 0 0 1-.832-1.036c-.087-.15-.009-.231.066-.306.068-.066.15-.174.224-.262.075-.087.1-.149.15-.249.05-.1.025-.187-.013-.262-.037-.075-.337-.811-.461-1.11-.121-.29-.244-.252-.336-.256a6.418 6.418 0 0 0-.286-.005.55.55 0 0 0-.4.186c-.137.15-.523.512-.523 1.248s.536 1.447.61 1.547c.075.1 1.055 1.61 2.555 2.258.358.154.636.246.853.315.358.114.684.098.942.06.287-.043.885-.362 1.01-.711.124-.35.124-.649.087-.711-.038-.063-.138-.101-.287-.176Z"/></symbol></svg>