<svg width="50" height="50" viewBox="0 0 50 50" fill="none" xmlns="http://www.w3.org/2000/svg">
<path d="M38.3336 41.6485H40.0002C40.0002 35.196 36.3336 33.2571 33.3844 31.6985C31.1101 30.496 29.2967 29.5378 29.1734 26.8718V26.8721C29.9307 25.6935 30.4887 24.3986 30.8252 23.0387C32.4561 21.2052 32.506 19.4103 31.9603 18.2228C32.806 13.6271 31.097 11.2069 29.4935 9.97923C26.8378 8.14301 23.4235 7.80509 20.4592 9.08494L20 9.31514V10.2766C19.1702 10.7764 18.5312 11.5389 18.1841 12.4435C17.4397 14.3191 17.373 16.3955 17.9949 18.3151C17.5008 19.4636 17.565 21.2317 19.1749 23.0426C19.5114 24.4022 20.0694 25.6974 20.8267 26.876C20.7034 29.5426 18.8901 30.5001 16.6158 31.7027C13.6666 33.2569 10 35.196 10 41.6484H11.6666C11.6666 36.6526 14.0067 35.0016 16.6666 33.5649V36.8059C15.9194 37.0702 15.3415 37.6731 15.1094 38.4312C14.8775 39.1893 15.0187 40.0124 15.4902 40.6497C15.9615 41.287 16.7073 41.6628 17.5 41.6628C18.2927 41.6628 19.0385 41.287 19.5098 40.6497C19.9813 40.0124 20.1225 39.1894 19.8906 38.4312C19.6585 37.6731 19.0806 37.0701 18.3334 36.8059V32.6726C18.7051 32.4667 19.0684 32.256 19.4169 32.0216L23.6666 39.9816H26.3331L30.5831 32.0173C30.9347 32.2472 31.2983 32.4624 31.6666 32.6683V36.1867C29.8973 37.3351 28.3331 39.8276 28.3331 41.6485H29.9997C29.9997 40.4261 31.2439 38.4727 32.4997 37.6153C33.7556 38.4727 34.9997 40.4261 34.9997 41.6485H36.6663C36.6663 39.8276 35.1021 37.3351 33.3329 36.1867L33.3334 33.5651C35.9933 35.0017 38.3334 36.6524 38.3334 41.6479L38.3336 41.6485ZM17.5 39.982C17.163 39.982 16.8591 39.7788 16.7302 39.4674C16.601 39.1561 16.6725 38.7978 16.9107 38.5592C17.149 38.321 17.5076 38.2498 17.819 38.3787C18.1303 38.5076 18.3335 38.8115 18.3335 39.1485C18.3335 39.3695 18.2456 39.5815 18.0893 39.7378C17.9331 39.894 17.721 39.982 17.5 39.982ZM25.3336 38.3154H24.667L20.7504 30.9697L20.7502 30.9694C21.9352 29.8229 22.5722 28.2236 22.5002 26.576V26.2425L22.2719 26.0009V26.0012C21.5417 24.9144 21.0211 23.7007 20.7368 22.4228L20.6835 22.2127L20.5359 22.0553C19.2192 20.6551 19.2184 19.4228 19.6193 18.7927L19.8651 18.4043L19.6684 17.9878C19.08 16.4071 19.0984 14.6647 19.72 13.0968C19.9522 12.4286 20.4519 11.887 21.0993 11.6018L21.6668 11.4152V10.3786C23.9581 9.6068 26.4781 9.94862 28.4809 11.3027C30.3143 12.7045 30.9142 15.0187 30.27 18.1827L30.205 18.4994L30.3716 18.777C30.7806 19.4587 30.7558 20.6797 29.4642 22.058L29.3174 22.2154L29.2641 22.4247L29.2644 22.4244C28.9801 23.7023 28.4594 24.916 27.7293 26.0028L27.501 26.2444V26.5779V26.5776C27.4291 28.2252 28.0661 29.8245 29.251 30.971L25.3336 38.3154Z" fill="#005F8C"/>
</svg>
