<svg width="50" height="50" viewBox="0 0 50 50" fill="none" xmlns="http://www.w3.org/2000/svg">
<path d="M39.5114 16.6486H10.4879L8.33301 18.8037V39.4937L10.4879 41.6486H39.5114L41.6663 39.4937V18.8037L39.5114 16.6486ZM39.9997 38.8036L38.8214 39.9818H11.1779L9.99957 38.8036V19.4936L11.1779 18.3153H38.8214L39.9997 19.4936V38.8036Z" fill="#005F8C"/>
<path d="M18.3333 13.3157H31.6662V15.8157H33.3327L33.333 9.63739L32.0113 8.31567H17.9877L16.666 9.63739V15.8157H18.3326L18.3333 13.3157ZM18.6782 9.98225H31.3217L31.6666 10.3271V11.6488H18.3338V10.3271L18.6782 9.98225Z" fill="#005F8C"/>
<path d="M27.4996 22.4821H22.4996V26.6486H18.333V31.6486H22.4996V35.8152H27.4996V31.6486H31.6662V26.6486H27.4996V22.4821ZM29.9996 28.3155V29.9821H25.833V34.1486H24.1662V29.9821H19.9996V28.3155H24.1662V24.1486H25.8327V28.3152L29.9996 28.3155Z" fill="#005F8C"/>
</svg>
