<svg width="50" height="50" viewBox="0 0 50 50" fill="none" xmlns="http://www.w3.org/2000/svg">
<path d="M10 15.845V18.6226L10.1666 18.845C12.7639 22.3084 18.4323 24.7691 24.1666 24.9901V31.8651C21.4657 31.1868 19.1666 30.4675 19.1666 29.1784C19.1666 27.6784 21.5 27.5118 22.5 27.5118V25.845C19.3691 25.845 17.5 27.095 17.5 29.1784C17.5 31.7783 20.5142 32.6784 24.1666 33.5827V35.845L17.5 37.7166V40.845H32.5V37.7166L26.0616 35.8773L25.8334 35.8734V33.9917C30.3075 35.1 34.9998 36.5202 34.9998 40.8449H36.6664C36.6664 35.115 30.7898 33.4914 25.8328 32.2749L25.8331 24.9899C31.5672 24.7692 37.236 22.3083 39.8331 18.8449L39.9997 18.6225V15.8448L10 15.845ZM30.8336 38.9735V39.1786H19.1664V38.9735L24.2831 37.512H25.7164L30.8336 38.9735ZM38.3336 18.0571C35.8534 21.1355 30.31 23.3453 25 23.3453C19.69 23.3453 14.1464 21.1355 11.6664 18.0596V17.5122H38.3336V18.0571Z" fill="#005F8C"/>
<path d="M25.0001 13.345V11.6784H21.6544C23.7035 10.6559 25.7551 10.4884 27.2135 11.2686C27.8572 11.6463 28.3818 12.198 28.7272 12.8598C29.0726 13.5216 29.225 14.2674 29.1666 15.0118H30.8335C30.8918 13.9656 30.6577 12.9237 30.1574 12.0029C29.6569 11.0821 28.9099 10.3191 28.0001 9.7992C25.6775 8.5567 22.5152 9.00091 19.5365 10.9851L18.6917 11.5492L20.4882 13.345L25.0001 13.345Z" fill="#005F8C"/>
</svg>
