<svg width="50" height="50" viewBox="0 0 50 50" fill="none" xmlns="http://www.w3.org/2000/svg">
<path d="M41.6199 14.4629C40.9556 13.0045 39.885 11.7679 38.5365 10.9015C37.188 10.0352 35.6185 9.57539 34.0159 9.57703C30.0359 9.57703 27.3016 12.0129 24.9951 14.8421C22.8336 12.2737 19.6869 9.57703 15.9851 9.57703C14.3824 9.57508 12.8133 10.0346 11.4648 10.9007C10.1163 11.7667 9.04571 13.0028 8.38106 14.4612C6.46285 18.558 7.66678 23.6712 11.6852 28.4941C15.0778 32.5633 21.6738 38.4855 23.6145 40.2041L23.8511 40.4134H26.1352L26.3668 40.2208L26.367 40.2206C30.61 36.5858 34.602 32.6677 38.3163 28.4941C42.3339 23.6733 43.5379 18.5599 41.6205 14.4634L41.6199 14.4629ZM37.0365 27.4243C33.4561 31.4483 29.6115 35.23 25.5294 38.7436H24.4825C22.3159 36.8162 16.1582 31.2529 12.9661 27.4243C9.38264 23.121 8.25764 18.6543 9.89021 15.1679H9.89049C10.4223 13.9977 11.28 13.0055 12.3609 12.3096C13.4416 11.6137 14.6999 11.2435 15.9853 11.2437C19.4111 11.2437 22.4203 14.2038 24.3411 16.6862L25.0004 17.5378L25.6603 16.6862C28.187 13.4195 30.5754 11.2437 34.0153 11.2437C35.301 11.2437 36.5596 11.614 37.6405 12.3102C38.7215 13.0063 39.5792 13.9991 40.111 15.1695C41.7427 18.6603 40.6219 23.1224 37.0351 27.4245L37.0365 27.4243Z" fill="#005F8C"/>
<path d="M27.3499 21.2443H25.1275L23.7383 29.5771L21.5324 17.0771H19.3166L17.6501 25.4107H14.1665V27.0773H19.0166L20.3916 20.2023L22.6341 32.9109H24.8724L26.2865 24.4266L26.8166 27.0772H35.8331V25.4106H28.1831L27.3499 21.2443Z" fill="#005F8C"/>
</svg>
