<svg width="16" height="16" viewBox="0 0 16 16" fill="none" xmlns="http://www.w3.org/2000/svg">
<path d="M1.29852 7.93953C1.29819 9.1158 1.60794 10.2643 2.19692 11.2767L1.24219 14.7356L4.80956 13.8074C5.79625 14.3404 6.90176 14.6197 8.02519 14.6198H8.02814C11.7368 14.6198 14.7557 11.6253 14.7573 7.94479C14.758 6.16131 14.0586 4.48424 12.788 3.22251C11.5176 1.96088 9.82807 1.26571 8.02787 1.26489C4.3188 1.26489 1.3001 4.25916 1.29857 7.93953" fill="url(#paint0_linear_142_7)"/>
<path d="M6.28707 5.04653C6.15659 4.75877 6.01927 4.75296 5.89518 4.74792C5.79357 4.74358 5.67741 4.7439 5.56137 4.7439C5.44521 4.7439 5.25648 4.78726 5.09696 4.96009C4.93727 5.13308 4.4873 5.55113 4.4873 6.40138C4.4873 7.25169 5.11145 8.07341 5.19846 8.18882C5.28558 8.30403 6.40339 10.1047 8.17373 10.7974C9.64505 11.3731 9.94446 11.2586 10.2638 11.2298C10.5832 11.201 11.2943 10.8118 11.4394 10.4083C11.5846 10.0048 11.5846 9.65888 11.5411 9.5866C11.4975 9.51459 11.3814 9.47134 11.2072 9.38496C11.033 9.29851 10.1767 8.88041 10.017 8.82273C9.85734 8.7651 9.74124 8.73634 9.62509 8.90939C9.50893 9.08217 9.17539 9.47134 9.07373 9.5866C8.97217 9.70213 8.87051 9.71651 8.69638 9.63006C8.52209 9.54335 7.96116 9.36108 7.29567 8.77237C6.77789 8.31428 6.42833 7.74858 6.32672 7.57554C6.22511 7.40276 6.31584 7.3091 6.40317 7.22299C6.48143 7.14555 6.57741 7.02118 6.66458 6.92031C6.75142 6.81938 6.78041 6.74737 6.83848 6.63211C6.89662 6.51675 6.86752 6.41582 6.82405 6.32938C6.78041 6.24293 6.44195 5.38823 6.28707 5.04653Z" fill="white"/>
<defs>
<linearGradient id="paint0_linear_142_7" x1="676.997" y1="1348.33" x2="676.997" y2="1.26489" gradientUnits="userSpaceOnUse">
<stop stop-color="#1FAF38"/>
<stop offset="1" stop-color="#60D669"/>
</linearGradient>
</defs>
</svg>
