<?xml version="1.0" encoding="utf-8"?><svg xmlns="http://www.w3.org/2000/svg" xmlns:xlink="http://www.w3.org/1999/xlink"><symbol viewBox="0 0 55 8" id="arrow-lg-right" xmlns="http://www.w3.org/2000/svg"><path d="M54.354 4.354a.5.5 0 0 0 0-.708L51.172.464a.5.5 0 1 0-.707.708L53.293 4l-2.828 2.828a.5.5 0 1 0 .707.708l3.182-3.182ZM0 4.5h54v-1H0v1Z"/></symbol><symbol viewBox="0 0 23 16" id="arrow-more" xmlns="http://www.w3.org/2000/svg"><path d="M22.707 8.707a1 1 0 0 0 0-1.414L16.343.929a1 1 0 1 0-1.414 1.414L20.586 8l-5.657 5.657a1 1 0 0 0 1.414 1.414l6.364-6.364ZM0 9h22V7H0v2Z"/></symbol><symbol viewBox="0 0 17 16" id="arrow-right-sm" xmlns="http://www.w3.org/2000/svg"><path d="M16.707 8.707a1 1 0 0 0 0-1.414L10.343.929A1 1 0 1 0 8.93 2.343L14.586 8l-5.657 5.657a1 1 0 0 0 1.414 1.414l6.364-6.364ZM0 9h16V7H0v2Z"/></symbol><symbol viewBox="0 0 7 13" id="chevron-left" xmlns="http://www.w3.org/2000/svg"><path d="M6.5 1 1 6.5 6.5 12"/></symbol><symbol viewBox="0 0 7 13" id="chevron-right" xmlns="http://www.w3.org/2000/svg"><path d="M.5 12 6 6.5.5 1"/></symbol><symbol viewBox="0 0 36 36" id="clock" xmlns="http://www.w3.org/2000/svg"><path d="M18 36a18 18 0 1 1 0-36 18 18 0 0 1 0 36Zm0-33.429a15.429 15.429 0 1 0 0 30.858A15.429 15.429 0 0 0 18 2.57Z"/><path d="m23.902 25.714-7.187-7.187V6.43h2.571v11.03l6.429 6.442-1.813 1.812Z"/></symbol><symbol viewBox="0 0 24 24" id="instagram" xmlns="http://www.w3.org/2000/svg"><path d="M11.999 7.377a4.624 4.624 0 1 0 0 9.248 4.624 4.624 0 0 0 0-9.248Zm0 7.627a3.004 3.004 0 1 1 0-6.008 3.004 3.004 0 0 1 0 6.008Zm4.807-6.719a1.078 1.078 0 1 0 0-2.156 1.078 1.078 0 0 0 0 2.156Z"/><path d="M20.533 6.11A4.605 4.605 0 0 0 17.9 3.48a6.607 6.607 0 0 0-2.186-.42c-.963-.042-1.268-.054-3.71-.054s-2.755 0-3.71.054a6.554 6.554 0 0 0-2.184.42 4.6 4.6 0 0 0-2.633 2.63 6.585 6.585 0 0 0-.419 2.186c-.043.962-.056 1.267-.056 3.71 0 2.442 0 2.753.056 3.71.015.748.156 1.486.419 2.187a4.61 4.61 0 0 0 2.634 2.632 6.583 6.583 0 0 0 2.185.45c.963.042 1.268.055 3.71.055s2.755 0 3.71-.055a6.616 6.616 0 0 0 2.186-.42 4.613 4.613 0 0 0 2.633-2.632c.263-.7.404-1.438.419-2.186.043-.962.056-1.267.056-3.71s0-2.753-.056-3.71a6.583 6.583 0 0 0-.421-2.217Zm-1.218 9.533a5.046 5.046 0 0 1-.311 1.688 2.987 2.987 0 0 1-1.712 1.71c-.535.2-1.1.305-1.67.312-.95.044-1.218.055-3.654.055-2.438 0-2.687 0-3.655-.055a4.961 4.961 0 0 1-1.67-.311 2.984 2.984 0 0 1-1.718-1.711 5.08 5.08 0 0 1-.311-1.67c-.043-.95-.053-1.217-.053-3.653 0-2.437 0-2.686.053-3.655a5.038 5.038 0 0 1 .311-1.687c.305-.79.93-1.41 1.719-1.712a5.01 5.01 0 0 1 1.669-.311c.95-.043 1.218-.055 3.655-.055s2.687 0 3.654.055a4.96 4.96 0 0 1 1.67.31 2.99 2.99 0 0 1 1.712 1.713 5.06 5.06 0 0 1 .311 1.669c.043.95.054 1.218.054 3.655 0 2.436 0 2.698-.043 3.654h-.011v-.001Z"/></symbol><symbol viewBox="0 0 38 38" id="mail" xmlns="http://www.w3.org/2000/svg"><path d="M3.748 4.639c-1.002.222-1.714.608-2.39 1.298C.838 6.457.505 7 .238 7.734l-.2.541v21.45l.2.541c.541 1.485 1.64 2.546 3.102 2.999l.556.17h30.207l.557-.17c1.462-.453 2.56-1.514 3.103-2.999l.2-.541V8.275l-.2-.541c-.535-1.463-1.611-2.509-3.066-2.999l-.52-.17-14.991-.015c-12.343-.008-15.074.007-15.438.089Zm30.704 2.323c.542.267.92.645 1.188 1.195l.17.341.023 10.406c.015 10.353.015 10.405-.134 10.813-.2.535-.697 1.069-1.24 1.344l-.43.222H3.97l-.37-.185c-.55-.267-1.099-.846-1.284-1.358l-.164-.431V19.007c0-11.4-.037-10.598.483-11.303.304-.408.705-.698 1.247-.883.363-.134 1.113-.134 15.23-.119l14.843.015.497.245Z"/><path d="M5.15 8.617c-.541.155-.875.771-.704 1.32.074.26.675.825 4.876 4.572 2.635 2.36 4.78 4.313 4.765 4.342-.015.03-2.145 2.041-4.735 4.468-2.59 2.427-4.758 4.498-4.81 4.617-.312.69.223 1.484 1.002 1.47.178 0 .4-.053.49-.112.09-.06 2.308-2.115 4.936-4.572l4.772-4.468 1.276 1.143c.705.623 1.366 1.202 1.477 1.27.245.162.824.17 1.047.021.089-.059.764-.645 1.499-1.298l1.328-1.195.194.17 4.809 4.557c4.906 4.654 4.846 4.61 5.425 4.498.342-.074.728-.46.787-.802.126-.638.252-.49-4.869-5.35-4.527-4.305-4.742-4.52-4.616-4.64.074-.066 2.212-1.988 4.75-4.26 4.037-3.614 4.631-4.17 4.705-4.43.12-.394-.007-.802-.341-1.099-.223-.193-.327-.23-.66-.23-.297 0-.453.045-.61.163-.17.134-12.015 10.732-12.728 11.393l-.2.178-6.428-5.752c-3.531-3.169-6.5-5.804-6.597-5.863a1.068 1.068 0 0 0-.838-.111Z"/></symbol><symbol viewBox="0 0 38 38" id="phone-call" xmlns="http://www.w3.org/2000/svg"><g clip-path="url(#ia)"><path d="M20.559.134c-.728.363-.794 1.395-.112 1.84.104.067.609.216 1.136.334 1.588.35 2.375.609 3.8 1.255 2.04.927 3.852 2.211 5.537 3.94 2.434 2.502 4.03 5.5 4.772 8.981.2.943.252 1.061.542 1.277.467.341 1.039.312 1.417-.082.342-.356.364-.586.156-1.596C36.323 8.78 30.793 2.74 23.64.601c-.817-.245-2.39-.6-2.65-.6-.096 0-.29.059-.43.133ZM6.227 2.368c-.95.304-1.744.965-3.97 3.325C.66 7.378.23 8.23.081 9.93c-.216 2.42.6 5.484 2.404 9.032.757 1.5 1.099 2.086 2.064 3.525 3.636 5.448 8.409 9.79 14.042 12.788 3.191 1.7 5.893 2.568 8.35 2.694 1.736.097 3.28-.393 4.438-1.395.14-.119.994-.972 1.9-1.907 1.499-1.537 1.67-1.744 1.96-2.316.556-1.113.563-2.115.006-3.258-.304-.616-.378-.698-3.065-3.385-2.605-2.612-2.783-2.775-3.317-3.028-1.136-.534-2.301-.482-3.407.156-.186.112-1.024.876-1.87 1.715l-1.537 1.514-.734-.394c-3.266-1.721-7.556-6.041-9.144-9.203l-.29-.564 1.425-1.44c1.522-1.536 1.893-1.996 2.138-2.694.326-.95.26-1.855-.208-2.813-.245-.49-.497-.764-3.02-3.288-2.873-2.872-3.103-3.065-3.979-3.325-.534-.155-1.484-.148-2.011.023Zm1.662 2.16c.46.215 5.263 5.039 5.463 5.492.386.853.223 1.135-1.811 3.154-.913.898-1.707 1.744-1.781 1.885-.208.416-.119 1.165.222 1.893.958 2.033 2.502 4.082 4.854 6.427 1.937 1.937 3.926 3.429 5.938 4.46.838.439.95.476 1.373.468.29 0 .55-.052.712-.133.141-.075 1.01-.884 1.93-1.79.92-.904 1.781-1.706 1.922-1.78.371-.186 1.024-.127 1.396.133.527.364 5.04 4.966 5.217 5.314.215.43.215.92 0 1.351-.163.312-2.553 2.82-3.377 3.533-1.187 1.039-2.857 1.165-5.603.423-2.004-.542-5.1-2.041-7.645-3.703-5.418-3.548-10.376-9.285-12.884-14.919-1.61-3.621-2.004-6.397-1.158-8.126.148-.312.601-.817 1.907-2.138 1.077-1.098 1.834-1.803 2.041-1.907.416-.223.869-.23 1.284-.038Zm12.313 2.523c-.504.312-.683.98-.386 1.462.208.342.386.43 1.284.653 2.056.505 3.711 1.448 5.114 2.925 1.329 1.387 2.227 3.065 2.62 4.868.156.698.26.935.527 1.143.601.475 1.566.126 1.7-.616.11-.564-.446-2.501-1.091-3.785a12.472 12.472 0 0 0-8.261-6.62c-.898-.215-1.188-.223-1.507-.03Z"/></g><defs><clipPath id="ia"><path d="M0 0h38v38H0z"/></clipPath></defs></symbol><symbol viewBox="0 0 16 16" id="telegram" xmlns="http://www.w3.org/2000/svg"><path d="m14.629 3.698-2.012 9.618c-.152.679-.548.848-1.11.528l-3.066-2.29-1.48 1.442c-.163.166-.3.305-.616.305l.22-3.165 5.683-5.204c.247-.223-.054-.347-.384-.123L4.839 9.29l-3.024-.959c-.658-.208-.67-.667.137-.986L13.78 2.727c.548-.208 1.027.124.849.971Z"/></symbol><symbol viewBox="0 0 16 16" id="viber" xmlns="http://www.w3.org/2000/svg"><path d="M8 1.335c-1.071.013-3.374.19-4.662 1.37-.958.948-1.292 2.35-1.331 4.084-.033 1.728-.072 4.973 3.058 5.856v1.346s-.02.538.337.648c.438.14.688-.275 1.105-.72l.778-.879c2.142.178 3.782-.232 3.97-.293.435-.139 2.883-.451 3.283-3.696.41-3.351-.2-5.463-1.301-6.418h-.007c-.332-.306-1.668-1.279-4.652-1.29 0 0-.222-.014-.578-.008Zm.037.942a7.02 7.02 0 0 1 .488.011c2.527.007 3.732.767 4.017 1.023.927.794 1.405 2.697 1.055 5.495-.332 2.713-2.317 2.885-2.685 3.002-.156.05-1.6.406-3.42.289 0 0-1.356 1.634-1.78 2.055-.067.074-.146.095-.196.085-.071-.018-.093-.107-.089-.229l.013-2.233c-2.655-.733-2.498-3.5-2.47-4.946.033-1.446.304-2.628 1.113-3.43 1.088-.982 3.043-1.115 3.953-1.122Zm.2 1.446a.166.166 0 1 0 0 .332 3.136 3.136 0 0 1 2.242.883c.606.588.9 1.378.912 2.411 0 .092.074.167.167.167V7.51a.167.167 0 0 0 .168-.165 3.588 3.588 0 0 0-1.009-2.646c-.66-.645-1.496-.977-2.48-.977Zm-2.198.382a.523.523 0 0 0-.342.067H5.69a2.61 2.61 0 0 0-.637.523 1.003 1.003 0 0 0-.256.525.71.71 0 0 0 .026.302l.01.006c.172.504.396.988.67 1.444a8.48 8.48 0 0 0 1.29 1.762l.015.022.024.017.015.018.017.015c.532.505 1.127.94 1.769 1.295.734.4 1.18.588 1.447.667v.004c.078.024.15.034.221.034.228-.016.444-.109.613-.262a2.53 2.53 0 0 0 .517-.638v-.004c.128-.241.085-.469-.1-.623-.37-.323-.77-.61-1.195-.857-.285-.155-.574-.061-.69.095l-.25.315c-.129.156-.361.134-.361.134l-.007.004C7.093 8.527 6.63 6.772 6.63 6.772s-.022-.239.139-.36l.312-.252c.15-.122.254-.41.094-.695a7.498 7.498 0 0 0-.856-1.194.475.475 0 0 0-.28-.167Zm2.486.495c-.221 0-.221.334.003.334A2.098 2.098 0 0 1 10 5.572 1.94 1.94 0 0 1 10.5 7a.168.168 0 0 0 .167.165l.007.009a.169.169 0 0 0 .167-.167c.015-.662-.191-1.218-.595-1.663C9.84 4.9 9.273 4.65 8.549 4.6h-.024Zm.274.898c-.228-.006-.236.335-.01.341.55.029.816.306.851.877a.166.166 0 0 0 .165.163h.007a.168.168 0 0 0 .16-.178c-.039-.744-.445-1.164-1.166-1.202H8.8Z"/></symbol><symbol viewBox="0 0 24 24" id="vk" xmlns="http://www.w3.org/2000/svg"><path d="M21.579 6.855c.14-.465 0-.806-.662-.806h-2.193c-.558 0-.813.295-.953.619 0 0-1.115 2.719-2.695 4.482-.51.513-.743.675-1.021.675-.139 0-.341-.162-.341-.627V6.855c0-.558-.161-.806-.626-.806H9.642c-.348 0-.558.258-.558.504 0 .528.79.65.871 2.138v3.228c0 .707-.127.836-.407.836-.743 0-2.551-2.73-3.624-5.853-.209-.607-.42-.852-.98-.852H2.752c-.627 0-.752.295-.752.619 0 .582.743 3.462 3.461 7.27 1.812 2.602 4.363 4.012 6.687 4.012 1.393 0 1.565-.313 1.565-.853v-1.966c0-.626.133-.752.574-.752.324 0 .882.164 2.183 1.417 1.486 1.486 1.732 2.153 2.567 2.153h2.192c.626 0 .939-.313.759-.931-.197-.615-.907-1.51-1.849-2.57-.512-.603-1.277-1.253-1.51-1.578-.325-.42-.231-.604 0-.976.001 0 2.672-3.761 2.95-5.04Z"/></symbol><symbol viewBox="0 0 16 16" id="wa" xmlns="http://www.w3.org/2000/svg"><path d="M1.299 7.94c0 1.176.309 2.324.898 3.337l-.955 3.459 3.568-.929a6.768 6.768 0 0 0 3.215.813h.003c3.709 0 6.728-2.995 6.73-6.675 0-1.784-.7-3.46-1.97-4.722a6.713 6.713 0 0 0-4.76-1.958c-3.71 0-6.728 2.994-6.73 6.675"/><path d="M6.287 5.047c-.13-.288-.268-.294-.392-.3-.101-.003-.218-.003-.334-.003a.642.642 0 0 0-.464.216c-.16.173-.61.591-.61 1.441 0 .85.624 1.672.711 1.788.088.115 1.205 1.916 2.976 2.608 1.471.576 1.77.462 2.09.433.32-.029 1.03-.418 1.175-.822.146-.403.146-.75.102-.821-.043-.072-.16-.116-.334-.202-.174-.086-1.03-.505-1.19-.562-.16-.058-.276-.087-.392.086-.116.173-.45.562-.551.678-.102.115-.203.13-.378.043-.174-.087-.735-.269-1.4-.858a5.212 5.212 0 0 1-.97-1.196c-.1-.173-.01-.267.077-.353.078-.077.174-.202.262-.303.086-.1.115-.173.173-.288.059-.115.03-.216-.014-.303-.044-.086-.382-.94-.537-1.282Z"/></symbol><symbol viewBox="0 0 16 16" id="whatsapp" xmlns="http://www.w3.org/2000/svg"><path fill-rule="evenodd" clip-rule="evenodd" d="M12.269 3.755A5.947 5.947 0 0 0 8.035 2 5.994 5.994 0 0 0 2.05 7.985a5.98 5.98 0 0 0 .799 2.992L2 14.077l3.173-.832c.877.477 1.86.728 2.86.728h.002a5.993 5.993 0 0 0 5.533-8.276 5.953 5.953 0 0 0-1.3-1.942Zm-4.234 9.208h-.002c-.89 0-1.765-.24-2.532-.694l-.181-.108-1.883.494.502-1.835-.118-.188a4.965 4.965 0 0 1-.76-2.647 4.982 4.982 0 0 1 6.88-4.597c.604.25 1.152.618 1.613 1.081a4.946 4.946 0 0 1 1.455 3.52 4.982 4.982 0 0 1-4.974 4.974Zm2.729-3.726c-.15-.075-.885-.436-1.022-.486-.137-.05-.236-.075-.336.074-.1.15-.387.486-.474.586-.087.1-.175.112-.324.038-.15-.075-.631-.233-1.203-.742a4.505 4.505 0 0 1-.832-1.036c-.087-.15-.009-.231.066-.306.068-.066.15-.174.224-.262.075-.087.1-.149.15-.249.05-.1.025-.187-.013-.262-.037-.075-.337-.811-.461-1.11-.121-.29-.244-.252-.336-.256a6.418 6.418 0 0 0-.286-.005.55.55 0 0 0-.4.186c-.137.15-.523.512-.523 1.248s.536 1.447.61 1.547c.075.1 1.055 1.61 2.555 2.258.358.154.636.246.853.315.358.114.684.098.942.06.287-.043.885-.362 1.01-.711.124-.35.124-.649.087-.711-.038-.063-.138-.101-.287-.176Z"/></symbol></svg>