<svg width="12" height="11" viewBox="0 0 12 11" fill="none" xmlns="http://www.w3.org/2000/svg">
<path d="M10.0092 1.27661H8.63161V0.985425C8.63161 0.705425 8.40763 0.481445 8.12763 0.481445C7.84763 0.481445 7.62365 0.705425 7.62365 0.985425V1.27661H4.36445V0.985425C4.36445 0.705425 4.14047 0.481445 3.86047 0.481445C3.58047 0.481445 3.35649 0.705425 3.35649 0.985425V1.27661H1.99009C1.27329 1.27661 0.679688 1.85903 0.679688 2.58701V9.40781C0.679688 10.1246 1.26211 10.7182 1.99009 10.7182H10.0205C10.7373 10.7182 11.3309 10.1358 11.3309 9.40781V2.58701C11.3197 1.85905 10.7371 1.27661 10.0092 1.27661ZM1.98999 2.28457H3.36757V2.57581C3.36757 2.85581 3.59155 3.07979 3.87155 3.07979C4.15155 3.07979 4.37553 2.85581 4.37553 2.57581V2.28463H7.63473L7.63481 2.57581C7.63481 2.85581 7.85879 3.07979 8.13879 3.07979C8.41879 3.07979 8.64277 2.85581 8.64277 2.57581V2.28463H10.0203C10.1883 2.28463 10.3228 2.419 10.3228 2.58705V3.91979H1.68757V2.58697C1.68757 2.419 1.82202 2.28457 1.98999 2.28457ZM10.0092 9.71017H1.98999C1.82202 9.71017 1.68757 9.57579 1.68757 9.40775V4.91655H10.3228V9.40775C10.3116 9.57579 10.1772 9.71017 10.0092 9.71017Z" fill="white"/>
</svg>
