<svg width="14" height="14" viewBox="0 0 14 14" fill="none" xmlns="http://www.w3.org/2000/svg">
<g clip-path="url(#clip0_93_236)">
<path d="M10.3744 0.252809L8.62382 0.25C6.65705 0.25 5.38603 1.55402 5.38603 3.57233V5.10415H3.62586C3.47376 5.10415 3.35059 5.22746 3.35059 5.37956V7.59899C3.35059 7.75109 3.4739 7.87426 3.62586 7.87426H5.38603V13.4746C5.38603 13.6267 5.5092 13.7499 5.6613 13.7499H7.95784C8.10994 13.7499 8.23311 13.6266 8.23311 13.4746V7.87426H10.2912C10.4433 7.87426 10.5664 7.75109 10.5664 7.59899L10.5673 5.37956C10.5673 5.30653 10.5382 5.23659 10.4867 5.18491C10.4351 5.13322 10.3649 5.10415 10.2919 5.10415H8.23311V3.80561C8.23311 3.18148 8.38183 2.86464 9.19486 2.86464L10.3742 2.86422C10.5261 2.86422 10.6493 2.74091 10.6493 2.58895V0.528078C10.6493 0.376259 10.5263 0.25309 10.3744 0.252809Z" fill="white"/>
</g>
<defs>
<clipPath id="clip0_93_236">
<rect width="13.5" height="13.4999" fill="white" transform="translate(0.25 0.25)"/>
</clipPath>
</defs>
</svg>
