<svg width="50" height="50" viewBox="0 0 50 50" fill="none" xmlns="http://www.w3.org/2000/svg">
<g id="pajamas:go-back">
<path id="Vector" fill-rule="evenodd" clip-rule="evenodd" d="M8.96875 24.2189L15.125 30.3751C15.3553 30.5897 15.54 30.8485 15.6681 31.1359C15.7962 31.4234 15.865 31.7338 15.8706 32.0485C15.8762 32.3632 15.8183 32.6758 15.7004 32.9676C15.5825 33.2595 15.4071 33.5246 15.1845 33.7471C14.9619 33.9697 14.6968 34.1451 14.405 34.263C14.1132 34.3809 13.8006 34.4388 13.4859 34.4332C13.1712 34.4277 12.8608 34.3588 12.5733 34.2307C12.2858 34.1026 12.0271 33.9179 11.8125 33.6876L1.65625 23.5314L0 21.8751L1.65625 20.2189L11.8125 10.0626C12.2568 9.64863 12.8444 9.42325 13.4516 9.43396C14.0588 9.44467 14.6382 9.69065 15.0676 10.1201C15.497 10.5495 15.743 11.1288 15.7537 11.736C15.7644 12.3432 15.539 12.9308 15.125 13.3751L8.96875 19.5314H39.8438C42.5374 19.5314 45.1206 20.6014 47.0253 22.5061C48.93 24.4107 50 26.994 50 29.6876C50 32.3812 48.93 34.9645 47.0253 36.8692C45.1206 38.7738 42.5374 39.8439 39.8438 39.8439H33.5938C32.9721 39.8439 32.376 39.5969 31.9365 39.1574C31.4969 38.7179 31.25 38.1217 31.25 37.5001C31.25 36.8785 31.4969 36.2824 31.9365 35.8428C32.376 35.4033 32.9721 35.1564 33.5938 35.1564H39.8438C41.2942 35.1564 42.6852 34.5802 43.7107 33.5546C44.7363 32.529 45.3125 31.138 45.3125 29.6876C45.3125 28.2372 44.7363 26.8462 43.7107 25.8206C42.6852 24.795 41.2942 24.2189 39.8438 24.2189H8.96875Z" fill="white"/>
</g>
</svg>
