<svg width="25" height="23" viewBox="0 0 25 23" fill="none" xmlns="http://www.w3.org/2000/svg">
<path d="M14.3994 0.548809C12.2357 0.711568 10.766 1.72642 10.3448 3.34444C10.2873 3.55507 10.2443 3.7657 10.2443 3.81357C10.2443 3.92367 10.2107 3.92367 9.89001 3.78006C8.80814 3.30135 7.12789 3.25827 5.90241 3.67474C4.55726 4.1343 3.60942 5.24968 3.3222 6.71451C3.27912 6.94907 3.25518 7.38948 3.25518 8.01658C3.25518 8.65805 3.23604 8.97878 3.20253 9.00271C3.1738 9.01707 3.08764 9.16547 3.01104 9.32823C2.87222 9.62024 2.87222 9.62024 2.87222 10.5824C2.87222 11.6787 2.91052 11.8558 3.20253 12.1909C3.30305 12.3058 3.42273 12.5164 3.4706 12.66C3.6908 13.3302 3.99239 13.8711 4.53332 14.5605L4.88278 15.0104V15.6375C4.88278 16.3508 4.81576 16.5758 4.53332 16.7864C4.44715 16.8534 3.6908 17.3322 2.85307 17.8587C1.01006 19.0076 0.727629 19.247 0.363815 19.9842C0.0622314 20.6017 0 20.9607 0 22.0953V23H12.2548H24.5096V22.0474C24.5096 20.9607 24.4426 20.4724 24.2224 19.9315C23.9352 19.223 23.3512 18.5528 22.6905 18.1651C22.5182 18.0646 21.489 17.538 20.3976 16.9971C19.0285 16.3077 18.3774 15.9583 18.2769 15.853C18.0232 15.5753 17.9849 15.4317 17.9657 14.5748L17.9418 13.785L18.1046 13.5695C18.545 12.9855 19.1146 11.9563 19.3396 11.3292C19.4066 11.1473 19.4976 10.9941 19.5694 10.9462C19.8806 10.7308 20.1151 10.4723 20.2587 10.1803L20.4167 9.86438L20.4311 8.92612C20.455 7.7868 20.4071 7.4182 20.1773 7.04003L20.0146 6.77195L20.0002 5.17787C19.9811 3.40188 19.9667 3.31093 19.5885 2.5833C19.3731 2.17161 18.7221 1.49664 18.3104 1.26208C17.3099 0.682846 15.9408 0.43392 14.3994 0.548809ZM16.3477 1.4392C17.2429 1.57323 17.8987 1.87482 18.4061 2.39182C18.7939 2.77957 18.9567 3.062 19.0955 3.56464C19.1864 3.89495 19.196 4.04813 19.196 5.53211V7.14056L19.3205 7.25544C19.5742 7.49001 19.5981 7.60011 19.6173 8.46178C19.646 9.783 19.5885 9.98884 19.0955 10.233C18.8274 10.367 18.8226 10.3766 18.6934 10.7356C18.3822 11.6069 17.8939 12.5068 17.3721 13.1722L17.1376 13.4738V14.2732C17.1376 15.5514 17.2525 15.987 17.7025 16.437C17.9131 16.6428 18.2147 16.8104 20.0194 17.7151C21.1587 18.2848 22.2358 18.8449 22.4129 18.9645C23.04 19.381 23.4852 20.0416 23.624 20.774C23.6623 20.9751 23.6958 21.3772 23.6958 21.6644V22.1862H15.127H6.55824V21.5112C6.55824 21.0517 6.58217 20.7405 6.63483 20.5395C6.79759 19.898 7.25714 19.2518 7.79808 18.8879C7.94648 18.7874 8.91825 18.2465 9.95703 17.6816C11.5128 16.8391 11.891 16.6141 12.1016 16.4083C12.566 15.9487 12.6809 15.5131 12.6856 14.2397V13.4929L12.4415 13.1626C11.8814 12.3824 11.4219 11.4106 11.1969 10.5154C11.149 10.3239 11.1011 10.2426 10.9767 10.1564C10.6655 9.95054 10.6272 9.783 10.6272 8.69634C10.6272 7.64798 10.6512 7.51873 10.8809 7.29853L11.0102 7.17885V5.66136C11.0102 3.9859 11.0485 3.62208 11.2878 3.11466C11.7761 2.08066 12.8771 1.47749 14.4904 1.36739C15.1127 1.32431 15.7637 1.34824 16.3477 1.4392ZM8.92782 4.33057C9.19111 4.38801 9.51662 4.5029 9.76555 4.62736L10.1724 4.8332L10.1868 5.82412C10.1964 6.80546 10.1964 6.81504 10.0815 6.98737C9.83257 7.35118 9.80385 7.53309 9.82299 8.76815C9.83736 9.88353 9.84214 9.91225 9.96182 10.1755C10.0336 10.3239 10.1629 10.5298 10.2538 10.6303C10.3687 10.7548 10.4645 10.9462 10.5458 11.2C10.7948 11.9707 11.1682 12.7414 11.6421 13.4355L11.824 13.7084V14.5174C11.824 15.4221 11.7905 15.5609 11.5224 15.829C11.3213 16.0301 10.1868 16.6428 10.0863 16.6045C10.0432 16.5902 10.0049 16.6093 9.98575 16.6668C9.96661 16.7194 9.50226 17.0018 8.81772 17.3704C8.1954 17.7151 7.53958 18.0885 7.36246 18.2034C6.85982 18.5289 6.40984 19.0459 6.1274 19.6204C5.83539 20.2092 5.74923 20.5969 5.71093 21.5017L5.68221 22.1862H3.24561H0.813796V21.6931C0.813796 21.1139 0.904749 20.6974 1.11538 20.3001C1.38345 19.7831 1.6611 19.5629 3.39879 18.481C4.27961 17.9305 5.08383 17.404 5.18436 17.3082C5.28489 17.2125 5.43328 16.9971 5.51945 16.8247L5.67264 16.5184L5.687 15.5945L5.70614 14.6753L5.39977 14.3259C4.82054 13.6653 4.41365 12.9568 4.21259 12.2866C4.13121 12.009 4.07377 11.9037 3.91101 11.7553L3.70995 11.5638L3.69559 10.7165C3.68602 10.2473 3.6908 9.81651 3.70995 9.75428C3.72431 9.69204 3.81048 9.56279 3.89665 9.46227L4.05941 9.28515L4.07855 8.04052C4.10249 6.69057 4.12164 6.5709 4.41365 5.98209C4.90192 4.98639 5.82103 4.3928 7.10875 4.23483C7.57309 4.17738 8.41561 4.22046 8.92782 4.33057Z" fill="#ACFF6B"/>
</svg>
