<svg width="24" height="27" viewBox="0 0 24 27" fill="none" xmlns="http://www.w3.org/2000/svg">
<path d="M22.6667 26.6643H24C24 21.5023 21.0668 19.9512 18.7074 18.7043C16.888 17.7423 15.4373 16.9758 15.3387 14.843V14.8432C15.9445 13.9003 16.3909 12.8644 16.6601 11.7765C17.9648 10.3097 18.0047 8.8738 17.5681 7.9238C18.2447 4.24725 16.8775 2.31109 15.5947 1.32898C13.4702 -0.139982 10.7388 -0.410323 8.36733 0.613557L7.99993 0.79771V1.56691C7.3361 1.96668 6.82496 2.57673 6.54725 3.30038C5.95171 4.80083 5.89839 6.46197 6.39591 7.99767C6.0006 8.91641 6.05194 10.3309 7.33991 11.7796C7.6091 12.8673 8.0555 13.9035 8.66133 14.8463C8.56267 16.9796 7.11202 17.7456 5.2926 18.7077C2.93324 19.951 0 21.5023 0 26.6642H1.33325C1.33325 22.6676 3.20536 21.3468 5.33323 20.1974V22.7902C4.73546 23.0016 4.27318 23.484 4.08747 24.0904C3.90197 24.6969 4.01492 25.3554 4.39215 25.8652C4.76916 26.3751 5.3658 26.6757 5.99997 26.6757C6.63414 26.6757 7.23076 26.3751 7.60779 25.8652C7.98502 25.3554 8.09797 24.697 7.91247 24.0904C7.72676 23.484 7.26448 23.0016 6.66671 22.7902V19.4836C6.96403 19.3188 7.25465 19.1503 7.53345 18.9628L10.9332 25.3308H13.0664L16.4664 18.9594C16.7477 19.1433 17.0385 19.3154 17.3332 19.4801V22.2949C15.9177 23.2136 14.6664 25.2076 14.6664 26.6643H15.9997C15.9997 25.6864 16.995 24.1236 17.9997 23.4377C19.0044 24.1236 19.9997 25.6864 19.9997 26.6643H21.3329C21.3329 25.2076 20.0816 23.2136 18.6662 22.2949L18.6666 20.1976C20.7945 21.3469 22.6666 22.6674 22.6666 26.6638L22.6667 26.6643ZM5.99998 25.331C5.73033 25.331 5.48725 25.1685 5.38415 24.9194C5.2808 24.6703 5.33795 24.3837 5.52857 24.1929C5.71919 24.0022 6.00602 23.9453 6.25513 24.0484C6.50424 24.1516 6.66674 24.3947 6.66674 24.6643C6.66674 24.8411 6.59642 25.0107 6.47142 25.1357C6.34643 25.2607 6.17676 25.331 5.99998 25.331ZM12.2668 23.9978H11.7335L8.60031 18.1212L8.60008 18.121C9.54808 17.2038 10.0577 15.9244 10.0001 14.6063V14.3396L9.81749 14.1463V14.1465C9.23332 13.2771 8.81681 12.3061 8.58938 11.2837L8.54675 11.1157L8.42867 10.9898C7.3753 9.86967 7.37467 8.88379 7.69541 8.37973L7.89206 8.06902L7.7347 7.73576C7.26394 6.47126 7.27867 5.07732 7.77599 3.82304C7.96171 3.28845 8.36148 2.85516 8.87936 2.62705L9.33337 2.47772V1.64847C11.1664 1.03104 13.1824 1.3045 14.7847 2.38778C16.2514 3.5092 16.7313 5.3605 16.2159 7.89175L16.1639 8.14509L16.2972 8.36719C16.6244 8.9125 16.6045 9.8893 15.5713 10.992L15.4539 11.1179L15.4112 11.2853L15.4115 11.2851C15.184 12.3074 14.7675 13.2784 14.1833 14.1478L14.0008 14.3411V14.6078V14.6076C13.9432 15.9257 14.4528 17.2051 15.4008 18.1223L12.2668 23.9978Z" fill="white"/>
</svg>
