<svg width="38" height="38" viewBox="0 0 38 38" fill="none" xmlns="http://www.w3.org/2000/svg">
<g clip-path="url(#clip0_0_329)">
<path d="M20.5586 0.13382C19.8313 0.49749 19.7645 1.52913 20.4473 1.97444C20.5512 2.04124 21.0559 2.18968 21.5828 2.30843C23.1711 2.65726 23.9578 2.91702 25.3828 3.56273C27.4239 4.49046 29.2348 5.77444 30.9196 7.50374C33.3539 10.0049 34.9496 13.0034 35.6918 16.4842C35.8922 17.4268 35.9442 17.5455 36.2336 17.7608C36.7012 18.1022 37.2727 18.0725 37.6512 17.6791C37.9926 17.3229 38.0149 17.0928 37.8071 16.0834C36.3227 8.7803 30.7934 2.7389 23.6387 0.601397C22.8223 0.356476 21.2489 0.000225067 20.9891 0.000225067C20.8926 0.000225067 20.6996 0.0596008 20.5586 0.13382Z" fill="#373737"/>
<path d="M6.22695 2.36774C5.27696 2.67204 4.48281 3.33258 2.25625 5.69274C0.660548 7.3775 0.23008 8.23102 0.0816421 9.93063C-0.133592 12.3502 0.682814 15.4154 2.48633 18.963C3.24336 20.4623 3.58477 21.0486 4.54961 22.4884C8.18633 27.9361 12.9586 32.2779 18.5918 35.2763C21.7832 36.9759 24.4848 37.8443 26.9414 37.9705C28.6781 38.067 30.2219 37.5771 31.3797 36.5752C31.5207 36.4564 32.3742 35.6029 33.2797 34.6677C34.7789 33.1314 34.9496 32.9236 35.2391 32.3521C35.7957 31.2388 35.8031 30.2369 35.2465 29.0939C34.9422 28.4779 34.868 28.3963 32.1813 25.7095C29.5762 23.097 29.3981 22.9338 28.8637 22.6814C27.7281 22.147 26.5629 22.199 25.457 22.8373C25.2715 22.9486 24.4328 23.713 23.5867 24.5517L22.0504 26.0658L21.3156 25.6724C18.05 23.9506 13.7602 19.631 12.1719 16.4693L11.8824 15.9052L13.3074 14.4654C14.8289 12.9291 15.2 12.4689 15.4449 11.7713C15.7715 10.8213 15.7047 9.91578 15.2371 8.95836C14.9922 8.46852 14.7398 8.19391 12.2164 5.67047C9.34414 2.79821 9.11406 2.60524 8.23828 2.34547C7.70391 2.18961 6.75391 2.19703 6.22695 2.36774ZM7.88945 4.5275C8.34961 4.74274 13.1516 9.56696 13.352 10.0197C13.7379 10.8732 13.5746 11.1552 11.541 13.174C10.6281 14.072 9.83399 14.9181 9.75977 15.0591C9.55195 15.4748 9.64102 16.2244 9.98242 16.9517C10.9398 18.9853 12.4836 21.0338 14.8363 23.3791C16.7734 25.3162 18.7625 26.808 20.7738 27.8396C21.6125 28.2775 21.7238 28.3146 22.1469 28.3072C22.4363 28.3072 22.6961 28.2552 22.8594 28.1736C23.0004 28.0994 23.8688 27.2904 24.7891 26.3849C25.7094 25.4795 26.5703 24.6779 26.7113 24.6037C27.0824 24.4181 27.7355 24.4775 28.1066 24.7373C28.6336 25.1009 33.1461 29.7025 33.3242 30.0513C33.5395 30.4818 33.5395 30.9716 33.3242 31.4021C33.1609 31.7138 30.7711 34.2224 29.9473 34.9349C28.7598 35.974 27.0898 36.1002 24.3438 35.358C22.3398 34.8162 19.2449 33.317 16.6992 31.6545C11.2813 28.1068 6.32344 22.3697 3.81485 16.7365C2.2043 13.1146 1.81094 10.3388 2.65703 8.60953C2.80547 8.29781 3.2582 7.79313 4.56446 6.47203C5.64063 5.3736 6.39766 4.66852 6.60547 4.56461C7.0211 4.34196 7.47383 4.33453 7.88945 4.5275Z" fill="#373737"/>
<path d="M20.2024 7.05107C19.6977 7.36278 19.5195 8.03075 19.8164 8.51318C20.0242 8.85458 20.2024 8.94364 21.1004 9.1663C23.1563 9.67099 24.8113 10.6136 26.2141 12.0905C27.5426 13.4784 28.4406 15.1558 28.834 16.9593C28.9899 17.6569 29.0938 17.8944 29.361 18.1022C29.9621 18.5772 30.927 18.2284 31.0606 17.4862C31.1719 16.9222 30.6152 14.985 29.9695 13.7011C28.3145 10.3612 25.316 7.95653 21.709 7.08075C20.811 6.86552 20.5215 6.8581 20.2024 7.05107Z" fill="#373737"/>
</g>
<defs>
<clipPath id="clip0_0_329">
<rect width="38" height="38" fill="white"/>
</clipPath>
</defs>
</svg>
