<svg width="31" height="31" viewBox="0 0 31 31" fill="none" xmlns="http://www.w3.org/2000/svg">
<path d="M24.3903 30.7913C23.6738 30.8324 22.9575 30.7079 22.2904 30.4267C19.8674 29.4589 17.5366 28.246 15.3304 26.8047C13.947 25.897 12.6203 24.8945 11.3584 23.8037C9.35367 22.066 7.5293 20.1041 5.91665 17.9515C4.217 15.6965 2.73838 13.2619 1.50351 10.6853C1.16723 9.99329 0.991235 9.2253 0.990608 8.44578C0.975751 7.18976 1.4039 5.97345 2.1905 5.0383C3.00638 4.04853 3.82549 3.06321 4.64743 2.08212H4.64764C5.34701 1.21621 6.38243 0.743717 7.45257 0.802221C8.25801 0.839715 9.02537 1.17961 9.61845 1.76211L13.2636 5.19839C13.7951 5.69294 14.1739 6.34773 14.3495 7.07641C14.4121 7.31967 14.4472 7.56985 14.4545 7.82205C14.5083 8.81651 14.1837 9.79246 13.5545 10.5287L10.7974 13.8306C11.1423 14.4984 11.5303 15.1398 11.9584 15.7502C12.6921 16.8087 13.548 17.7644 14.5056 18.5946C15.6869 19.6075 17.0008 20.4311 18.4054 21.039L21.1595 17.7244C21.741 17.0033 22.5586 16.546 23.4455 16.4456C24.3324 16.3449 25.2217 16.6089 25.9326 17.1836C26.0376 17.2668 26.1337 17.3563 26.2327 17.4492L29.7575 20.7861C30.2059 21.1981 30.5514 21.7226 30.7624 22.3122C31.1001 23.26 31.061 24.3136 30.6544 25.2302C30.509 25.5549 30.3189 25.8547 30.0904 26.1195L29.4246 26.9386C28.7976 27.6936 28.1736 28.4519 27.5376 29.1974H27.5374C26.8655 29.9834 25.9711 30.5139 24.9905 30.7076C24.7923 30.7489 24.592 30.7768 24.3905 30.7909L24.3903 30.7913ZM7.18275 3.04577C6.80419 3.06541 6.45177 3.25623 6.21365 3.57046C5.39353 4.54955 4.57865 5.53064 3.7686 6.51396C3.32016 7.04266 3.07764 7.73386 3.09061 8.44643C3.09751 8.87047 3.20047 9.28669 3.39069 9.65919C4.55335 12.1021 5.94663 14.4124 7.54851 16.554C9.0665 18.5849 10.7843 20.4362 12.6725 22.0763C13.8649 23.1038 15.1183 24.0474 16.4256 24.9012C18.5176 26.2689 20.7277 27.4195 23.0256 28.3375C23.5153 28.5569 24.0539 28.6203 24.5766 28.5198C25.1176 28.4185 25.6123 28.1293 25.9835 27.6976C26.6136 26.9584 27.2316 26.2099 27.8495 25.4581L28.5305 24.6359V24.6356C28.62 24.5314 28.6947 24.414 28.7525 24.287C28.9258 23.9108 28.9421 23.4738 28.7975 23.0839C28.7075 22.8355 28.56 22.6152 28.3685 22.444L24.8527 19.1359C24.7991 19.0815 24.743 19.0304 24.6846 18.9824C24.3375 18.6824 23.8744 18.5831 23.4456 18.7168C23.1637 18.796 22.9128 18.9685 22.7286 19.2096L19.5905 23.004C19.4313 23.2051 19.216 23.347 18.9759 23.4093C18.7359 23.4713 18.4837 23.4504 18.2557 23.3495C18.1977 23.3238 18.1387 23.3015 18.0786 23.2823L17.8505 23.1895C16.1735 22.4891 14.6072 21.5179 13.2066 20.3101C12.1102 19.3714 11.1302 18.2877 10.2907 17.085C9.6677 16.2012 9.12154 15.2587 8.65863 14.2696C8.54689 14.0418 8.50399 13.7826 8.53579 13.5278C8.56739 13.2729 8.67223 13.0348 8.83567 12.8457L11.9796 9.04793C12.25 8.74017 12.3892 8.32685 12.3636 7.90573C12.3597 7.81712 12.3467 7.7292 12.3245 7.6435C12.2529 7.34221 12.0958 7.07171 11.8746 6.86929L8.23868 3.43301C8.00158 3.19645 7.69289 3.05808 7.36857 3.04268C7.30664 3.03889 7.24448 3.03997 7.18275 3.04577Z" fill="#005F8C"/>
</svg>
