<svg width="30" height="30" viewBox="0 0 30 30" fill="none" xmlns="http://www.w3.org/2000/svg">
<path d="M5.45485 4.38789V6.7758H4.19992C2.98057 6.7758 2.92976 6.78088 2.68081 6.89773C2.40645 7.02475 2.20831 7.24322 2.07621 7.55314C2.01016 7.71572 2 8.83854 2 17.4045C2.00508 25.2389 2.01524 27.1086 2.07113 27.261C2.17274 27.5354 2.35057 27.7386 2.63 27.8859L2.88403 28.0129H12.7659C19.7112 28.0129 22.7138 27.9977 22.851 27.9571C22.9628 27.9266 23.1457 27.8097 23.2727 27.6929C23.4912 27.4795 23.5013 27.4541 25.7571 21.2607C27.8707 15.4586 28.0231 15.0217 27.9977 14.7931C27.9571 14.4679 27.7742 14.1072 27.5557 13.9344C27.3169 13.7414 26.9917 13.6855 26.128 13.6855H25.4218V12.2985C25.4218 10.754 25.3863 10.5202 25.1119 10.2103C24.8172 9.875 24.6343 9.82419 23.6792 9.82419H22.8307V9.30088V8.78266L19.4368 5.38878L16.048 1.99998H10.7489H5.45485V4.38789ZM15.4536 6.12547L15.4637 9.36693L18.7052 9.37709L21.9416 9.39233L21.9568 11.5364L21.967 13.6855H14.7575C9.86994 13.6855 7.46171 13.7007 7.29404 13.7414C6.94856 13.8125 6.64372 14.0818 6.4659 14.473L6.32364 14.7778L6.31856 8.81822V2.86369L10.881 2.87385L15.4383 2.88909L15.4536 6.12547ZM18.8424 6.0137L21.3319 8.50322H18.8271H16.3275V6.0137C16.3275 4.64192 16.3325 3.52418 16.3427 3.52418C16.3478 3.52418 17.4757 4.64192 18.8424 6.0137ZM5.45485 12.4356V17.2318L4.1796 20.7019C3.47847 22.6122 2.8942 24.1872 2.88403 24.1974C2.87387 24.2075 2.86371 20.5342 2.86371 16.0328C2.86371 7.90878 2.86371 7.84273 2.96532 7.74112C3.06186 7.64459 3.13299 7.63951 4.26089 7.63951H5.45485V12.4356ZM24.4362 10.759C24.5276 10.8302 24.5327 10.9165 24.548 12.2578L24.5632 13.6855H23.6944H22.8307V12.1867V10.6879H23.5826C24.1517 10.6879 24.36 10.7031 24.4362 10.759ZM26.9816 14.5898C27.0121 14.6102 27.068 14.6915 27.0934 14.7677C27.1442 14.8947 26.9054 15.5755 24.9595 20.9153C23.7554 24.2177 22.7392 26.9714 22.6986 27.0324L22.6275 27.1492H12.8269C3.16347 27.1492 3.03137 27.1492 2.93992 27.0476C2.88403 26.9866 2.86371 26.9104 2.88403 26.8342C2.89928 26.7682 3.90525 24.0094 5.11444 20.6968C7.02985 15.4536 7.32961 14.6711 7.4363 14.6152C7.53792 14.5644 9.60066 14.5492 17.242 14.5492C22.5665 14.5492 26.946 14.5695 26.9816 14.5898Z" fill="#2521E7"/>
<path d="M8.75633 5.52094C8.48198 5.65812 8.43625 5.99852 8.65472 6.21699C8.75125 6.31352 8.83254 6.3186 11.0934 6.3186H13.4356L13.5576 6.19159C13.7811 5.97312 13.7049 5.62255 13.4102 5.5057C13.1968 5.42441 8.91891 5.43965 8.75633 5.52094Z" fill="#2521E7"/>
<path d="M8.65125 8.65057C8.56487 8.74202 8.50391 8.8538 8.50391 8.93509C8.50391 9.01638 8.56487 9.12815 8.65125 9.2196L8.79858 9.36694H11.1204H13.4372L13.5592 9.23993C13.6862 9.11799 13.7217 8.90968 13.6557 8.73186C13.5693 8.51339 13.4575 8.50323 11.0696 8.50323H8.79858L8.65125 8.65057Z" fill="#2521E7"/>
<path d="M8.66478 11.6534C8.43107 11.8718 8.47679 12.2072 8.75623 12.3494C8.94421 12.4459 19.3443 12.4409 19.5272 12.3494C19.7965 12.2122 19.8422 11.8617 19.6187 11.6534C19.5069 11.5518 19.4612 11.5518 14.1417 11.5518C8.82228 11.5518 8.77655 11.5518 8.66478 11.6534Z" fill="#2521E7"/>
</svg>
