<svg width="30" height="30" viewBox="0 0 30 30" fill="none" xmlns="http://www.w3.org/2000/svg">
<path d="M13.1534 2.12189C12.8538 2.259 12.7624 2.35549 12.6253 2.66017C12.4374 3.0715 12.5238 3.51838 12.8538 3.84845C13.0671 4.06173 13.3007 4.14298 13.8034 4.17345L14.2452 4.19884V4.43752V4.67619L13.9558 4.71173C13.2499 4.79298 12.8031 4.90978 12.6609 5.05197C12.473 5.23478 12.4781 5.41759 12.6659 5.61056C12.8437 5.78322 12.8589 5.78829 13.5089 5.65626C13.7882 5.6004 14.2605 5.53947 14.5652 5.52423L15.1085 5.48869V5.94064C15.1085 6.44845 15.1695 6.61095 15.3827 6.71251C15.5503 6.79884 15.7331 6.75822 15.8702 6.61095C15.9566 6.51447 15.9718 6.43322 15.9718 6.00158V5.50392H16.2409C17.1347 5.50392 18.7241 5.90001 19.8819 6.40783C20.5726 6.71251 20.537 6.67189 20.3745 6.96134C20.0749 7.47931 20.0191 7.6215 20.0546 7.75353C20.1257 8.04298 20.4862 8.19024 20.7046 8.02267C20.7503 7.98712 20.8874 7.78907 21.0093 7.58595C21.1312 7.38282 21.253 7.20509 21.2784 7.19493C21.3546 7.17462 22.1569 7.76876 22.68 8.22579C22.9339 8.44415 23.3198 8.83517 23.5483 9.09415C23.9343 9.53087 24.5995 10.4145 24.6046 10.4906C24.6046 10.5109 24.4116 10.6379 24.178 10.7801C23.9444 10.9223 23.7362 11.0746 23.721 11.1203C23.6093 11.4148 23.8276 11.75 24.1374 11.75C24.1831 11.75 24.4015 11.6484 24.6249 11.5215C24.8433 11.3945 25.0413 11.293 25.0616 11.293C25.1175 11.293 25.5034 12.1664 25.7167 12.7859C26.0315 13.7051 26.2753 14.9238 26.2804 15.5941V15.8633H25.803C25.3765 15.8633 25.3054 15.8785 25.1937 15.975C25.1175 16.041 25.0464 16.1629 25.0312 16.2543C25.0058 16.3914 25.0261 16.4422 25.153 16.5742C25.3054 16.7215 25.3206 16.7266 25.7929 16.7266H26.2804V17.016C26.2804 17.6812 25.9808 19.1184 25.6659 19.9766C25.4577 20.5504 25.1073 21.2969 25.0515 21.2969C25.0261 21.2969 24.8483 21.2055 24.6554 21.0937C24.1628 20.8043 24.0358 20.7891 23.8429 20.982C23.6855 21.1394 23.6499 21.3273 23.7413 21.5C23.7667 21.5508 23.9749 21.698 24.1983 21.8301C24.4218 21.9621 24.6046 22.0891 24.6046 22.1094C24.6046 22.1754 24.0562 22.9168 23.6855 23.3637C23.1167 24.0289 22.3194 24.7398 21.5577 25.2578L21.2683 25.4558L21.0499 25.075C20.8112 24.6586 20.6437 24.4961 20.4558 24.4961C20.2984 24.4961 20.0343 24.7551 20.0343 24.9074C20.0343 24.9683 20.1409 25.2121 20.2679 25.4457C20.3948 25.6844 20.4913 25.8824 20.4812 25.8976C20.471 25.9078 20.2323 26.0246 19.953 26.1515C18.9577 26.6187 17.607 26.9793 16.5152 27.0758C16.2409 27.0961 16.0073 27.1062 15.9972 27.091C15.982 27.0808 15.9718 26.8472 15.9718 26.5781C15.9718 26.1363 15.9616 26.0805 15.8601 25.984C15.6874 25.8316 15.5808 25.8113 15.3929 25.8875C15.1745 25.9789 15.1085 26.1668 15.1085 26.7101V27.1316L14.8445 27.1062C13.9863 27.0199 13.6206 26.9742 13.2956 26.9031C12.9859 26.8371 12.9097 26.832 12.7929 26.893C12.5034 27.0301 12.4425 27.3652 12.6659 27.5887C12.8437 27.7664 14.3925 27.9949 15.4132 28C21.0042 28.0101 25.8081 24.1 26.9405 18.6105C27.2706 16.9906 27.2452 15.2895 26.8593 13.5781C26.5038 12.0039 25.5542 10.1098 24.4929 8.86056C24.3151 8.65743 24.1526 8.45431 24.1222 8.41876C24.0866 8.36798 24.1831 8.23595 24.5284 7.89064L24.9855 7.4336L25.2648 7.7129C25.4222 7.86524 25.5694 7.9922 25.5948 7.9922C25.6608 7.9922 27.3976 6.25548 27.3976 6.18947C27.3976 6.12345 25.6608 4.38673 25.5948 4.38673C25.5288 4.38673 23.7921 6.12345 23.7921 6.18947C23.7921 6.21993 23.9191 6.3672 24.0714 6.51954L24.3507 6.79376L23.9089 7.24064C23.6651 7.48946 23.4417 7.68751 23.4112 7.68751C23.3808 7.68751 23.2894 7.61642 23.203 7.53009C23.1218 7.44376 22.8425 7.21525 22.5835 7.0172C21.0093 5.82892 19.2472 5.0672 17.3632 4.76252L16.8351 4.67619V4.43752V4.19884L17.3073 4.17345C18.1452 4.12775 18.5616 3.76213 18.5616 3.0715C18.5616 2.75666 18.5109 2.61955 18.2976 2.38088C17.9675 2.00002 17.9878 2.00002 15.5655 2.00002H13.4073L13.1534 2.12189ZM17.6374 2.92424C17.7288 3.01564 17.7085 3.20861 17.6019 3.26955C17.546 3.29494 17.1652 3.32033 16.7386 3.32033H15.9718V3.95509V4.58986H15.5402H15.1085V3.95509V3.32033H14.357C13.7628 3.32033 13.5851 3.3051 13.4937 3.23908C13.3616 3.14767 13.3515 3.05119 13.4632 2.94455C13.5292 2.87346 13.7933 2.8633 15.5605 2.8633C17.0585 2.8633 17.5917 2.87853 17.6374 2.92424ZM25.9097 5.86954C26.0569 6.01681 26.1788 6.159 26.1788 6.18439C26.1788 6.2504 25.6659 6.77345 25.5999 6.77345C25.5339 6.77345 25.0108 6.26056 25.0108 6.19454C25.0108 6.12853 25.5237 5.60548 25.5898 5.60548C25.6202 5.60548 25.7624 5.72228 25.9097 5.86954Z" fill="#2521E7"/>
<path d="M9.38535 8.07852C9.22793 8.10899 9.06543 8.33242 9.06543 8.50508C9.06543 8.58125 9.12129 8.71328 9.1873 8.78945L9.30918 8.93164H10.5533H11.7975L11.9295 8.80977C12.1123 8.63711 12.1123 8.36289 11.9295 8.19024C11.8025 8.06836 11.7924 8.06836 10.6498 8.06328C10.015 8.0582 9.44629 8.06328 9.38535 8.07852Z" fill="#2521E7"/>
<path d="M7.13535 11.1559C6.86621 11.293 6.82051 11.6434 7.04394 11.8516C7.15058 11.948 7.2166 11.9531 9.47636 11.9531C11.7412 11.9531 11.7971 11.9531 11.9291 11.8465C12.0256 11.7703 12.0611 11.6941 12.0611 11.5672C12.0611 11.3234 11.99 11.2117 11.8021 11.1457C11.5584 11.0594 7.30293 11.0695 7.13535 11.1559Z" fill="#2521E7"/>
<path d="M20.0256 11.958C16.6537 14.3854 14.7291 15.8072 14.6072 15.9596C14.1096 16.5893 14.1705 17.4779 14.7545 18.0416C15.3182 18.59 16.3084 18.5799 16.8568 18.0264C17.0853 17.7928 20.9701 12.4455 21.1123 12.1611C21.2139 11.9631 21.1935 11.8311 21.0361 11.6584C20.8431 11.4502 20.6654 11.501 20.0256 11.958ZM17.5474 15.665C16.8721 16.5994 16.2525 17.4119 16.1611 17.4728C15.831 17.7115 15.3943 17.5846 15.2064 17.1986C15.0896 16.96 15.11 16.7264 15.2572 16.5334C15.3385 16.4217 18.7205 13.9385 18.756 13.9588C18.7611 13.9639 18.2178 14.7357 17.5474 15.665Z" fill="#2521E7"/>
<path d="M4.91695 14.2129C4.67828 14.3805 4.69351 14.8121 4.94742 14.9442C5.01851 14.9848 6.05445 15 8.46148 14.9899L11.8689 14.9746L11.9654 14.8528C12.1025 14.6852 12.0923 14.416 11.9349 14.2637L11.813 14.1367H8.42085C5.50093 14.1367 5.00836 14.1469 4.91695 14.2129Z" fill="#2521E7"/>
<path d="M3.13961 17.2951C2.98726 17.4677 2.96695 17.5744 3.04312 17.7622C3.08883 17.879 3.165 17.9501 3.27672 17.9908C3.51031 18.0669 11.5693 18.072 11.8029 17.9908C11.9908 17.9247 12.0619 17.813 12.0619 17.5693C12.0619 17.4423 12.0263 17.3661 11.9298 17.29C11.7927 17.1833 11.7673 17.1833 7.51695 17.1833H3.24117L3.13961 17.2951Z" fill="#2521E7"/>
<path d="M5.9436 20.2152C5.62368 20.2965 5.49672 20.7129 5.73032 20.9313L5.84711 21.043H8.8432H11.8444L11.951 20.9262C12.1084 20.7586 12.0983 20.4844 11.9307 20.327L11.7987 20.2051L8.92445 20.2C7.34008 20.1949 5.99946 20.2 5.9436 20.2152Z" fill="#2521E7"/>
<path d="M8.4308 23.2875C8.17182 23.4348 8.12104 23.7598 8.32924 23.9629L8.45111 24.0898H10.1218C11.7367 24.0898 11.7976 24.0848 11.9296 23.9832C12.0261 23.907 12.0617 23.8309 12.0617 23.709C12.0617 23.2367 12.0261 23.2266 10.1218 23.2266C9.01986 23.2316 8.5019 23.2469 8.4308 23.2875Z" fill="#2521E7"/>
</svg>
