<svg width="30" height="30" viewBox="0 0 30 30" fill="none" xmlns="http://www.w3.org/2000/svg">
<path d="M14.3237 2.011C12.0316 2.24454 10.1768 3.10764 8.64869 4.65107C6.44703 6.87482 5.50202 10.5506 6.25601 13.9878C6.47216 14.9829 6.97985 16.2369 7.4624 16.9629C8.32698 18.2627 14.9722 27.9243 15.0023 27.9243C15.0325 27.9243 21.6777 18.2627 22.5423 16.9629C22.6579 16.7852 22.8891 16.3588 23.05 16.0237C23.6833 14.6732 24 13.2211 24 11.627C24 8.88026 23.0449 6.36204 21.356 4.65107C20.0089 3.28534 18.2747 2.39178 16.4349 2.10239C15.9725 2.03131 14.6806 1.97546 14.3237 2.011ZM16.1333 3.01626C18.5411 3.39196 20.5668 4.72215 21.7883 6.72759C22.7283 8.27609 23.2058 10.3475 23.055 12.2717C22.9394 13.7035 22.6026 14.927 22.0245 15.9831C21.7682 16.4451 15.0677 26.2489 15.0023 26.2489C14.942 26.2489 8.2365 16.4502 7.9902 15.9932C6.67825 13.607 6.57269 10.3628 7.71876 7.70238C8.78943 5.20447 11.0564 3.46812 13.8211 3.02134C14.369 2.93503 15.5804 2.92995 16.1333 3.01626Z" fill="#2521E7"/>
<path d="M14.7247 7.69716C14.6694 7.70731 14.4985 7.74285 14.3477 7.77332C13.9808 7.84439 13.3273 8.16933 13.0156 8.42826C12.4979 8.86488 12.0355 9.60106 11.8947 10.2052C11.563 11.637 12.1661 13.0941 13.4077 13.8506C14.0712 14.2567 14.9861 14.409 15.7552 14.2466C16.7002 14.0486 17.5848 13.353 18.0121 12.4899C18.9018 10.6622 18.0322 8.52472 16.1322 7.85963C15.735 7.72255 14.9861 7.63624 14.7247 7.69716ZM15.6848 8.7278C17.429 9.19997 18.0071 11.378 16.7353 12.6676C16.288 13.1195 15.73 13.353 15.1017 13.353C13.0106 13.353 11.9601 10.8297 13.4379 9.33705C14.0461 8.7278 14.8604 8.50441 15.6848 8.7278Z" fill="#2521E7"/>
</svg>
