<svg width="30" height="30" viewBox="0 0 30 30" fill="none" xmlns="http://www.w3.org/2000/svg">
<path d="M12.9399 2.04705C9.99914 2.22731 7.46524 2.78353 5.70386 3.63331C4.85408 4.04018 4.39056 4.35434 3.87039 4.86937C3.52017 5.21958 3.38627 5.39984 3.22661 5.7243L3.02575 6.13632L3.0103 15.1028L3 24.0694L3.12876 24.4196C3.36052 25.0376 3.81888 25.5732 4.50386 26.0316C6.23433 27.1852 8.70644 27.896 12.2189 28.241C13.4807 28.3646 16.576 28.3646 17.8069 28.241C19.9133 28.0247 21.4893 27.7209 22.9622 27.2316C25.1099 26.5209 26.4438 25.5629 26.8712 24.4196L27 24.0797L26.9897 15.108L26.9742 6.13632L26.7734 5.7243C26.6137 5.39984 26.4798 5.21958 26.1296 4.86937C25.6094 4.35434 25.1459 4.04018 24.2961 3.63331C22.4884 2.76293 20.0163 2.23246 16.921 2.0419C15.9116 1.98525 13.9648 1.98525 12.9399 2.04705ZM18.0129 3.09254C22.1794 3.54576 25.1614 4.66851 25.8979 6.05907C26.0318 6.31658 26.0215 6.79555 25.8773 7.07366C25.2335 8.30456 22.4421 9.43246 18.9142 9.89082C17.5339 10.0711 16.9519 10.102 15 10.102C13.0481 10.102 12.4661 10.0711 11.0858 9.89082C8.01631 9.48911 5.56481 8.61872 4.49356 7.54748C4.13305 7.18696 4.00944 6.92945 4.00944 6.54834C4.00944 6.05392 4.26695 5.65735 4.91588 5.17838C6.07983 4.31829 8.27897 3.59726 10.8541 3.2316C11.4773 3.14404 11.8326 3.10799 13.1459 2.99984C13.7485 2.94834 17.333 3.01529 18.0129 3.09254ZM4.77682 8.95864C6.06438 9.78267 8.00086 10.4161 10.3133 10.7664C13.1562 11.199 16.8438 11.199 19.6867 10.7664C22.3597 10.3595 24.5485 9.56636 25.8052 8.54662L26.0215 8.37151V10.4007C26.0215 12.7543 26.0266 12.7337 25.5734 13.223C24.394 14.4951 21.5562 15.3964 17.4721 15.8033C16.4833 15.9011 13.3828 15.8857 12.2704 15.7775C8.47468 15.4067 5.57511 14.4591 4.42661 13.223C3.97339 12.7337 3.97854 12.7543 3.97854 10.4007V8.37151L4.2 8.54662C4.31845 8.64447 4.58112 8.82988 4.77682 8.95864ZM4.66352 14.6342C6.26009 15.726 8.9176 16.4522 12.3734 16.7458C13.6352 16.8539 16.3339 16.8539 17.6266 16.7458C21.4223 16.4316 24.1828 15.5973 25.8567 14.2634L26.0215 14.1295V16.1844V18.2393L25.8979 18.5071C25.3983 19.5732 23.3227 20.5775 20.4335 21.144C18.6824 21.4891 17.1785 21.623 15.0515 21.623C11.9665 21.6282 9.46352 21.2779 7.27468 20.5466C5.58541 19.9801 4.45236 19.2539 4.10215 18.5071L3.97854 18.2393V16.1844V14.1295L4.1485 14.2634C4.23605 14.3406 4.46781 14.5054 4.66352 14.6342ZM4.1588 20.0161C4.32876 20.2067 5.13219 20.7011 5.69871 20.9741C7.33133 21.7466 9.59743 22.2719 12.2704 22.4985C13.3262 22.5861 16.6738 22.5861 17.7296 22.4985C19.8309 22.3183 21.7159 21.9475 23.2661 21.4067C24.1571 21.0925 25.4034 20.4282 25.8206 20.0367C25.8927 19.9698 25.9648 19.9131 25.9854 19.9131C26.006 19.9131 26.0215 20.835 26.0215 21.9578V24.0076L25.8927 24.2857C25.3468 25.4496 22.6275 26.6187 19.3262 27.0925C17.7502 27.3191 17.2403 27.35 15 27.35C12.7597 27.35 12.2498 27.3191 10.6738 27.0925C7.37253 26.6187 4.65322 25.4496 4.1073 24.2857L3.97854 24.0076V21.9578C3.97854 20.835 3.99914 19.9131 4.01974 19.9131C4.04549 19.9131 4.1073 19.9595 4.1588 20.0161Z" fill="#2521E7"/>
</svg>
