<svg width="24" height="24" viewBox="0 0 24 24" fill="none" xmlns="http://www.w3.org/2000/svg">
<path fill-rule="evenodd" clip-rule="evenodd" d="M21.0461 17.7781C20.4041 16.9696 19.3616 15.7981 18.4691 15.6871C17.9261 15.6196 17.3021 16.0696 16.6871 16.4941C16.5671 16.5541 15.6401 17.1061 15.5276 17.1391C14.9336 17.3086 13.6661 17.3581 12.8996 16.6591C12.1616 15.9841 10.9946 14.7346 10.0526 13.5901C9.15261 12.4111 8.20911 10.9936 7.72611 10.1236C7.22211 9.2221 7.58511 8.02959 7.89711 7.50459C7.95411 7.41009 8.64411 6.70059 8.79861 6.53559L8.82111 6.5626C9.39261 6.0826 9.99111 5.59509 10.0586 5.06709C10.1696 4.18809 9.27111 2.9086 8.62911 2.0986C7.98711 1.2871 6.99261 -0.133405 5.63811 0.067595C5.12811 0.142595 4.68861 0.321095 4.25511 0.577595L4.24311 0.564095C4.21881 0.582195 4.19481 0.600697 4.17111 0.619595L4.13362 0.639095L4.13812 0.645095C3.88912 0.837095 3.17812 1.36809 3.09712 1.44009C2.21812 2.2216 0.895115 4.0621 1.91812 7.37259C2.67712 9.83259 4.29562 12.7216 6.50062 15.6436L6.48862 15.6541C6.59662 15.7951 6.70761 15.9226 6.82011 16.0591C6.92511 16.1986 7.02861 16.3366 7.13661 16.4746L7.15162 16.4641C9.49161 19.2826 11.9456 21.5356 14.1851 22.8646C17.2001 24.6526 19.3436 23.8471 20.3336 23.2066C20.4266 23.1451 21.1346 22.5946 21.3746 22.4131L21.3806 22.4191C21.3896 22.4101 21.3956 22.3981 21.4076 22.3891C21.4293 22.3728 21.4508 22.3563 21.4721 22.3396L21.4631 22.3276C21.8261 21.9766 22.1171 21.6016 22.3181 21.1291C22.8446 19.8856 21.6881 18.5896 21.0461 17.7781Z" fill="white"/>
</svg>
