<svg width="14" height="14" viewBox="0 0 14 14" fill="none" xmlns="http://www.w3.org/2000/svg">
<path d="M12.92 5.63281H9.41997C9.35981 5.63281 9.3106 5.68203 9.3106 5.74219V6.39844C9.3106 6.45859 9.35981 6.50781 9.41997 6.50781H12.92C12.9801 6.50781 13.0293 6.45859 13.0293 6.39844V5.74219C13.0293 5.68203 12.9801 5.63281 12.92 5.63281ZM11.0879 7.49219H9.41997C9.35981 7.49219 9.3106 7.54141 9.3106 7.60156V8.25781C9.3106 8.31797 9.35981 8.36719 9.41997 8.36719H11.0879C11.1481 8.36719 11.1973 8.31797 11.1973 8.25781V7.60156C11.1973 7.54141 11.1481 7.49219 11.0879 7.49219ZM6.52563 4.40918H5.93364C5.84888 4.40918 5.78052 4.47754 5.78052 4.5623V7.95293C5.78052 8.00215 5.80376 8.04727 5.84341 8.07598L7.87915 9.56074C7.94751 9.60996 8.04321 9.59629 8.09243 9.52793L8.4438 9.04805V9.04668C8.49302 8.97832 8.47798 8.88262 8.40962 8.8334L6.67739 7.58106V4.5623C6.67876 4.47754 6.60903 4.40918 6.52563 4.40918Z" fill="#A1A2A4"/>
<path d="M11.0031 9.2135H10.2129C10.1363 9.2135 10.0639 9.25315 10.0229 9.31878C9.84923 9.59358 9.64688 9.84788 9.41446 10.0803C9.01388 10.4809 8.54767 10.7953 8.0295 11.0141C7.4922 11.241 6.92208 11.3559 6.33419 11.3559C5.74493 11.3559 5.17481 11.241 4.63888 11.0141C4.12071 10.7953 3.6545 10.4809 3.25392 10.0803C2.85333 9.67971 2.53888 9.2135 2.32013 8.69534C2.09317 8.1594 1.97833 7.58928 1.97833 7.00003C1.97833 6.41077 2.09317 5.84202 2.32013 5.30471C2.53888 4.78655 2.85333 4.32034 3.25392 3.91975C3.6545 3.51917 4.12071 3.20471 4.63888 2.98596C5.17481 2.75901 5.7463 2.64417 6.33419 2.64417C6.92345 2.64417 7.49356 2.75901 8.0295 2.98596C8.54767 3.20471 9.01388 3.51917 9.41446 3.91975C9.64688 4.15218 9.84923 4.40647 10.0229 4.68128C10.0639 4.7469 10.1363 4.78655 10.2129 4.78655H11.0031C11.0975 4.78655 11.1576 4.68811 11.1152 4.60471C10.2238 2.83147 8.41642 1.67893 6.39845 1.65569C3.44395 1.61878 0.989853 4.03733 0.984384 6.98909C0.978916 9.94632 3.3756 12.3457 6.33282 12.3457C8.37677 12.3457 10.2143 11.1891 11.1152 9.39534C11.1576 9.31194 11.0961 9.2135 11.0031 9.2135Z" fill="#A1A2A4"/>
</svg>
