<svg width="16" height="16" viewBox="0 0 16 16" fill="none" xmlns="http://www.w3.org/2000/svg">
<path d="M0.820117 7.93488C0.819766 9.19935 1.15164 10.434 1.7827 11.5223L0.759766 15.2405L4.58195 14.2428C5.63912 14.8157 6.8236 15.1159 8.02727 15.116H8.03043C12.004 15.116 15.2385 11.8971 15.2402 7.94054C15.241 6.02333 14.4917 4.22051 13.1303 2.86417C11.7692 1.50794 9.95893 0.760641 8.03014 0.759766C4.05613 0.759766 0.821816 3.97855 0.820176 7.93488" fill="#60D669"/>
<path d="M6.16465 4.82533C6.02484 4.51599 5.87771 4.50975 5.74477 4.50432C5.6359 4.49966 5.51144 4.50001 5.38711 4.50001C5.26266 4.50001 5.06045 4.54661 4.88953 4.7324C4.71844 4.91837 4.23633 5.36776 4.23633 6.28177C4.23633 7.19584 4.90506 8.07916 4.99828 8.20324C5.09162 8.32708 6.28928 10.2628 8.18607 11.0075C9.76248 11.6263 10.0833 11.5032 10.4254 11.4722C10.7676 11.4413 11.5295 11.0229 11.685 10.5891C11.8406 10.1553 11.8406 9.78352 11.7939 9.70582C11.7473 9.62841 11.6228 9.58192 11.4362 9.48906C11.2495 9.39613 10.3321 8.94668 10.161 8.88468C9.98994 8.82273 9.86555 8.79181 9.74109 8.97783C9.61664 9.16356 9.25928 9.58192 9.15035 9.70582C9.04154 9.83001 8.93262 9.84547 8.74605 9.75255C8.55932 9.65933 7.95832 9.46339 7.24529 8.83054C6.69053 8.3381 6.316 7.72999 6.20713 7.54396C6.09826 7.35823 6.19547 7.25755 6.28904 7.16498C6.37289 7.08174 6.47572 6.94804 6.56912 6.8396C6.66217 6.7311 6.69322 6.6537 6.75545 6.5298C6.81773 6.40578 6.78656 6.29729 6.73998 6.20436C6.69322 6.11144 6.33059 5.19264 6.16465 4.82533Z" fill="white"/>
</svg>
