<?xml version="1.0" standalone="no"?>
<!DOCTYPE svg PUBLIC "-//W3C//DTD SVG 20010904//EN"
 "http://www.w3.org/TR/2001/REC-SVG-20010904/DTD/svg10.dtd">
<svg version="1.0" xmlns="http://www.w3.org/2000/svg"
 width="116.000000pt" height="116.000000pt" viewBox="0 0 116.000000 116.000000"
 preserveAspectRatio="xMidYMid meet">
<metadata>
Created by potrace 1.14, written by Peter Selinger 2001-2017
</metadata>
<g transform="translate(0.000000,116.000000) scale(0.100000,-0.100000)"
fill="#000000" stroke="none">
<path d="M154 1118 c-16 -26 -31 -116 -27 -167 4 -60 47 -166 70 -175 10 -4
13 -2 10 6 -63 143 -71 200 -42 294 18 58 17 54 6 54 -6 0 -13 -5 -17 -12z"/>
<path d="M411 1080 c-13 -6 -31 -18 -38 -28 -8 -9 -12 -11 -8 -4 10 20 -13 14
-25 -7 -10 -19 -14 -56 -11 -98 2 -32 63 -89 104 -97 75 -14 157 49 157 120 0
20 -3 25 -9 16 -6 -10 -10 -4 -15 20 -3 19 -17 45 -30 57 -27 26 -89 36 -125
21z m89 -62 c35 -38 10 -98 -41 -98 -56 0 -82 73 -37 104 31 22 54 20 78 -6z
m-136 -94 c3 -8 2 -12 -4 -9 -6 3 -10 10 -10 16 0 14 7 11 14 -7z m89 -61 c-7
-2 -19 -2 -25 0 -7 3 -2 5 12 5 14 0 19 -2 13 -5z"/>
<path d="M256 795 c-20 -19 -36 -38 -36 -43 0 -15 44 -49 97 -76 l52 -26 3
-67 3 -68 83 -1 82 -1 1 31 c1 17 1 47 1 68 0 34 3 37 62 67 34 17 71 40 81
51 19 21 18 21 -22 62 l-41 41 -33 -25 c-42 -31 -91 -48 -138 -48 -41 0 -109
29 -130 53 -19 23 -24 22 -65 -18z"/>
<path d="M382 474 c-7 -8 -8 -14 -3 -14 10 0 25 19 20 25 -2 1 -10 -3 -17 -11z"/>
<path d="M411 474 c0 -11 3 -14 6 -6 3 7 2 16 -1 19 -3 4 -6 -2 -5 -13z"/>
<path d="M450 482 c0 -5 7 -9 15 -9 8 0 12 4 9 9 -3 4 -9 8 -15 8 -5 0 -9 -4
-9 -8z"/>
<path d="M490 471 c0 -12 3 -12 12 -3 19 19 32 14 17 -5 -13 -16 -12 -17 4 -4
13 11 17 11 17 1 0 -8 2 -11 5 -8 3 3 3 12 -1 21 -8 21 -54 19 -54 -2z"/>
<path d="M566 481 c-3 -5 1 -14 9 -21 10 -9 15 -9 15 -1 0 6 -5 11 -11 11 -5
0 -7 5 -4 10 3 6 4 10 1 10 -3 0 -7 -4 -10 -9z"/>
<path d="M623 474 c0 -7 5 -15 12 -17 6 -3 11 3 11 12 0 10 -5 18 -11 18 -7 0
-12 -6 -12 -13z"/>
<path d="M665 472 c-3 -9 0 -12 9 -9 8 3 17 1 19 -6 3 -7 5 -3 4 9 -1 24 -23
28 -32 6z"/>
<path d="M740 479 c0 -6 -7 -9 -15 -5 -8 3 -15 2 -15 -3 0 -5 11 -11 24 -13
19 -4 22 -1 18 14 -5 20 -12 24 -12 7z"/>
<path d="M800 485 c0 -2 7 -8 15 -15 12 -10 15 -10 15 2 0 8 -7 15 -15 15 -8
0 -15 -1 -15 -2z"/>
<path d="M850 474 c0 -8 5 -12 10 -9 6 4 8 11 5 16 -9 14 -15 11 -15 -7z"/>
<path d="M880 481 c0 -6 4 -13 10 -16 6 -3 7 1 4 9 -7 18 -14 21 -14 7z"/>
<path d="M930 470 c0 -12 7 -20 18 -20 13 0 14 2 3 9 -7 5 -10 14 -7 20 4 6 2
11 -3 11 -6 0 -11 -9 -11 -20z"/>
<path d="M976 473 c-4 -9 -4 -14 0 -10 4 4 14 1 23 -6 14 -11 15 -10 1 8 -8
11 -15 21 -16 23 -1 2 -5 -5 -8 -15z"/>
<path d="M1014 478 c4 -20 26 -21 26 -1 0 14 -2 15 -9 4 -6 -9 -10 -10 -14 -2
-4 8 -5 8 -3 -1z"/>
<path d="M380 345 c0 -41 4 -55 14 -55 9 0 13 8 9 23 l-5 22 20 -22 c30 -34
46 -29 27 7 -14 27 -14 32 1 55 14 22 14 25 1 25 -8 0 -22 -10 -31 -22 -9 -13
-15 -18 -15 -13 3 22 -2 35 -11 35 -5 0 -10 -25 -10 -55z"/>
<path d="M475 350 c-1 -45 2 -51 23 -57 29 -7 43 5 19 18 -12 7 -17 22 -17 49
0 25 -5 40 -12 40 -9 0 -13 -17 -13 -50z"/>
<path d="M550 346 c0 -40 4 -56 13 -56 18 0 17 102 -1 108 -8 2 -12 -13 -12
-52z"/>
<path d="M600 344 c0 -34 4 -53 10 -49 6 3 10 16 10 27 0 20 1 19 25 -6 13
-14 27 -26 30 -26 3 0 4 23 3 50 -2 28 -7 50 -13 50 -5 0 -11 -4 -11 -10 -1
-5 -2 -16 -3 -22 -1 -7 -9 -1 -17 15 -23 42 -34 32 -34 -29z"/>
<path d="M700 346 c0 -52 11 -74 22 -43 10 24 3 90 -9 95 -10 3 -13 -12 -13
-52z"/>
<path d="M750 346 c0 -31 5 -56 10 -56 6 0 10 10 10 23 l0 22 20 -25 c23 -30
38 -20 22 15 -10 21 -9 30 4 50 15 23 15 25 0 25 -9 0 -19 -7 -22 -15 -7 -17
-25 -21 -21 -4 1 6 -4 14 -10 16 -10 3 -13 -11 -13 -51z"/>
<path d="M848 393 c-2 -5 -4 -26 -4 -47 1 -45 25 -68 54 -50 21 14 31 109 10
102 -7 -3 -13 -20 -13 -38 0 -18 -6 -35 -13 -38 -8 -2 -12 9 -12 37 0 36 -12
54 -22 34z"/>
<path d="M946 363 c-8 -54 -7 -73 4 -73 6 0 13 15 17 33 l7 32 8 -32 c5 -18
12 -33 17 -33 4 0 13 15 19 33 9 31 10 31 11 6 1 -15 8 -29 16 -33 13 -4 14 2
9 37 -11 77 -23 87 -47 41 l-14 -27 -7 27 c-10 39 -32 32 -40 -11z"/>
<path d="M393 243 c-24 -9 -14 -42 17 -58 17 -9 30 -20 30 -26 0 -7 -12 -9
-30 -7 -16 3 -30 1 -30 -4 0 -4 15 -8 34 -8 54 0 58 49 5 65 -10 4 -19 13 -19
21 0 12 7 14 31 9 22 -5 29 -4 25 4 -7 11 -41 14 -63 4z"/>
<path d="M575 195 c0 -35 4 -55 12 -55 7 0 11 19 10 55 -2 72 -22 72 -22 0z"/>
<path d="M620 239 c0 -5 5 -7 10 -4 6 3 10 8 10 11 0 2 -4 4 -10 4 -5 0 -10
-5 -10 -11z"/>
<path d="M488 219 c-28 -16 -21 -79 9 -79 12 0 13 3 3 14 -18 23 -9 61 15 61
24 0 33 -38 15 -61 -15 -17 1 -19 18 -2 18 18 14 56 -7 68 -24 12 -31 12 -53
-1z"/>
<path d="M669 223 c-7 -18 -1 -83 7 -83 6 0 9 15 8 34 -2 24 2 36 13 40 21 8
26 2 28 -36 1 -18 6 -33 11 -35 12 -4 11 57 0 76 -6 9 -64 13 -67 4z"/>
<path d="M778 219 c-22 -12 -24 -65 -3 -73 8 -3 12 -12 9 -21 -9 -23 4 -18 36
15 40 41 41 84 2 87 -15 1 -35 -3 -44 -8z m50 -32 c2 -18 -2 -29 -13 -33 -24
-9 -39 10 -31 41 9 35 40 30 44 -8z"/>
<path d="M881 216 c-19 -22 -9 -68 16 -77 23 -8 64 14 50 28 -5 4 -13 0 -18
-9 -11 -19 -39 -13 -39 8 0 9 11 14 30 14 31 0 39 17 18 38 -16 16 -43 15 -57
-2z m47 -14 c2 -6 -6 -10 -17 -9 -22 1 -26 8 -14 21 9 9 26 3 31 -12z"/>
<path d="M975 222 c-9 -9 -5 -82 4 -82 6 0 11 17 13 37 2 27 8 39 21 41 14 3
17 -4 17 -37 0 -23 5 -41 11 -41 6 0 9 17 7 43 -3 40 -5 42 -35 43 -18 1 -35
-1 -38 -4z"/>
<path d="M620 180 c0 -26 5 -40 13 -40 9 0 11 12 9 40 -2 22 -8 40 -13 40 -5
0 -9 -18 -9 -40z"/>
<path d="M810 122 c0 -4 15 -7 34 -7 19 0 32 3 30 6 -5 8 -64 9 -64 1z"/>
<path d="M938 113 c7 -3 16 -2 19 1 4 3 -2 6 -13 5 -11 0 -14 -3 -6 -6z"/>
<path d="M970 113 c0 -2 11 -8 25 -13 14 -5 25 -14 25 -19 0 -16 -128 -51
-187 -51 -50 0 -55 2 -50 19 3 13 1 18 -8 14 -16 -5 -28 -33 -20 -42 12 -11
127 -2 183 15 84 24 116 42 102 59 -9 11 -70 27 -70 18z"/>
</g>
</svg>
